<mxfile host="app.diagrams.net" agent="Mozilla/5.0 (Windows NT 10.0; Win64; x64) AppleWebKit/537.36 (KHTML, like Gecko) Chrome/130.0.0.0 Safari/537.36" version="24.8.4">
  <diagram name="Страница — 1" id="H5z1JCzbt-V6q5RK3kvL">
    <mxGraphModel dx="1434" dy="3116" grid="1" gridSize="10" guides="1" tooltips="1" connect="1" arrows="1" fold="1" page="1" pageScale="1" pageWidth="1654" pageHeight="2336" math="0" shadow="0">
      <root>
        <mxCell id="0" />
        <mxCell id="1" parent="0" />
        <mxCell id="fxnDVs0tsvRVQc2dhBXv-1" value="Компания" style="swimlane;html=1;childLayout=stackLayout;resizeParent=1;resizeParentMax=0;horizontal=0;startSize=20;horizontalStack=0;" vertex="1" parent="1">
          <mxGeometry x="390" y="20" width="1130" height="360" as="geometry" />
        </mxCell>
        <mxCell id="fxnDVs0tsvRVQc2dhBXv-2" value="Сотрудник лизинга" style="swimlane;html=1;startSize=20;horizontal=0;" vertex="1" parent="fxnDVs0tsvRVQc2dhBXv-1">
          <mxGeometry x="20" width="1110" height="120" as="geometry" />
        </mxCell>
        <mxCell id="fxnDVs0tsvRVQc2dhBXv-5" style="edgeStyle=orthogonalEdgeStyle;rounded=0;orthogonalLoop=1;jettySize=auto;html=1;exitX=1;exitY=0.5;exitDx=0;exitDy=0;entryX=0;entryY=0.5;entryDx=0;entryDy=0;" edge="1" parent="fxnDVs0tsvRVQc2dhBXv-2" source="fxnDVs0tsvRVQc2dhBXv-6">
          <mxGeometry relative="1" as="geometry">
            <mxPoint x="620" y="45" as="targetPoint" />
          </mxGeometry>
        </mxCell>
        <mxCell id="fxnDVs0tsvRVQc2dhBXv-6" value="Оформление аренды" style="shape=ext;rounded=1;html=1;whiteSpace=wrap;" vertex="1" parent="fxnDVs0tsvRVQc2dhBXv-2">
          <mxGeometry x="510" y="20" width="110" height="50" as="geometry" />
        </mxCell>
        <mxCell id="fxnDVs0tsvRVQc2dhBXv-14" value="Зарегестрирован?" style="shape=mxgraph.bpmn.shape;html=1;verticalLabelPosition=bottom;labelBackgroundColor=#ffffff;verticalAlign=top;align=center;perimeter=rhombusPerimeter;background=gateway;outlineConnect=0;outline=none;symbol=exclusiveGw;" vertex="1" parent="fxnDVs0tsvRVQc2dhBXv-2">
          <mxGeometry x="120" y="20" width="50" height="50" as="geometry" />
        </mxCell>
        <mxCell id="fxnDVs0tsvRVQc2dhBXv-8" value="Система учета" style="swimlane;html=1;startSize=20;horizontal=0;" vertex="1" parent="fxnDVs0tsvRVQc2dhBXv-1">
          <mxGeometry x="20" y="120" width="1110" height="120" as="geometry" />
        </mxCell>
        <mxCell id="fxnDVs0tsvRVQc2dhBXv-51" value="Регистрация" style="shape=ext;rounded=1;html=1;whiteSpace=wrap;" vertex="1" parent="fxnDVs0tsvRVQc2dhBXv-8">
          <mxGeometry x="280" y="35" width="90" height="50" as="geometry" />
        </mxCell>
        <mxCell id="fxnDVs0tsvRVQc2dhBXv-21" value="Подгтовка документов" style="shape=ext;rounded=1;html=1;whiteSpace=wrap;" vertex="1" parent="fxnDVs0tsvRVQc2dhBXv-8">
          <mxGeometry x="510" y="35" width="90" height="50" as="geometry" />
        </mxCell>
        <mxCell id="fxnDVs0tsvRVQc2dhBXv-42" style="edgeStyle=orthogonalEdgeStyle;rounded=0;orthogonalLoop=1;jettySize=auto;html=1;exitX=1;exitY=0.5;exitDx=0;exitDy=0;entryX=0;entryY=0.5;entryDx=0;entryDy=0;" edge="1" parent="fxnDVs0tsvRVQc2dhBXv-8" source="fxnDVs0tsvRVQc2dhBXv-21">
          <mxGeometry relative="1" as="geometry">
            <mxPoint x="640" y="60" as="targetPoint" />
            <mxPoint x="800" y="165" as="sourcePoint" />
          </mxGeometry>
        </mxCell>
        <mxCell id="fxnDVs0tsvRVQc2dhBXv-64" value="" style="shape=mxgraph.bpmn.shape;html=1;verticalLabelPosition=bottom;labelBackgroundColor=#ffffff;verticalAlign=top;align=center;perimeter=rhombusPerimeter;background=gateway;outlineConnect=0;outline=none;symbol=parallelGw;" vertex="1" parent="fxnDVs0tsvRVQc2dhBXv-8">
          <mxGeometry x="640" y="35" width="50" height="50" as="geometry" />
        </mxCell>
        <mxCell id="fxnDVs0tsvRVQc2dhBXv-10" value="Создание счёта*&amp;nbsp;" style="shape=mxgraph.bpmn.shape;html=1;verticalLabelPosition=bottom;labelBackgroundColor=#ffffff;verticalAlign=top;align=center;perimeter=rhombusPerimeter;background=gateway;outlineConnect=0;outline=standard;symbol=message;" vertex="1" parent="fxnDVs0tsvRVQc2dhBXv-8">
          <mxGeometry x="740" y="35" width="50" height="50" as="geometry" />
        </mxCell>
        <mxCell id="fxnDVs0tsvRVQc2dhBXv-68" style="edgeStyle=orthogonalEdgeStyle;rounded=0;orthogonalLoop=1;jettySize=auto;html=1;exitX=1;exitY=0.5;exitDx=0;exitDy=0;entryX=0;entryY=0.5;entryDx=0;entryDy=0;" edge="1" parent="fxnDVs0tsvRVQc2dhBXv-8" source="fxnDVs0tsvRVQc2dhBXv-64" target="fxnDVs0tsvRVQc2dhBXv-10">
          <mxGeometry relative="1" as="geometry">
            <mxPoint x="335" y="-220" as="targetPoint" />
            <mxPoint x="335" y="45" as="sourcePoint" />
          </mxGeometry>
        </mxCell>
        <mxCell id="fxnDVs0tsvRVQc2dhBXv-11" value="Механик" style="swimlane;html=1;startSize=20;horizontal=0;" vertex="1" parent="fxnDVs0tsvRVQc2dhBXv-1">
          <mxGeometry x="20" y="240" width="1110" height="120" as="geometry" />
        </mxCell>
        <mxCell id="fxnDVs0tsvRVQc2dhBXv-13" style="edgeStyle=orthogonalEdgeStyle;rounded=0;orthogonalLoop=1;jettySize=auto;html=1;exitX=0.5;exitY=1;exitDx=0;exitDy=0;" edge="1" parent="fxnDVs0tsvRVQc2dhBXv-11">
          <mxGeometry relative="1" as="geometry">
            <mxPoint x="145" y="85" as="sourcePoint" />
            <mxPoint x="145" y="85" as="targetPoint" />
          </mxGeometry>
        </mxCell>
        <mxCell id="fxnDVs0tsvRVQc2dhBXv-65" value="Осмотр авто" style="shape=ext;rounded=1;html=1;whiteSpace=wrap;" vertex="1" parent="fxnDVs0tsvRVQc2dhBXv-11">
          <mxGeometry x="640" y="50" width="90" height="50" as="geometry" />
        </mxCell>
        <mxCell id="fxnDVs0tsvRVQc2dhBXv-70" value="Передача документов" style="shape=ext;rounded=1;html=1;whiteSpace=wrap;" vertex="1" parent="fxnDVs0tsvRVQc2dhBXv-11">
          <mxGeometry x="890" y="50" width="90" height="50" as="geometry" />
        </mxCell>
        <mxCell id="fxnDVs0tsvRVQc2dhBXv-71" style="edgeStyle=orthogonalEdgeStyle;rounded=0;orthogonalLoop=1;jettySize=auto;html=1;exitX=1;exitY=0.5;exitDx=0;exitDy=0;entryX=0;entryY=0.5;entryDx=0;entryDy=0;" edge="1" parent="fxnDVs0tsvRVQc2dhBXv-11" source="fxnDVs0tsvRVQc2dhBXv-65" target="fxnDVs0tsvRVQc2dhBXv-70">
          <mxGeometry relative="1" as="geometry">
            <mxPoint x="335" y="-340" as="targetPoint" />
            <mxPoint x="335" y="-75" as="sourcePoint" />
          </mxGeometry>
        </mxCell>
        <mxCell id="fxnDVs0tsvRVQc2dhBXv-30" style="edgeStyle=orthogonalEdgeStyle;rounded=0;orthogonalLoop=1;jettySize=auto;html=1;exitX=0.5;exitY=1;exitDx=0;exitDy=0;entryX=0;entryY=0.5;entryDx=0;entryDy=0;" edge="1" parent="fxnDVs0tsvRVQc2dhBXv-1" source="fxnDVs0tsvRVQc2dhBXv-14" target="fxnDVs0tsvRVQc2dhBXv-51">
          <mxGeometry relative="1" as="geometry">
            <Array as="points">
              <mxPoint x="165" y="180" />
            </Array>
          </mxGeometry>
        </mxCell>
        <mxCell id="fxnDVs0tsvRVQc2dhBXv-52" value="нет" style="edgeLabel;html=1;align=center;verticalAlign=middle;resizable=0;points=[];" vertex="1" connectable="0" parent="fxnDVs0tsvRVQc2dhBXv-30">
          <mxGeometry x="-0.1059" y="-1" relative="1" as="geometry">
            <mxPoint as="offset" />
          </mxGeometry>
        </mxCell>
        <mxCell id="fxnDVs0tsvRVQc2dhBXv-61" style="edgeStyle=orthogonalEdgeStyle;rounded=0;orthogonalLoop=1;jettySize=auto;html=1;exitX=0.5;exitY=1;exitDx=0;exitDy=0;entryX=0.5;entryY=0;entryDx=0;entryDy=0;" edge="1" parent="fxnDVs0tsvRVQc2dhBXv-1" source="fxnDVs0tsvRVQc2dhBXv-6" target="fxnDVs0tsvRVQc2dhBXv-21">
          <mxGeometry relative="1" as="geometry">
            <mxPoint x="730" y="60" as="sourcePoint" />
            <mxPoint x="740" y="190" as="targetPoint" />
            <Array as="points">
              <mxPoint x="580" y="70" />
              <mxPoint x="580" y="140" />
              <mxPoint x="575" y="140" />
            </Array>
          </mxGeometry>
        </mxCell>
        <mxCell id="fxnDVs0tsvRVQc2dhBXv-67" style="edgeStyle=orthogonalEdgeStyle;rounded=0;orthogonalLoop=1;jettySize=auto;html=1;exitX=0.5;exitY=1;exitDx=0;exitDy=0;entryX=0.25;entryY=0;entryDx=0;entryDy=0;" edge="1" parent="fxnDVs0tsvRVQc2dhBXv-1" source="fxnDVs0tsvRVQc2dhBXv-64" target="fxnDVs0tsvRVQc2dhBXv-65">
          <mxGeometry relative="1" as="geometry">
            <mxPoint x="355" y="-100" as="targetPoint" />
            <mxPoint x="355" y="165" as="sourcePoint" />
          </mxGeometry>
        </mxCell>
        <mxCell id="fxnDVs0tsvRVQc2dhBXv-32" value="Клиент" style="swimlane;startSize=20;horizontal=0;" vertex="1" parent="1">
          <mxGeometry x="390" y="-150" width="1130" height="170" as="geometry" />
        </mxCell>
        <mxCell id="fxnDVs0tsvRVQc2dhBXv-33" style="edgeStyle=orthogonalEdgeStyle;rounded=0;orthogonalLoop=1;jettySize=auto;html=1;entryX=0;entryY=0.5;entryDx=0;entryDy=0;" edge="1" parent="fxnDVs0tsvRVQc2dhBXv-32" source="fxnDVs0tsvRVQc2dhBXv-34" target="fxnDVs0tsvRVQc2dhBXv-35">
          <mxGeometry relative="1" as="geometry" />
        </mxCell>
        <mxCell id="fxnDVs0tsvRVQc2dhBXv-34" value="Старт" style="shape=mxgraph.bpmn.shape;html=1;verticalLabelPosition=bottom;labelBackgroundColor=#ffffff;verticalAlign=top;align=center;perimeter=ellipsePerimeter;outlineConnect=0;outline=standard;symbol=general;" vertex="1" parent="fxnDVs0tsvRVQc2dhBXv-32">
          <mxGeometry x="40" y="10" width="20" height="20" as="geometry" />
        </mxCell>
        <mxCell id="fxnDVs0tsvRVQc2dhBXv-35" value="Заяка на аренду" style="html=1;whiteSpace=wrap;rounded=1;dropTarget=0;" vertex="1" parent="fxnDVs0tsvRVQc2dhBXv-32">
          <mxGeometry x="110" y="10" width="110" height="60" as="geometry" />
        </mxCell>
        <mxCell id="fxnDVs0tsvRVQc2dhBXv-36" value="" style="html=1;shape=mxgraph.bpmn.user_task;outlineConnect=0;" vertex="1" parent="fxnDVs0tsvRVQc2dhBXv-35">
          <mxGeometry width="14" height="14" relative="1" as="geometry">
            <mxPoint x="7" y="7" as="offset" />
          </mxGeometry>
        </mxCell>
        <mxCell id="fxnDVs0tsvRVQc2dhBXv-37" value="" style="html=1;shape=plus;outlineConnect=0;" vertex="1" parent="fxnDVs0tsvRVQc2dhBXv-35">
          <mxGeometry x="0.5" y="1" width="14" height="14" relative="1" as="geometry">
            <mxPoint x="-7" y="-14" as="offset" />
          </mxGeometry>
        </mxCell>
        <mxCell id="fxnDVs0tsvRVQc2dhBXv-38" value="Оплатить счёт" style="shape=ext;rounded=1;html=1;whiteSpace=wrap;" vertex="1" parent="fxnDVs0tsvRVQc2dhBXv-32">
          <mxGeometry x="760" y="30" width="90" height="40" as="geometry" />
        </mxCell>
        <mxCell id="fxnDVs0tsvRVQc2dhBXv-17" value="Просмотр доступных авто" style="shape=ext;rounded=1;html=1;whiteSpace=wrap;" vertex="1" parent="fxnDVs0tsvRVQc2dhBXv-32">
          <mxGeometry x="300" y="10" width="90" height="50" as="geometry" />
        </mxCell>
        <mxCell id="fxnDVs0tsvRVQc2dhBXv-53" value="Есть в наличии?" style="shape=mxgraph.bpmn.shape;html=1;verticalLabelPosition=bottom;labelBackgroundColor=#ffffff;verticalAlign=top;align=center;perimeter=rhombusPerimeter;background=gateway;outlineConnect=0;outline=none;symbol=exclusiveGw;" vertex="1" parent="fxnDVs0tsvRVQc2dhBXv-32">
          <mxGeometry x="437" y="10" width="50" height="50" as="geometry" />
        </mxCell>
        <mxCell id="fxnDVs0tsvRVQc2dhBXv-55" style="edgeStyle=orthogonalEdgeStyle;rounded=0;orthogonalLoop=1;jettySize=auto;html=1;exitX=1;exitY=0.5;exitDx=0;exitDy=0;entryX=0;entryY=0.5;entryDx=0;entryDy=0;" edge="1" parent="fxnDVs0tsvRVQc2dhBXv-32" source="fxnDVs0tsvRVQc2dhBXv-17" target="fxnDVs0tsvRVQc2dhBXv-53">
          <mxGeometry relative="1" as="geometry">
            <mxPoint x="700" y="175" as="sourcePoint" />
            <mxPoint x="795" y="385" as="targetPoint" />
          </mxGeometry>
        </mxCell>
        <mxCell id="fxnDVs0tsvRVQc2dhBXv-56" value="Выбор авто" style="shape=ext;rounded=1;html=1;whiteSpace=wrap;" vertex="1" parent="fxnDVs0tsvRVQc2dhBXv-32">
          <mxGeometry x="530" y="10" width="90" height="50" as="geometry" />
        </mxCell>
        <mxCell id="fxnDVs0tsvRVQc2dhBXv-57" style="edgeStyle=orthogonalEdgeStyle;rounded=0;orthogonalLoop=1;jettySize=auto;html=1;exitX=1;exitY=0.5;exitDx=0;exitDy=0;entryX=0;entryY=0.5;entryDx=0;entryDy=0;" edge="1" parent="fxnDVs0tsvRVQc2dhBXv-32" source="fxnDVs0tsvRVQc2dhBXv-53" target="fxnDVs0tsvRVQc2dhBXv-56">
          <mxGeometry relative="1" as="geometry">
            <mxPoint x="700" y="175" as="sourcePoint" />
            <mxPoint x="795" y="385" as="targetPoint" />
          </mxGeometry>
        </mxCell>
        <mxCell id="fxnDVs0tsvRVQc2dhBXv-58" value="Да" style="edgeLabel;html=1;align=center;verticalAlign=middle;resizable=0;points=[];" vertex="1" connectable="0" parent="fxnDVs0tsvRVQc2dhBXv-57">
          <mxGeometry x="-0.2558" y="2" relative="1" as="geometry">
            <mxPoint as="offset" />
          </mxGeometry>
        </mxCell>
        <mxCell id="fxnDVs0tsvRVQc2dhBXv-44" value="Получить авто" style="shape=ext;rounded=1;html=1;whiteSpace=wrap;" vertex="1" parent="fxnDVs0tsvRVQc2dhBXv-32">
          <mxGeometry x="910" y="80.33" width="90" height="40" as="geometry" />
        </mxCell>
        <mxCell id="fxnDVs0tsvRVQc2dhBXv-45" style="edgeStyle=orthogonalEdgeStyle;rounded=0;orthogonalLoop=1;jettySize=auto;html=1;exitX=1;exitY=0.5;exitDx=0;exitDy=0;entryX=0;entryY=0.5;entryDx=0;entryDy=0;" edge="1" parent="fxnDVs0tsvRVQc2dhBXv-32" source="fxnDVs0tsvRVQc2dhBXv-38" target="fxnDVs0tsvRVQc2dhBXv-44">
          <mxGeometry relative="1" as="geometry" />
        </mxCell>
        <mxCell id="fxnDVs0tsvRVQc2dhBXv-39" style="edgeStyle=orthogonalEdgeStyle;rounded=0;orthogonalLoop=1;jettySize=auto;html=1;entryX=0.5;entryY=0;entryDx=0;entryDy=0;" edge="1" parent="1" source="fxnDVs0tsvRVQc2dhBXv-35">
          <mxGeometry relative="1" as="geometry">
            <mxPoint x="555" y="40" as="targetPoint" />
          </mxGeometry>
        </mxCell>
        <mxCell id="fxnDVs0tsvRVQc2dhBXv-40" style="edgeStyle=orthogonalEdgeStyle;rounded=0;orthogonalLoop=1;jettySize=auto;html=1;exitX=0.5;exitY=0;exitDx=0;exitDy=0;entryX=0.5;entryY=1;entryDx=0;entryDy=0;" edge="1" parent="1" source="fxnDVs0tsvRVQc2dhBXv-51" target="fxnDVs0tsvRVQc2dhBXv-17">
          <mxGeometry relative="1" as="geometry">
            <mxPoint x="935" y="90" as="targetPoint" />
          </mxGeometry>
        </mxCell>
        <mxCell id="fxnDVs0tsvRVQc2dhBXv-43" style="edgeStyle=orthogonalEdgeStyle;rounded=0;orthogonalLoop=1;jettySize=auto;html=1;exitX=1;exitY=0.5;exitDx=0;exitDy=0;" edge="1" parent="1" source="fxnDVs0tsvRVQc2dhBXv-44" target="fxnDVs0tsvRVQc2dhBXv-46">
          <mxGeometry relative="1" as="geometry">
            <mxPoint x="1490" y="-49.666666666666515" as="targetPoint" />
          </mxGeometry>
        </mxCell>
        <mxCell id="fxnDVs0tsvRVQc2dhBXv-46" value="Конец" style="shape=mxgraph.bpmn.shape;html=1;verticalLabelPosition=bottom;labelBackgroundColor=#ffffff;verticalAlign=top;align=center;perimeter=ellipsePerimeter;outlineConnect=0;outline=end;symbol=terminate;" vertex="1" parent="1">
          <mxGeometry x="1465" y="-74.66666666666652" width="50" height="50" as="geometry" />
        </mxCell>
        <mxCell id="fxnDVs0tsvRVQc2dhBXv-47" value="&lt;font style=&quot;font-size: 17px&quot;&gt;*Создание счёта генерируется автоматически с помощью вызова Generator_otcheta&lt;/font&gt;" style="text;html=1;strokeColor=none;fillColor=none;align=center;verticalAlign=middle;whiteSpace=wrap;rounded=0;" vertex="1" parent="1">
          <mxGeometry x="1015" y="410" width="495" height="20" as="geometry" />
        </mxCell>
        <mxCell id="fxnDVs0tsvRVQc2dhBXv-49" value="&lt;font style=&quot;font-size: 20px&quot;&gt;Процесс создания заказа&lt;/font&gt;" style="text;html=1;strokeColor=none;fillColor=none;align=center;verticalAlign=middle;whiteSpace=wrap;rounded=0;" vertex="1" parent="1">
          <mxGeometry x="740" y="-190" width="380" height="20" as="geometry" />
        </mxCell>
        <mxCell id="fxnDVs0tsvRVQc2dhBXv-16" style="edgeStyle=orthogonalEdgeStyle;rounded=0;orthogonalLoop=1;jettySize=auto;html=1;exitX=1;exitY=0.5;exitDx=0;exitDy=0;entryX=0;entryY=0.5;entryDx=0;entryDy=0;" edge="1" parent="1" source="fxnDVs0tsvRVQc2dhBXv-14" target="fxnDVs0tsvRVQc2dhBXv-17">
          <mxGeometry relative="1" as="geometry" />
        </mxCell>
        <mxCell id="fxnDVs0tsvRVQc2dhBXv-50" value="Да" style="edgeLabel;html=1;align=center;verticalAlign=middle;resizable=0;points=[];" vertex="1" connectable="0" parent="fxnDVs0tsvRVQc2dhBXv-16">
          <mxGeometry x="-0.2833" y="-2" relative="1" as="geometry">
            <mxPoint as="offset" />
          </mxGeometry>
        </mxCell>
        <mxCell id="fxnDVs0tsvRVQc2dhBXv-59" style="edgeStyle=orthogonalEdgeStyle;rounded=0;orthogonalLoop=1;jettySize=auto;html=1;exitX=0.5;exitY=0;exitDx=0;exitDy=0;entryX=0.5;entryY=0;entryDx=0;entryDy=0;" edge="1" parent="1" source="fxnDVs0tsvRVQc2dhBXv-53">
          <mxGeometry relative="1" as="geometry">
            <mxPoint x="1490" y="-79.66666666666652" as="targetPoint" />
            <mxPoint x="852" y="-145" as="sourcePoint" />
            <Array as="points">
              <mxPoint x="852" y="-145" />
              <mxPoint x="1490" y="-145" />
            </Array>
          </mxGeometry>
        </mxCell>
        <mxCell id="fxnDVs0tsvRVQc2dhBXv-60" value="нет" style="edgeLabel;html=1;align=center;verticalAlign=middle;resizable=0;points=[];" vertex="1" connectable="0" parent="fxnDVs0tsvRVQc2dhBXv-59">
          <mxGeometry x="0.8833" y="2" relative="1" as="geometry">
            <mxPoint as="offset" />
          </mxGeometry>
        </mxCell>
        <mxCell id="fxnDVs0tsvRVQc2dhBXv-31" style="edgeStyle=orthogonalEdgeStyle;rounded=0;orthogonalLoop=1;jettySize=auto;html=1;exitX=0.5;exitY=1;exitDx=0;exitDy=0;entryX=0.5;entryY=0;entryDx=0;entryDy=0;" edge="1" parent="1" source="fxnDVs0tsvRVQc2dhBXv-56" target="fxnDVs0tsvRVQc2dhBXv-6">
          <mxGeometry relative="1" as="geometry">
            <mxPoint x="1080" y="65" as="sourcePoint" />
            <Array as="points">
              <mxPoint x="975" y="-90" />
            </Array>
          </mxGeometry>
        </mxCell>
        <mxCell id="fxnDVs0tsvRVQc2dhBXv-69" style="edgeStyle=orthogonalEdgeStyle;rounded=0;orthogonalLoop=1;jettySize=auto;html=1;exitX=0.5;exitY=0;exitDx=0;exitDy=0;entryX=0.25;entryY=1;entryDx=0;entryDy=0;" edge="1" parent="1" source="fxnDVs0tsvRVQc2dhBXv-10" target="fxnDVs0tsvRVQc2dhBXv-38">
          <mxGeometry relative="1" as="geometry">
            <mxPoint x="1300" y="-80" as="targetPoint" />
            <mxPoint x="1300" y="185" as="sourcePoint" />
          </mxGeometry>
        </mxCell>
        <mxCell id="fxnDVs0tsvRVQc2dhBXv-72" style="edgeStyle=orthogonalEdgeStyle;rounded=0;orthogonalLoop=1;jettySize=auto;html=1;exitX=0.5;exitY=0;exitDx=0;exitDy=0;entryX=0.5;entryY=1;entryDx=0;entryDy=0;" edge="1" parent="1" source="fxnDVs0tsvRVQc2dhBXv-70" target="fxnDVs0tsvRVQc2dhBXv-44">
          <mxGeometry relative="1" as="geometry">
            <mxPoint x="1420" as="targetPoint" />
            <mxPoint x="1420" y="265" as="sourcePoint" />
          </mxGeometry>
        </mxCell>
        <mxCell id="fxnDVs0tsvRVQc2dhBXv-73" value="" style="shape=image;verticalLabelPosition=bottom;labelBackgroundColor=default;verticalAlign=top;aspect=fixed;imageAspect=0;image=data:image/png,iVBORw0KGgoAAAANSUhEUgAAA3MAAALHCAIAAACrB4z6AAAgAElEQVR4Aey9eXQaV57423NOn/lj5q95M510z3QVDVK0RQhKgIQwCITAIIRAC2gfWfsuIWuxLDve9zixHceOkzjeZMd74k3e5Wxesni34yVrO5m8/s3yXr+ed15PL9Pzyzu3CoqiFoQAocVfn3t8ilJx69bnXooP37vUT3SzCFbKnkWgpA1Iei3hTbp0vS8ZdOnslJ2ew5eM+nRuytWno2TwJ5MhPSDlpJty0s28yZg+m5MsxnSUcgOSNTfdn0zpVjLlmdLZyZxu40v55vT82TzJPjvdmyzpdm9SFFgCk1VRQCaHVcGf8hRO4VSYpwhINkXheFNgDkHO5cgTKKHvEtCFBF6d3aLwXbgPBR8oRI8PrM2cnmfm1IKvglA1MSqOVadURXMbgNnI31pMZEMKaFqMVodaINkUuU3UqOdvz4ZsTsv3fSi8nw7f54X1OaI+XKxPnG4WoZ1FaDXsNEtDoJQVkDRZREBSExo1kcVNmYSakzIzCZQyAlJGBuFPKiKDTCoVEZCUhEpJKDlJoSQUCnZKVxDelE6ke5OcSA9MhJwg5HJukstlnJQml6MkC0hSmdyf0uRSMqWmyQOSVJ4qlT8PCQgAASAABGJI4CfcL7nwzTI73cCrldk8WmmktDJcs+RaxWw+rbQw7ASZik9c2FppQpYTulmGpJWW6GnleIWSdTzDLyOSy0CzLEBmGZpcCrAN3yxz0U8I3jbA+zskErM08jVpZJYcuaR/caENMEsFrZVEOksr05FWglmC8gIBIAAEZiSBSTNLbsAylxWwNKCAJX/MUsAquAFLXrPk1Upes5zAgKVwqNLJEMFxBylZTsl86cs2DLmkIq9RD1siswwStmT8KmDHLIOYJV/YcmyzDBK2nHSzDAxbBgQss1DAMsKYZWYoMUvVFIhZBoYt/QFLmTdgKWUFLKmXMfyZPiO/IeCigAAQAALjJSBgloFd4dm+AAyKxPh6/dj94DoyisP3NWzki1lG3Sx5u8IDzDJowDJCs2T1FKOXQfrBY6+VlGJGLpc8YUvfYADf8ADewQO8HeJjmCWjQ5zXLHnDlrwd4rExS4PvoxEsZqlFQ024HQW8veFaqjc8emap5usNj7pZKiaoNzzQLNNC6Q1Pg95wGAwABIAAEIg1gSibJf8gy9DMkjUMzmsDU2+QZUhd4b7hieMdXukfWMkMNwZuF9kUwVOwSOdYcik04DLSsGXUO8TJwQ/cDvFgZpkTOIo3xKGWfD+Wcvh6wyMxSzTUkjPOMiKzVPOMs4y6WSr5xllG3Sxl1DhLMEuIvwIBIAAEpgOBmJjl9J2+wzclJXSzjLpWBhdK1l8F/TJCuQwMW4Y61HI2/zDWYL3hjJilNXBWFgphjscszdQMnvDMMrxJPL4wP3sGj0DMcmaapX+oZeD0nSDjLAmeGTxgluPtioLjgQAQAAKTSGBamiU3UhXR9B1ytB93+k7ogyzZXeFhBSyDRytZ1hj6S36/DCqX4w9bRrlDnJ5oFWx6eJChlnxx7rE7xKM7PRzMkuoTH+/ccDDL6RCQmMRvLDg1EAACU5/AOM2SMZKMd5wlf294tGOW4ZhllAZZTlDAMhytzFcUcRNfR3n05TK8sCVfh3iEQy15W0LUp4fztmru3PCA3nDf9PBxxCz5OsS5Cw+FOoNnKvSGQ8wSNBEIAAEg8PQRYJsl75JD/hk84zdL3uk7ES05FN7E8KBmyQ1Y2sxoFUbuZJSJNcvA8ZSFfJrIY5Ncv8znGYjJ45dk5JJ3qvgYYcvomWXoq1ryTuLhN8vwpocLxywFFx7irOdKz2+jJ/HwmmXok3giMcssznqWY4+zzBBYz1JgbjgaZ8k31JK7pGWo61lCzPLp+xKa+gEYKCEQAALjIhCSWdKL8zG/OEOMWfKapXdieHiLWfKZZYQTw/nNMrRBluPoCheYEh4kYMnu9eaVSKGdgWIqZJaFAqXilUvheTwhdYjzcg5xqCWvWUZzerhvgVWe9dL5JvGEGLPUc5ZZiHCxdN6Y5fgWHgpcKT1gbjiYJYgdEAACQAAIREYgemY5nmXSY7PkEHOUHj10j3cxS8p4Su2yjR7RoSW/GFn9zMjqn51a/bNTa7zp5NqfUenE2n84sQ6lAyue3dCHlzlkvGY5rrk7XrMMHrDk6GNxvoKbeCKaDL8Ukstohi3DW3uI80gkur6YlciWy/FM4hl7nOVUXtIyyGN4yPUsY2OWkTyGB2KW4/rFDwcDASAABKYvgafeLH3Td0rzZe8s+/npVc+MUCkEuTyx7h8OrXq2nCWXwstY8gqcUMAyIFoZqJVcoWTtYftlELkMPpWH76GU3rBl9DrEeYdagllSixBxe8NnsZ7uGMZi6SHELDNYT3cke8NjY5ZyztMdYW749P2CgZIDASDwFBIIySz/8kfbuBJzxkOw3vDABQVZ61n293WuW7fyxdDSvP5O7gN4mOEu2lTYMUufWW7qFp1e+czpVSiNSy439IkCwpZCZinQ6TyugCXLIIO/9PtlELO0eR9Nzmu9wTrEwSz5lrRkDhehx5Cwh1rOGsdi6RNilpPx6PDQY5bhmKXvMTwBDw2HZ/BE1p/1FH4dwiUDASAQFQKhmuVPQv73lz/awjBLllaactLPnDl/687DENPZs+fZXaWMZwMixSRn8LC1knxcOPX0nSOLf3Fm5TNhyOWB5c9G3Sx5A5aCHmnn6RanDg5JLsc5jyc2Mcs834wr5s8DbhWPe5xleEtaCo2zhEeHRzaDJ+qPDgezjMq3AmQCBIAAEIiEwNQ1S/4nhuekm4Vm8HAW02ZKSRCzpAZZnlnx7JmVz4Qnl36zDLKSJV/McuyAJaMfnG2WdkUxNwUOvvSbJWO2eOijLYPFLK0K/1WT8Uu7JYRJPHwLD40xPZzxCyESs4xosXQwy4npDQezjOTeDe8FAkAACExNAnxmyZnN+pc/2qiQ5a/Jf99+++3OnTv/9m//9qc//emyZcu+++67P/zhD8ePHxeJRD/5yU+iFbOMpln6AmC8MUu/WZJyee9UzxcfrPnigzUPL75wZZcF9Yyvfub02n98/OEaKt072z+6LZ05ocfvWEJd4VaFYxxmWbzs1YFuJ4Eilz6z5GpliV3BTcg1fXJZZMsdfHH9a1vItGHR8v6SShuZJ2eqECW4rA5xR0nr9mNvvlBGcGcjCYQtQzDLyJ7EI2SWFT2rXuoroFcgMhvTTQZDx/L1C2szmGtbjj2JJ3DhoRxby7ajO4ZKCMFVhzgxy4AlLce5WDrvo8Mj6Q1XZxb1vjhQmS1XM5YfyuR7dHhGBuFPKoGFh5REJOMs09MDH8NDyAkyyQk5O4UxzhJ6w6HjGwgAASAwZQiMzyx//PHHoaGhsrKyf/u3fxsYGFi2bNnvfve7mpqagoKCY8eO/fKXv4yBWdICwdzgDrK0MGJdgoMsyd5wyizPrngWhS1XPPu739z5j2/e+/Wnb35/5+3//uN/Pnpv5ciqZ869JP7xxx+/u7Pv2+tv/ObRyb/8+ffX9hfRchmKWbK8jXpJxyzbXj5x9pVSbzQxv3/kyejLbmGz5HNK2jJpuSyyle6+8f0nI2/tHX5r34EjF69/eX90TWc+ypYdtuTrEHeUNL1+eOuC0tDNUkGFLZvXnzizsdTOt2ZT/sSYZcH8I49vvt6SQ9BNwlS05OK3H653ExGZZV7D5oOvDxRNAbPUEOWrTpxaVzqLnCTOu/BQlppgJXVW37tPRpeannazTJ0yd9upGV2AUgEBIAAEoktg3GZpt9t/+tOfPnz4cM2aNd99992qVatYIzCjFbOM5jjLEGKWZ5c/S8nl735z987xdqpb/NP9pf/7f/58Zu0vz61HZjn6qoxaiuira5v+7+8/ppci4pplgUVdVmoothJFxbbGKn2hhaBUsqjQWF2cSVtmocNQU6IpKTIO7b1796CnptzgthGFPrMsdBib5phK7QQdhixGIUxVZXVBk1vlV8l8dXWlocxOlBSZmmuNZXaCkkvSLL85PEhQgc/CgrLdn313ZmV2YZ66otzgshHFbmdrpQZZZp7CaVWVVhTUF6vosjms6vIyQ4nVa5YFFpW73FHnUjstBDNmaTerXGWOOpemwEzYLelOZ+7g8N27+z2VbkOhheAuNV/uNlEqz/y/zG3ihpPp3wP0qAahmKXZ3Hbw0b0drQraLEvXXfrqwrISg9csTQZVQYmj3KE2GwhqRG+uXu0sNOQZCLPdWVOsySUnk5lMxnK3yaInqCUtc7LVBU6DVe81S4NOZSsscOep6GHEep06v8Bg0hEGo6m02Ig2GI8SYM7g0WmUFkeBKz9Lr5GjCT2zCPJB4Uqzw15sUeqol7MITVamJV+fo5FrDbnFRTk5GjkVs9SbjF0779wZ7rbb9DlZ8ix1ptmmN2TJdRZHaUGWhlx4SJ2pNNrtzlwl7ZdBzNJqzc1kzBCnApYWay7amHExSzDL6H5nQG5AAAgAgeAExm2W//qv//rb3/723//93xMTE//jP/5jaGhogsyyv68zxInhL65bieaGBxlnGaJZknJJmmUHNeby0mb5jz/+eGmzzGeWcmqdy1sn2/6/3357ao13kUses8zrH3lybvtLx27cu3P97jePPju0uh4JZdmyY1988kqLFYmmw6qaf+DR3b0Nvdsu3Xjw3TcP73zyyf4VJZRZXtrz6tFPr9+8+9UPjz8bXlLhlcuypgXvfvLl47s3bz/65sbImrluosSuKC7oP/3k/O5Xj316/da9r394eOW1eSXoeJZZFuUrXjj89fXt5ZS57n3z0oPHDz94raLQpnA3Lnjnky8fUdmeWtNdTBbPhkKn613ILEvqh45+/PjB7Rs3Hn352YllrfmkXFoUxXVDRz7+4uGd23e//Pb6yOoOO+F57dJ18lo+/nj/kiIes9yzb/+CBb1MrVywoHfPvv0RmWWOyjP84O7ueisZtjTn5G344NcjywxUwDK/eujQtccPbt24/vDLT48tqzchuczN6T/xZHTXNgThvc0VRn1G/epj1x9/8dm1m3fvXNnVazTq03MM6JjV+cgsLZULDl378tGdmzcffnP9+JpGK5GTna7X9x9/cv71l45d++zW3a9+ePDha+1mwj893Ncbnls+f//VLx7cRpQ+O7G6NkeePYswVgwduPblwzs3bzz85rNjq+vMcu0sQqPtO/bk/LYX3736qTfDllwklw2bLn32+XffPLhz9erb80zyLC0KRr615dLnjx6ObizXqAlD6dD+q77c3l1dkyvPUhNBzHLn8P6eub20XGZkEJ65vTuH94NZBr9dwl+BABAAAkBgTALjNsvm5ma9Xv83f/M3P/nJT3bu3Pn999+npaU988wzCxcu/Id/+Idp3Bu+/FkUtlz+7H+imGXHmRXPnl39T99+8trv/5/vTq96xmuWm+Ujq585v+G5/+u7q9/fO0Cto35y7c8EzPKHuyfm1+URBRZt52vvP7r8YpOVcDg8xx7feLOJDGHaWo88vLurA/VNd++4eWe4jtEb/v2Vt2rKbURRcelbl//l+vYyZIr20h2ffHFxk7s8nyguyF978v7t/U1laLv/9JPvr2yvqsgnXKUN+6//8P7GPK5ZFuYXvnHt+3NrDKRZPvloR0udkyi0KZz5pW998sXFDW63lXDY8lefuH97XxMKVfrMsiDP9ca1L8+/VFhkIQryC9affnTttdICq8Judb/58RcXNrhLzERBgXvLe99e3Vpst6R3bL95e0+dUG+4q8iw78BhWi4XLOjdd+Cwq8gQiVnONqZbWl6/dX/Yk4s6xM3l6z768vjCPBSwNBldr1398uy6QpuByDUXrB55dGVzqc8sn7z/RovbTOQa0o3mgZPfXt82R5WrT7fMWXVg19zibII2yxx96WvXvji7zm3REQZ9/qJ379/c02TWEaRZfv/B1iqrlsjJa9j12Q+ja/NYZpmtc225+sWZdS6TRp5tdL08+u3lTUU6nXvLtcdn1rmMGrlWZ1v4zv0buxtzNHLSLL9/f0tlLopH1u/89IeLa6xU2HLOtpu3ttdSveGkWT65tK3ZYZBrsogsjfvVq49Pr3EZMuXqLNvQO/dv7GrUo23B3vDcXP2etw/TcumZ27vn7cPGXH3szDI9duMsIWY55tcAHAAEgAAQiCKBcZulQqGgg5R/93d/d/r06R/Jfw8fPnzuueemr1meW+Y3y//5y5/+8uff/+//+fP/+++Pru6YfXql1yz/8uf/Ivf/9799ffH8xkT6CT0CZnlnR6uvK9nuOfblR5urCIdVNXTw8WdvljnzFCWDbz/8dHO7Fekdxywvb6nx9mI3bb787cn+YhtR1L715v1dAwUoTolClc0bP328d4HXLC9vrfXun7vr9v39zcV2Kmb53ZUjaAbPtjdef+eDBw+vvjq3gIqJfvBKBTovMsu2rTfu7eqzEdRjHh0NGz95vHeQaZYtW288PLqiyjqnnEzLjjx+b3WVhbC3bL1xb2ePhaAuP9+a4cxTjmmWNnM6LZd+rTSnR2iW5pzSN69/sX9uxmxjet2rHz844rGRXeGmhq3XHx5dXGotLbG6S6yli488Hl1doifImOUH64uQViKzNFRuv/nF+W2eBkcm/XRHv1nWbr1+b1ebHsUpc7LTDZUbrz3a2+01y8vrS1AnuEGX3vjG7XvDzWyznLP1+t2dzVqyE1xL6HQqY7ZCh3buatbJvf3g5RuvPtrb7jXLy+uK5NQy6XWv3763p0nALD9YbUdaicyyCuXWiHrJ0VBLtRvl1hbULDMzCFoue5haGbPecDBLGP0JBIAAEJihBMZnlr/61a/++q//mjZLauPv//7vExIS/uqv/op6Ga1xljHuDT+37FlKLv/zN3cfnJn/3kbphXVx9FJE515E4ywvv5V7cVPqmbW/ZD3+UcAsL73sm/5SYC3bdfPBcDcKVRZ6dty9ua3TmrH46BeXNzvQJB4esyRn8JATw6tePP/tyGCJjShaePDrj9bV5/vMsnD+2Sfn1pdQMcvRDWXe/e3brj081OaLWX7/8anX9+x6fc/29RuW19cXkNN36HGclFkuPPj1h+tqrT6zLJh/5sm5dYWMmOXQwa+/fPDZx5984ksfX1zfZiHs81F5asxes7RbvDN4gscsqX5wSi6paOUYqw6Z0sccZ0kNr0RCeajbllOy7dPHez0qqivcNIAK/+m1T67R6fz6Bq9Zjq6xe80y15DuaFo6PHLt7pff3hodXtduzmXGLPsOfv3+uhKdzyxz5596cm6ZhYpZjq6yec2yctO1B/va2GbZi95bRA2v9K26oEM71zo1PrPMGTz55NxiExWzHF1u9Zpl6cZrD/a2Cpjl6HKLzyw9B79+b21Bps8sswdPPDm3KCdYzJLqB6fk0h+tpGaIx2acJZjlDP1GiWLYA7ICAkBgmhIYn1mynJL3ZbTMMsYzeM4t+zkll//5m7t3j3XQE3oouTxPmuWlzXLeJ/QImOW9PZ0KasmegoK5J7/66JVKcvxiXuXuW3d3ezzHHl3aWI58jjLLu8P1jN5wPrNs23Lj/m5GzHITI2YpZJb+GTxoHg/5MB7/DCHKLFu33Li3u99GdtDnKRyNm9gxy9bXbt5+o9vinyROzeBBMcv7w31Wn1nma90FKipmeWe4Xqg3nB5h6SoyuIoM1Ev0gMcQHh3OHUrLXCndXLb2w8dHh9q3XL+7o8Pom7vT8NqNW2+0UPHLnHS08JABJWqcJdMsUfBSn240GBqWH7394G2PkdEbPmfL9Xu72/0xy02MmOVYZjln6/V7e9p13phltkFjNSp1NVs+u7u7hY5ZVmxixCwFzfL2W3WM3nCGWVai3JromGUpym3MmCUtl7lUJzi98FBszDKGqw5Bb/g0/XKCYgMBIDBNCUxdsxRaz5Ke/8vciHzVofPILJFc+s3SN1v8zIpnmWbJlUsBs/yXe6eXNeYTBRb93B1XHn+wpp6cuOPMU7S/8dnd6zcenl9cSUYKC22KlteufnNpdV0+2UPtiylSc7r9MUu7a/vHX1x6tQyNs3Q61o98fmtvfam3NzwCs8x3vXnti9FXylxWwmF3rDv1+c3h+mK6N7yEKMhzv/nx47MvuV0WoiAvd9G+Dz/YNsdhIexW9xsffzX6ajk5zrJs20ffXnm10G5Jb9hy9ZvR1TVWnuk7E7TqENUSzDnmF0e/+eyze9ffrKIXGzIZ3duuPT69zl1gIHKNufOGP3zv1TlmTszSWL709LUji5wqY7bS3rXzxrcjS6wMs9S7tlz54vxLZVYdYchxLDv++fVd9b5xlmOZpc716tWvzr9cZkbjLEtfef/bD1926nQlm688Pre+NFcj1+oLlhz7/PrOOoO3N5zfLN0brn5zYbVTI5+VRVAzePwxy6ySV648PreuFI2z1BYsevfz6zvqssfqDaen72TSThnLmCWYJcQsgQAQAAIzlMD4zJIaUsn8nxu2jFbMMtZmufTnlFz+52/u3nuXjFlSc3rIRS7Pr5P8+OOP722W8z7+UcAsL+146dD1Bw9uP/j24bW3V9Zm+Bf0qV1/9cmvR5Zl0+tZFlb3Hbr8+eNvRzdW+FcdolZKp82yOF9R2jBw+Mrjxw/u3Xv81afHl3tKUA84OYPHb5ZtAb3hjJil7+nhrJhloU3hqvdn+8mx5Z2FZGyVmsFTgkKVxXUDBz56+Oj+3bsPHnxy8a0lVSoUtrQoimrnHb7y+NHn9z7/+pvPjqM542hJy4q+Ax+ha3mplEcu6ZglcyMqMcvZxvSSFae/fnJ9a23AMpa2qoF9Hz58eO/unc8ffHz+rSG3ihuzNOpNA9vPf3r30a3bX3z56JODS4qYveHG7HRz+cC+j9CV3n381bWjy+sthME7N3wMs9RridzSeW9ffvzo/r37X33zyTvLqg3k3PDSgb2+DK8eXTbHRM8N5zdLraN3+ANEdVW+d244bZZobrhrYPhDdIq7j7+6emRZVc4Yc8OZWglmOU2jAlBsIAAEgMDUJDA+s+R6JHfPRJtlOE93DGHVofNLf46SL3JJT+hhdYvzPv5RwCxH15cQTkfunFKt00Iwn8HjqF770eOjix1kVzjZG45m0uQpXYXqojzvY3K8jw7nPIOnyKYoLbXOKVLS61kyN+hl0uklMOmn+HgzpDrEWYulo/UsFSVua7VT6ddf54JzT86vK/Z3ghcVmysdqH8/cD1LRVFJXnUh6gf3ptnp+WZlYYHabo61WXqDl8Z0OmZJb+QVmIutCro3nH5OPTWDxzuPR68pLjbZDN71LOmpPNQzeAw6hTnfWmhSeufxZKcbQn4Gj05D5NqsTrMSLWbpX8+SMNosdqOCXs+SmrjD/J8aZOldIF2tyDFk6tTe4ZX+9dK961kSeoslT6+g17PMYjx6h34MDzyDZ2reiKFUQAAIAIEZQ4DPLGeRX36+2QbZWoJ+uiPXI7l7omWW0RxnmZs+5nPD313wT+HJ5eHFv2CZJRIvtJ4lMkv/oxHJpzs6rKbeVav3XLz30RZ3IdUV7jNL7yBL0vn8FugzyyLfMxtpZUQSyU2Bh/m10jfIkucBPORK6dTEcL9WFpet3f/R49uvdzGGV3rHjAaaJX3tTLO0z07nH2cJzw0ntZJaKZ0SSvr/qD/dcUqZJQFPd5yh3V4z5rsQLgQIAIFoEQjVLP/yR1voiX5ISU52ujE73R/70Xu3c8kHNDPDRXQMybuRk97f17lu3coQF0sfY6X0oGaZR+rOqx1ir1mOM3K5qedXtF2hDUq88uq2nHhl0Mkxy/yqTYeHd6xvrvPNmPF3iDPiiH6zDPLocFoiGc8K93sn+Ve/Wfq6wnnMkvfRjlW9uw5sXtGk9Zux1TcbibpAC+oNpxM9MRz5JamVoZsl6goPMoOH8ZTO4DN46HG3Zr6Ypfeh4b4ZPHR7YzZCqllym2vozw33TwzXpTOfweMNVfoClmCW1EPDCe5Dwwm5HJ4bDg4KBIAAEJjOBEIyS/o7kvnFSa3h5/+f7BxkOiW1HaJZ5pIzdunve7RBzuSlezP9G8Z02iHoDTSDx5jOMg96tRq0IdQhTmqNzZxemi8/ufAfxyuX7yz7eYVDRgsWbZZcIWP2htOhQbQIEZUYWkkFL8cnl7RlMjZC0kq+gCVdPAd6UBA7MbvC6QuPulnS9cWsRFb9UpVOtwF6I5hZBjazAK0k54aj6eHcRC5jyWrbqCuc0xvO/IDQn5oArYSYJRW8JGfwyMEsp/OXR7TCG5APEAACM4wAmCUKmFGzSUrz5a92iEPsFj+y+BeveETlBYFa6YtZcoXMYVXQxsbc8Jolp0+c1ywpWWQFJrkv/U5JdaaPFbBkdYXTxeO9CjBLSjGnsVkynhhOTeWhnhvu/X9iVh3i7Q2PmlmmyaVkSk2TsxOoGxAAAkAACMSWwFNvlia/WTJnK+eb0/Nn8yS6q9c3rNDfI+wN4JGdxbxOFpWwJW2NXKFEq6NzUxCtHH/AkjV9hydmGaQrHM3s8Uo8E3WwrnDGMulWznPhIWaJJvGQ03c05NN3/HN3qJdCM3hCMEuVimAnJaFSEkpOUigJhYKd0hWEN6UT6WQK3SxlYfSGg1nG9mtjhsVX4HKAABCILoHomaUOdQ6yegzHGGepRw/Wo1NAV3g0esMtjCF6dO8qd0VuOmbJ1B1bqGaZTtsV0ywLOJ3IyDXJSTx0RJDeEApbFjKk0BvC5IpjkD2Bb2fOEPJu+/ri6ZIwN4J1hZNLDjEv3OfZQQdZzubRyggfwMNcKT3S3nBq7C+3K1yPxgpzGza3K9ygS49Bb7h/Sjj5aMdYmiVXK5VKAswyundkyA0IAAEgMN0JhGSW2VrCO2iM8d3pH2FJPjQZveT7AuYdZ2n0fYvTWhnhOMvZfOMsIzVLPrnkxCzT7YyJLEy5jH7YkjLFICrJ/FOgVvJM3JmIgOX4p+9EaJa0TTI3whxnScic4GQAACAASURBVLZJnkGWkZkle5BlxOMsec2SHa2cmJglmOV0v91D+YEAEAACMSDANkvdLCKbs+pQJGaJwpZ8caBQpofHbLF03rAlb4f4xJolZ7Qlz2weWhmZHklv039lbPBEK31aKTjCkm/uzthd4eM3yzEmhjN6w9nTd3LRnC2mUNLb/sleOf6FLb1zw4PM4BE2S27AModv+g5vzJLXLOmVhpgbIa46FLpZ0mtYMjfQepZBesOFBlmq+LvCUcyS0xWuoLvCFd6u8HTWkkNBHhpOyKE3PAb3fTgFEAACQGDiCIzTLLUE3d8XYsxyqphlCNPD2b3hfDHLfN84QqSYvrXBmf3CaNu34mM4YctxySVDHwNm/DD2R18rw+0KFxxkyVlyiB66EGxi+BQ3S1+YfxxmqSGYa6RT28yV0r3rpVOd4PT/5DhL3pglUyjpbTDLibuZQs5AAAgAASDwvFQ+Lc1S8DE84S08JDCJJ/ShllHpEPevQCQglzzDLhkGyTVLfqccK1rpzEPjQXmdOKJZ4ZENsoxw+o6ZXMEq+AN4BBez1PMMshw7ZglmSUUuvTN45DCDB75vgAAQAAJPCYGYmCVfh3iIveH8HeJ83aDhL2kZxCz5wpahd4jzz+MRnsoTilyG4peCThm5VvIELBV07JYmwzOtnm9WeOiDLCM0y6gvkw5mSY+5DNYb7psYPo7ecL6J4TK5PI1KMnkaI0llcm+CueEwNxwIAAEgMGUIRNksQ5/EwzXLCCfx8Jpl6JN4Qh9qGVKHuK9PnDf4JzRJnJqaHWSqeDBl5Ky1znNw0Mng1NnHFbAssISmlUHWG+J0hef51rRHfeK+2f28gyx5x1mGOX0nGsukB4yzHGfMkneQpVZDhN8bzrfkkDqTiG5vOO/EcP84yyiZpVcr5QFamUZrpcy7mKWUu5hlmjx1ytxqn5JYBVwmEAACQEDALDmTeOgHitDjLPX0lHB6Y1IfwzP29HDfUEvehYciNEuhDvEwwpYhRi55xDG4XEaulWEHLMMzS59W8gQsgwyyDPJoxyDTd6JhlsyPBv15YY+zJGfIMSfuUNu8ZunVSg1BjbAc3zhLPrNEWhnVGTy8ZsldzDLCmCWvWfoDlmCWYM9AAAgAgalEYNLMMqKFh3L4JwWjsCVnPW067oU2fPEwXrlkzeChXoY/Qzx42DJon3iAXAoPuwxVLn1OKTQTPHi0UmhKOBmwDC1mGfWu8CBmyZgPTk8Sj2RiuOBilvBox5AXs4yOWTL6wQMClkHMUgoxSzmET4AAEAACMSbwE1wkgQQEgAAQAAJAAAgAASAABCIn8JMYmyx9usiLDjkAASAABIAAEAACQAAITCkCYJYQsgUCQAAIAAEgAASAABCIDgEwy+hwnFI/F6AwQAAIAAEgAASAABCYFAJglmCWQAAIAAEgAASAABAAAtEhAGYZHY6T8rMATgoEgAAQAAJAAAgAgSlFAMwSzBIIAAEgAASAABAAAkAgOgTALKPDcUr9XIDCAAEgAASAABAAAkBgUgiAWYJZAgEgAASAABAAAkAACESHAJhldDhOys8COCkQAAJAAAgAASAABKYUATBLMEsgAASAABAAAkAACACB6BAAs4wOxyn1cwEKAwSAABAAAkAACACBSSEAZglmCQSAABAAAkAACAABIBAdAiGZZc2chkVLVtBpaOESg3E2/QTw8DYmxaPhpEAACAABIAAEgAAQAAITR2Bss1y+cu2tOw9Z6fLV66XlVeE5JfWuMC5JJElQFLXPalytbX8lq2W9qvqFFGNpGPnAWyaLANRg1MkD0qgjDZIh0A4CB/4UCoFfxSVp6pabFh6YvfJM7uJj2p7taQWtobwRjgEC04jA2GZ5+er1bW/uSk1Lpz1Sn2M6cfLcjVufe3oG6J3j3QiDUfKsvPSitucNxbOQWW7IaHxRWbcmTj4rjKzgLZNCAGow6tgBadSRBskQaAeBA38KhUCauTyrbpnc3mBacTpnyYnshUdnDR58LsMUynvhGCAwXQiMbZa37jxctGQFSxwVKvVbO/exApnUy9H3rlRWz2Edz30ZBqCUbMes1pfUdStJrVyvrFuTXrMyXhXsM4nhRF5Td2GGOIzTwVuiTiCcGhRluz01+nioQf7hL+EgRR+Kni4PSh1tjWUOfYoI8PLjZX0EwqCNiyQYLknKLm3yLBhaMK+9Oi9NMmm0sZTC3heXlirHKACW6W731GSH+6HD4DMrEmxOsrwa89JjhqG3Sa18Z9bgQXXfvgStk9XSIn+JpVWt3butKWuMuo78RJADEOASCNMsn5fKpbL0jq659OBLeuPkqXOjly5zVZK1h1uUIHsSFLrndY7nc4pTzRWpueXPG0tV9WsVc1bKq5cROmN1SUpRfhLv2zHcOO/QuWWFwT5dmtbNr3Qaed8+cTsn5aQTdzlj5hx+DYqrXx59q0EarAbHPPuMPCB8pOhDMTq8cemCRUtfWPHSlgNn3n29K3vydGda1E4EtCWq2s1HTx56dc3CnnmrNgyfOr6jVx8Xu/bMvNVgyQ7PmhdKFMHOjuESywvHLoxeeLEiJbyqweAzy2eWyVkWmaVaZm8gijvlhe2yglbt/ENZ/ftUPbszLQVzm1IbwgXOW02YtHzFrs21mcHqmveNke/MmmVQqLKY+ShUWVmzDMw9sD2zCYRvlixTpF8uWrLi1p2H9EuhjdCxpmYX5vS+ofds1XZuzmrbkNm8XtWwVlG7Sv7Py9IqF5sL9FfeybzyTmZjVTI3T9osMTwxWZYmEYnxeCJDJUMb5Idfkkw4l7xzdEVpmiwtzrcTw+MSFRqVNBHHvYfRbxdLtVmKJPqlJCUjQyUVCxxGnYKbW3gnZV6dUAHESbK05AT/kfFpadIk+ir8+/lufBP314hqMPBbigsTT0hLkyaLyCrA8LgEKZGS4A0YcA+muVH1yLxk+k+sOp2BSAN/bmGS3Hlvj26YI6VoYHh8qiobNX6ykdBYAojFyzMyCPpD5DtyjE/N00rbuuDoicV2H0+Jseetoy8448eEJkpWKaS+z3KiUqVKk/juM2QclL+agt/fqNpk3egy0gJuEZikYOnxo8uWvTHyakOy74x0M2Dl77uKwML4PrO8nx0MT0iREWn+JE/0/aqZwR9YeV6N/eUP8tZdNK86a1x2Ur/oXe3Q4ayBtzPm7lZ0vVX8z3n//XX2f3+dvajneebHxIc3Saok4kVicapGLfM2CVFSllZDxPkqiGwSCTKNSSv3BlkwHL0rQSSmNuJFYjwxQ6tRog3O/Z8+Ji5Nq9PI6ZYmSVEqfLcC9K5EQiFLoW623EzoPXK5qrWzV5mhofYoMzStnb1yuYo+ADZmPIFpYJZZdUv1nte0nZs1bRvVfq1cnla5JLVsocuddflIxuVDxFtreH5h+80S3ezemNe1afjA0XfOvXd891BeEvqAmebuOHBy9OzJd4b3ri1PQXvidHWr9p0+fvTwwZNn9r3clk1GF6hf4S/Me+v4yKk35prIl6/3tW46eOyd/e+cO/n2+mot+sCzDhPKLbyTMtuiUAGSKjed3jeQ5dOsguWnjixxTLpZRlSDvm8pIZhYRsu2kb1dOtImdb27RrY3qNB2KPX4lCINNEtcJClcffbtQROGx2fNWbfr5LnjR46+e+7MrsVuKS5mNWkMj9c3bzowcnr/3iNHjw4vLJFRDIG28C2oYOnJk8sLee5OwtDemO/ZduidEycvnNveX2Sfu/3I0WPvnh89vKFeiYuFq2ns+xtVm1QPAHX2E0ePHj174cCmToOv71tSvPbE24Pa1PrNZ7fXy3w/rQXun8KFQf0MvLcjLLVuw8mRd6k0cvH86DvzckO98U7fD6xx3s68daOzV53NXXbK4NXK/Rlz9yi6dsjbXm9q0f/5S+2fHmVcO+z9gRdwpZKOg0/OvLxi5LNb9z//5uvz62rKVp2/fvPu3a+/u35wbhZqEgmG7uFL97++d/3GnS+/vLS1Xo6LMfSu831yauPM+iVHPrp24/ZXP9wf3VhCftNxTjGydujIJ3duXbv19YMr+zqN6LdQSvuRx5dfzPF+ocSXv/HwxtbyMc0SF0nk6Rmtnb0KVZZClYW0Mj2DeTrYnvEEpoFZats3ajtf1bRtUje/pKxZJi3sTC1oT8lvTcprUuRa926UXT4o+2j/86fe8P2+Z/wgCzTL0R0DlgRcLEp1LDrw3utt3raeM3jkyKJ8qqYxkWHu3jObW7USXIzFZdVvPrV7bo5PGUe3DxYS5P2XvEG/d/TlWqVEjOEphrm7Tu7syfR+DTMOE8gNF0nCOCmzLQoWIL503cihuXp0p8YkRStOvjMvV3DEDzPDCd2OqAZ9ZilYNbgks2PHu681y3FVw7aR19u0OC4WPBjl5q8g5lU/RUgDzRITaXuGR1+pS8MkuS0bXumxpeG4WCSt23h2v0dDmaWfGBZfveHCoT4DCrlJDJ0rF1fKgPYYtyCJum7DwRNHtyzvrXYaUun4nMDNgWyH7w8vtKeIxBLj0N7R9/cvKUwRi0XK9m0XjvbniINU09j3N8anqXff6S0dhnhcjCcaut48v2duNhn3Sipbf253TzaGp1RtuvBGeyb1GSFLxXP/FC4MMkss6O0Iw1Pzlxw+8nJ12lPQhGavODV79bnc5SOGxcdm9Q8ralcR/7xchoIjL2icpXdOq/70UPHH+2n/50c8w7pIR/zhw1fKpGJxfP7Gy09+uPZatVQiFqsXjnx7c51NjEnsQwePrnIRIlwslvcc/uLqctROmGb53cV1hUm4WCwr33Lth9MLvNFE+gZIneLmAU8W+kaT5q0cfTC6MhsXY4lNw48+W22hvlBqtt+//VJBqF8ohCKztbO3tbM3XeltRfTpYGPGE5gGZjmrbeOstk1ZzS/Li7te6JEd3qY8tl11bLvq3e3K9/cTlw+mffR28ofDz53e9itubQWa5XC7byqPcejosWXeQdMBkpczdPDky+UqFaEgU81LI9s70Y0P3ZF3txDMX/DvDBh9L+NK150ZbldxDhPIjW2WAoexTsq8OvJPfAXAE5wrR/bNy0Vf/EVrjr89qGV0lzBziOV2RDVIfxcKUCK9P9uz+8SG1VuO7PCoyb4eTOBgQEraAxpnuWM1msHj6Vu0eseJE8ODJt/IPwyXJMi02fbODSfeW1vGadIi8/wjp18bKM9O8/+QA9pBbkHUB00sz6sfXL/17dMjR3esaLUm4eKg0PZ1kcPjMNy++MSJBVbyex3P7No9utrlu+fwVFMI9zfmp+ndZRZfxygmjpdIkDFgyXM2nhvuIM+eUL5hZLg3k4pXoTfy50+2KG6bIc0y6O2IqNn8zoFlVN9RUBr+Gy/zrjW97oHmZSdNy0dyFh/PbFi9fb3yy/c1T66g9OsrWb//PPNPD4g/3nv+D7ee+1/v832LIUe8siSbagZlr929/0oxta1bMvrdrnq6ScQlKo2W0sWH7/7LniaWWX7wgtZ7mH3DzbvbKpkkUQ2iU9x6Md+XVXzT8BcfvKBB0dDK7Y+uvGhHvUA1u+9fWZ8b8hcKmCUL8lP1chqYpbJyflbLyxmNL7rKtNSQyivvZF4+orx8SP7R/tQP9yV9OBz3wS7RtkW/5NZcoFn6J4Jk9ew7sbKYOj7ALF0vnj17ct/eA8N02taj9/UJ0vNIyJvajia6qwjPnXf4xJCF+hr2nwUTyI1tlgKHkWfx58a8OqEC4CKJyLb06OGFejy+eM3pHd3s36bMTGK2HVEN0t+FApSoq0ias+XM6MV15d6xtkLkASltlns2LJq/YNHgwNzGKjtBDfkQyQvmbnj9wPHDb+/ZumH9tqPvr/OaZUAjTDG3Ltmy7+iZC0e2r26xKVGEWKBqgDbrI4bhCYS1Y8O7Z1YUJ4QCDcPzFx3zdhZjuKp9x+gatxgLoZoE72/MT9NOD8GxhNT6bWfPHX194+aXN25+eev+46OHeymh8b2RuiI6/zELI3Q7kmT3bD853KX3jTed6U1oVvfWnCXHsxcebWrLpYZU/vfX2X/+UvOnR8o/3pf94U7yH27G/ddn2Ps7f8FqMz7tQ/3a5IfXveXO7fV2alvzwoXvdjeIMZGyYtWh09fuXr/y/omD+0au/zDMNkvv23GRxLDyyv3tc1hnIc3y4jzfogEYbn/p0/ubitBZxCXbbn26yYon1O56fHEp6sELJUFveCiUZvAx08AskzS2jEa0xlBdTQZllpcPK8hQZcqHe5/7YI/kg13YB2/9osyGcespVLNcjH6Toc+tcejAkUVGzg2X9R1Jvjw2ZPF+xrD4yhfP7WlTcsxSIDevWY7zpMyrEyoAugQUVXp30Fa27tSOJl+Qlfne2G9HVIO+rzShqkGXHGeZv39k8/ptx/YOGcjeRqGDWfXIRPEUIQ3sDachYNbFR8+83qRG46swPKNjJ79ZUsdjkjR9/YYjJ9cUxImBdrBbkCy/ttWd4YsO4iKJc9WZ4T5DKND4zTKEaqLNj32roT9NOUMHj6/Mo0sVl5KUkIDhypY3R3csqS0tqyRTVc+rpw8ssKIfD743UrVP5z9mm+G9HWHJziWHRl6py6SHgIdCg26o3haIisRzE56a98DU3PLshWiNoXm9Osos//xY/acH6X+8l/qH2wn/dUP8+0//6ffXftZe8U+sy0SX4+vXJj+YfGZZtPXmFyPz9Oh3NYZrF10Mzyzvbiz0faMltL395fsL1KS/ipwbrt95uaRp+POL83ydftxCMvfADB4mjadzexqYJYrDS9UJGZaairTLR1SXDxEf7peu7E1YMVeyvOdXbRV4ZQFu0uG89ReKWao9e8+90UlQRiI29O4beaXNkIBupkTx0t1v9OaJOTdW8j773rub2zLj0KgUy/zhkR1dKp7D+HPDRZJwToqnWZp6K7PRQByhAlAQsvsPHjlw6PjWplSOIvNSisHO8GvQ95WGCVUNHq/ve/v41mYCV9VvPb2r10jWFz951hck9nQiFTJL29J3Tm5wpaD1F1NtL+y5wGOWmLp1896XKuRxaI3GgmUHL2ytThYLVo2v7qgG9pTSTihdO3L6lQ6bPFGCSdLUjp5XT55a6kwIBRq/WYZQTbT5cW413jW80EDkfWe2eUwJaJxlbs/OCzs9Okzl2XHhjfo05BNUEjtXHzu2wioWNssQCsO6HWEiVfWmU4fXlknFcSIy4aKnogk9l65Pyi7u60z/85ez/vRI9Yf78v0bEt9+KW7f+l8t78a6q39ZOJsnOBKSWZZsu33/YH0a+uTKXJvf/yYks8RworB/dbsFzS0j5fVf7hwdyo4XY7i86OUPH51fovF9fZjXfXLj2mf3jw/IfHvoFsK7AasO8WJ5qnZOD7OkquSfXUnUZJ0P9yV8sEeydy1+bNM/lufzOyX1llDMEldWLd95YuTi9iayu0GiqV6269TJ4+8ePXFyeNtSd0acz+T8fYKUoAy0rt9/4sThkxdODK8pV6NuHZa4oMGOfLmhsoVxUlH+wqMXd3jIgfbkdza3AN6rVvfsHr34UjXPNEPqgMn6P5waZNgJL0yRrmfHyK6WTPK7UN35xshwVzaqMt6DWRWEPZ1IhcxSlFGx5tDIuZEDh44ObxxcuoPPLHGiaMEb+46dOnz09JmRA6tqs6klt4B2kM9Uiq3n5f3nzl84c/z0pfMjb69ttSSS39BjQuM3yxCqiWmWzFsNs/1LNHNWDJ8+eeLYu+fOUYtgaOa+febVRnqlIfKGZl987PTywnjmG3GRhM4fC6EwWODtCDMtPDT6/sVLH9Dp5Ro0ZndMGqg80/8D29v8PDlZR/qHO4n/dUNy+wj25MyzHZU8Q7noFjV2zFKkbdv56aOvHn3yyY0PD7207UJoZilyb77x7egyMwKLwqIXXhzad+3e/ev3v73/4e5WPWMgtX7Ve09+faDDuxAEXTDYAAJCBMY2S+7THYWWqHxeKk9NS9/25q7LV68HOYb6k1CBguyfnfMcNVL+g92/+mDnL9sqsLU9PxeKVgbJh/snDJdIEvyrV6LbXKoy1bcsIs/xPt0RJRCELIXu0+EeSe3hzW28JyVv9HHehRuDFgDL6H5rZEOJbxkRoVLFfn9UapAXptC1jHkwJgak3gAVamC4JE6aQaT6v1R4wWIicqk83zRn+higTaNgbaCVVtPUGUpySV1fRJA6ZkxorKxCryb6jdxbDfUntF+aIWeugBtYNjqHIBtjtplx3Y7GpDHdP7Au+3N/vIsm6/zXddHvP/nF8q5/OrL+Z0LRyiDYWX9CDUyuzfStdsn6q9BLTBJP/TKk5VWcpMpUSlnrCmHapRceHKxL9AezhTKE/UCAIjC2WS5fuZb3KY5Bdi5fuXYizBIXSSqdcW8u/dXIln+88NrPti9+psLO330w0bXL+gU/0afj5i9UAAwnrLWdQ9uOveUxsO4O3EwmZc8UqUHutQNSLpOJ2wO0J47t1Ml5Qm9H07cJdddKLu/B/9fos799//+4suPvO6t4xlbGuBJps2SdF8Mzij2LN568e2EFGhXG+iu8BAJCBMY2y+el8po5DfTDG8fcqJnTMKZWPi+VCxVoWuzHRPmdL88rINdan5QCCxUAk1haVq/ub3EqxHAX8IfiQqkjQBoKpWgdA7SjRXIq5zOhtyNoQlGsekzsXnzgxQruCupxhUM7dqwbrFRzOiiieHbIauYRCMksQzHF8R4z81DCFQEBIAAEgAAQAAJA4CknAGY5vsjWU95c4PKBABAAAkAACAABIBCEAJglmCUQAAJAAAgAASAABIBAdAiAWUaHYxB5hz8BASAABIAAEAACQOApIQBmCWYJBIAAEAACQAAIAAEgEB0CYJbR4fiU/BCBywQCQAAIAAEgAASAQBACYJZglkAACAABIAAEgAAQAALRIQBmGR2OQeQd/gQEgAAQAAJAAAgAgaeEAJglmCUQAAJAAAgAASAABIBAdAiAWUaH41PyQwQuEwgAASAABGgCydY1yr7fqvp/BylCAsq+3yZb19BgYWNaEwCzBLMEAkAACAABIBAOARVoZRStuu+301qnoPA0ATDLcO4mND7YAAJAAAgAgaeWAJhlhKHKgLeDWYpmiJBMpllmzTJAAgJAAAgAASAwTQmo8/tUXd8E6FEUY3hPVVZd36jz+6ZpM4BiswhMplnOjJ+5hFI9My4ErgIIAAEgAASAABAAAhESALOMNPgMZhlhE4S3AwEgAASAABAAAjOGAJglmGWkBGbMhwEuBAgAASAABIAAEIiQAJhlpF4FMcsImyC8HQgAASAABIAAEJgxBATNMtdsi0p6XirnTTOGIJjljKlKuBAgAASAABAAAkAgQgKCZsmrg1HcGWG5p87bwSynTl3gIgmGxxF59VVuYxIunlIFC7Ewk1X+yTpviFjgMCAABIAAEJguBMAso9wbjuFSTXFbi2e+p29Bd4dbPj39JvTmi2lrupsKUxmXmeHq9/QtQJffW6cTj613GC41NwyV6uNCPGnw/DE8Qe3ytDY4pL4ijTf/EIsxQYdxyz9BJ2JlO2nn5bQfVsFYLzFxjrtnqLvJkeyrX/oATJzlbJtXYZTSe2ADCAABIAAEYk9gJpglJkpM1TqsznJTVlrsCbJilliao35uW55SnpwsTU5OFHG+/2Jfwgk9I9csRQmp6NpVxfUTY5YTnf+E4oLMWQS47Yd1AOslpiptbe6o62nUxwf8aMFwidTW3tlcKBUF7Ge9HV4CASAABIDARBOY9maJ4cny3BJTjobILp4SZkkUN/VUZwYKpdzp6Si1Gyq62jz9TXVlWSneLz8sTqF3tzR2DbR3dLjzs+LJd2FKV3NDRUFtX2uDQ6WraPb0VuWpghuqYP4SeXZxU1PXvI6urvICXQKVPxkjLLOZi5p6Ozw9Ne7cZF9kkbc8uEjCm39cTgMVm6T/766zUadAvdKpBXUcs8QSsszlbc0esjyF+iRSAqiYYlmeqaiRLI/LSJcnSOvnzV9dOugNlzJiWuPN33s8Lx++8qOLjVOZKrpaPf2N1QW5JT2txRqq5Bgff/SnlBxnnaetZ6gL8Ten+vgLlD9BXzNEQ/b0LaizycPLX4gn/3kF2mEwPnztObz2I1TUVFtHa5HJVD9QrAkIcmNJlkpPjzMzXuiNsB8IAAEgAARiQ2AGmGWKVJEmxsVJmkk2S0xd1toz2Nkzv7t3fifaGOxsK6F6w+VOT2d7Y55WJZXprLX9baV6ES7GcInc0d3Z6NYQRJraXt7V59IlIk1Rupo9jblKdX7TQH1hTpqhprW7QhWoqqzGIZS/rKCrtbYoUy6XZlhcbQNlOSnkSETU+9xa785WENIMW1nHYLmR2s9fHsoMuOXH46WpUnmqqb67tTRTKkfbKUm4r5xc88PwuAx3X2u1I1NJSJVmV9u8MkMSf3nIcrKukfWSmz8ukogTpMnJ0hRzI7O3lDKhgOsNmj/P8V4+QuUXpxV0dbVUaBUKmc5V2dFPmSWGSwT4SzTl81rKrXJpWrLcUNgyWGVOpa5OoPxicSK6ruRkaVJmcV1Pb1EW2U7Gnz+LIf2S/7wC7VCYTzTbD1025gaGJxrmDLp08bICT5Mzg/4Thidmlfa2V5qo32b0ftgAAkAACACB2BOY9mZJI5t8s5SkpEjlqdrylp46g9e0kqlYo9zp6ao0eeOO2pquliIpMku5tXnQpfMO9JQ7PO0undcs21wyXKwo6i03JGAJ1qreWm3QPj7h/AcK1d74aEpee1d5Do7Oi8yyyoRsEhdJCGdPhzubNDz+8lBmyS0/9Xah3kxe88PFcSLfhSiLeluL0OOLuOVpdyMOwRN//uS7RPparlkyrzd4/tzyUHxQefjLn5pbN1RhpGwvTlMx32eWcmszL/+knNqhaovXJnFxokQcEH5jlZ/mgIkJS/28xmKtxBt7DjN/OkPWBuu86BcOXzsU4iPUnsNrP6yyUS8xjEEnRgAAIABJREFUsd7lac5JFOPqivaGAnqSlkjpauppy5V623a5IYH37bATCAABIAAEYkAAzHIMgxmzDtjjLIV6w0lrRCKVmm226BKR4WU6OvudmV7zS85r665C9sn7ja7xdZjylgf1VvPnP9RFRU/R/0PdVWYyVhowY0aa39ldkUMaHn95vL2ZnPypkozLLMVEfmlzbwdVpLlDXpMOnMFDl4f3Sumd4zVLeobQmPlT5sR7vED5FbbW+SVabz0qCr294WT98vDHRZLk3Mb2uX2N9Y1ut9uSrYzzBXqpq2MZnpczHicr6OhoKpb7WkLY+dMMWRus8wq1QyE+Qu05vPbDKpsXgtLd0lyUiouxOFNZT312HGKO4TJzw/zGwky6bYNZ8tKDnUAACACB2BAAs4y1WdL1KvRNLPSNTr+Ru8E0S/qvZP59xXqyn5qKoSYnYr6YJdechMrDMgM6f2ojdLPERFnOjsE5ToNMhoqkdfdOL7MULr8yv03ILHn4kzIUF5+mzsqxWZw1td3zKoy++CVfzJXiLFa6Gz1tJpk/uilUv2Pmz6pB+mVszJI+HbUh1H5Yh1EvU/Lau+cOdngGOjzzunoHitTow4sl5lX1tuYmU5aJfjWBWfLSg51AAAgAgdgQALOcRLPk732OnlnKrc3zXVrvBYoS0lKSUC8htzeT6h0O3ptJx0RZ7VLIDLCUgtrAGTyUARiTKAMQZ7j7mWbJ7K329z5TppWQGi/xRgTps3Pzp//ENiSB3n//8YH5C/IhDYav/GnmxqEysgcWwyXq0nmM3nBe/okpKq00wXtFafbuzlI9XRhcJGGVH1VZvLawrb8iNw1jRDfJ+gonf+a5mNus8wq1Q0E+AqM7wvtlwiwYtY3hSfrq+ZVWRXKqLDlVpnXPbXKofGYZMMMJzJJLD/YAASAABGJGYNqbJQrCkf7hH2fJ+PaNAcfx9obTRaJm8HQ0urPoGTxackYL3/i20HvDmfnLCro6m8q0CrlUaS5pHawyodgYZQatdfwzeLjlGcMMlK7mniaLkkAzeJLQWEMqYRJjWU9viYEgp56kSsRiDM9ydg7WOPVpUkKhd5W3BZhlawO7PN58EoxlnqGuZie9PqVw/nHx5DQXNIOn2aUgt+PQeckZSyHnL8xHqPwSZfHcjjqHLEEikdnKOmizRDN4+PgnGWoGm0pNMmlaskyXXzevsYA0JFyo/ImZ7rkddQVy8orQPJ4ENAOamiEUev501bA2MKHzCrRDYT5oBk+02g+rkOh6xdklni6rzGvkYn1tV70djSoRJybLCKk3ae1NELOM9NcyFz7sAQJAAAiETmAGmKUsK788v7CCTsZM79yU0ClEcmTYZom+LJmrtNjU/lWHODMnwjBLlL+E0LuaG6lVh5z6ZMYqP6U2czFadWhujdtEr/LDW54xzBKXakraWntQ0Ki7Mtc/NxyPS8utqesa7O4d6u7ttEiREMRnFJa39HX09NVV2AxFvhlLpPmV5fOUh0SUXdg20FqTR0/XoCoL4+SP4RkFHQGxq+7eHrvSa5ah50+ZEy8f3vKjQiYbilrmdfcOdbZX2cuZqw7x8EdRyTRzUV1PO1p1qLeu0kGQ8Uvh8sutTQHXRcePeetXKH+hRi543qBmycsniu2HW1oUQ/VUZPhmgKGBtj11OnKoJX0wVXcQs6SBwAYQAAJAIPYEpr1Zxh4Z64wss2T9dQq+9JpTyM+8mYKXMKFFCo8PGflDoVlVcR9zQZwJLeqkZB4en0kpKpwUCAABIAAEYk8AzDLSniMwy9i32gk9Yxjm5O9QVppd7f3UuqQTWshJzDwMPpNYWjg1EAACQAAIxJgAmOVMMEt1YupHrlp1IhpGOeY2hkuLG4fWzQn1+FDynKBjYvxhoE4XhjlhuNrROYR6w7s8Fc7sxNiO9I0xpTD4RKuEY7ZtVjuM1nkhHyAABIAAEAidAJjltDdLtzzzI1ftzPs/9EYMRz4NBMbbwp8GJnCNQAAIAIEpSADMctqbZejRSlZEZ7wRoBgfPwU/LVCkSSQw3nY+iUWFUwMBIAAEnmYCYJbT3iyf5uYL1w4EgAAQAAJAAAhMKQIhmWVl9ZzR967cuvOQSlc/vjm0cOnzUnkkaUpRiKQw024GTyQXC+8FAkAACAABIAAEgEAQAiGZ5eilyydPnVu0ZAWVduzae/P2gxzTbDBLXCQBswzSvOBPQAAIAAEgAASAwFNFICSzvHXn4aIlK2iPdJVW3rrz0FVaSe8JY2PGUAaznDFVCRcCBIAAEAACQAAIREgAzBLGWUZKIMImCG8HAkAACAABIAAEZgwBMMtIvQpiljPmwwAXAgSAABAAAkAACERIICSzvPrxjR279rpKK6m0eOmqW3ce5tsLw+gEp98SYbmnztvBLKdOXUzBkmB4HJFXX+U2sp57PgWLCkUCAkAACAABIBA5gZDMcmjhEnpiOLWxZ+8BqSyd1sQwNiIv+hTJgWWWGC7VFLe1eOZ7+hZ0d7jlM/pxLLhIgmlrupsKUxmXmeHq9/QtQJffW6cTi8espgl6pouisKfdpaPPPln1guEJapentcEhZSCiSzVxG9x6mbhzQc5AAAgAASAABGgCIZnl81K50WShY5b59sIItfJ5qZwuQRQ2ElVZpiJLgdtizVOmJkQhQ9E4usjZZpnmqJ/blqeUJydLk5MTRbH1iRhfO69ZihJS0bWriuunlFk+9fUS+7YBZwQCQAAIAIGnkECkZimVpefbC2npNJosIcYvo8Uaw5OVFrc+QyoWxcXJzSa7OUU0dpwsWmfnrjqEEcVNPdWZgUIpd3o6Su2Giq42T39TXVlWireEWJxC725p7Bpo7+hw52fFk+/ClK7mhoqC2r7WBodKV9Hs6a3KUwU3VMH8JfLs4qamrnkdXV3lBboEKn9cam4YKrOZi5p6Ozw9Ne7cZF9kkbc8uEjCm39cTgMVm6T/766zUadAxplaUMcxSywhy1ze1uwhy1OoTyJriopZluWZihrJ8riMdHl4q8l7PG/5E7Js1d1tnv6GKruxxBMQs+SrFyxOZaroavX0N1YX5Jb0tBZrqDNiQbkVN/Uhbi5j8lgtTV066A3fNjmSfU1CqH6DXRdfOwmvXviRiuWawsaGroGOru7KImMK3R6C1JfNzOJA1nhrbrLv06euaO+qUFFVzJcPKklKjrPO09Yz1IXaoTnVd17eQsJOIAAEgAAQmBYEQjJLod5wqSx9z94DrI7yoYVLQpHLaNHBRGlEtsbnKLIse6Ey0ffdNp7QY9jloWOWmLqstWews2d+d+/8TrQx2NlWQvWGy52ezvbGPK1KKtNZa/vbSvUiXIzhErmju7PRrSGINLW9vKvPpUtETqZ0NXsac5Xq/KaB+sKcNENNa3eFyuclvOUUyl9W0NVaW5Qpl0szLK62gbKcFJQ/aZat9e5sBSHNsJV1DJYbqf385aEMhlt+PF6aKpWnmuq7W0szpXK0nZKE+8rJNUsMj8tw97VWOzKVhFRpdrXNKzMk8ZeHLCfvlfIf7y1/nKp4bkddSaacSNMUlbf3U2YpVC8YLk4r6OpqqdAqFDKdq7KjnzJLDJcE56ZXKqRqZ3X3YLkhWaiQ1H5xgjQ5WZpibuxmmSVf/camXrgFRhzsnZ3NFTpUL7mFzYN1NgXJeYz6YnHAcCKvZX65kapTsaJobru3nQvlI9GUz2spt8qlaclyQ2HLYJU5lVs82AMEgAAQAALTi0BIZik0gyffXnjrzsPFS1fRMcsdu/Ze/fhGLM2SiRuL1+Y48qSxjXz4zVKSkiKVp2rLW3rqDF7TSqZijXKnp6vS5I07amu6WoqkyCzl1uZBl87b8y53eGNsyCzbXDJcrCjqLTckYAnWqt5abdDwmHD+A4Vqr2en5LV3lefg6LwoZlllQjaJYq7Ong53NmkS/OWhzJJbfurtQuP5uGaJjhfHiXwXoizqbS1S06bILE+72z8+klm/3jMGK/+QOzuOzFOS6R7wmqVAvWB4am7dUIWRtHk8TlMx32eWcmuzMDezlMxfnOnqay3O4haPu0ekr2WbJV/9xqZeuMXD8FRT/VBZDuKAiyTxamdxXpaY+oUQpL74OMgdns4Koxi1MVV+26BLF+89HX8+STm1Q9UWn02KEyViVHeQgAAQAAJAYFoTCMkshVZK5y6ZvmjJilt3Hk6KWWKiFCLXZVRL6bBZbCqGNkvqdIK94b7ZJFhqttmiS0TfvpmOzn5nptf8kvPauquQffKapSaoLqPeav78h7qo6Cn6f6i7ykzGSpFZluq93+LS/M7uihzSlvjL4+115eTvvV7ODB7vfr7ecDGRX9rc20EVae6Q1/xIU+SWR6j6KAPjHo/hKnvbYFGWlyd7Bg+nNxzDFbbW+SVa//E+s8x0dI7NjclcqKjU/lDMUiP2Gj/fdUWzXrhFxXBlfpufA/OAUOqLyQFTuls81ZliMSZ11PXU6eK8bHnzwUWS5NzG9rl9jfWNbrfbkq2M8wW8mWWAbSAABIAAEJheBGaIWWJ4Upq+2GzIjP2X03jNkm4fE2SWgfn3FevJfmop+X9yIuaLWYZtMHT+1EboMUtMlOXsGJzjNMhkqDBad+9km2WAUSkKveMsyXoZmxvTqFhMWC9jY5askwrVC+sw8hdFAAf6gBDri8kBE2UVdvU5MyRJltauaot33LBAvZOnjotPU2fl2CzOmtrueRVGX/wSIpdAAAgAASAwbQnMBLPE8PgUbaHZmJXg62mlvx1jsBGBWfL3PkcYs6Qvmextn+/SersXRQlpKUlo4jy315XqfRbqnWfFLOn8qQ0hg8FSCmoDZ/BgiXlVva3GJBTHwnBxhts3DlKgd5s+kSghNV7ijX6NUf4mnt5wbzl5YpZp5sahMgPFRKIuneeLWcqtzYLcaCNnGhVdVN6NcZkld1RAdOuFW0J2b7imuDRfi3q0g9YXLwcMj8t09TU6tPrq+VUmryYK55OYotJKE7w1m2bv7izVc4sHe4AAEAACQGB6EQjJLEcvXT556tyiJSuotGPX3pu3H+SYZueYZt+8/WDHrr30n06eOjd66XIse8MxPC5J7bCYshOD9hdPXK1EYJZoxkxHozuLnsGjJWc/8I2zDL03nL5SaiZKZ1OZViGXKs0lrYPUlz1llq11/DN4uOUZwyyVruaeJouSQDN4krxj9ZD/SYxlPb0lBoJcfSlVgnp7s5ydgzVOfZqUUOhd5W0BZtnawC4PdSFYgrHMM9TV7KTXgxQuf5yqpJecwSNP0xSVtXvHWXrz4TFLiRLN+HHIEiQSma2sgzZLNINHiBuvUdHMmRsYHhePVp4iZ/A0uxTkdpxYcLSD8HXxt5Pw6oVZQi8Z5gwehamoZbDORpAGH6y+hDiIdNUdTc1VnjZ6krhwvScZagabSk0yaVqyTJdfN6+xQMUtHuwBAkAACACB6UUgJLOsrJ4z+t4Veg741Y9vDi1cSunj0MKlVz++Sf9p9L0rldVzYmuWhMZRbnOW5Tm8SSvzx7diUBlhmyX68mauJmNT+1cd4szwCMMsSb0j9K7mRmrVIaeeWiWHMphStGpMb4dnbo3bRK/yw1ueMQwGl2pK2lp7htDS6JW59CBXDI9Ly62p6xrs7h3q7u20SFGlxGcUlrf0dfT01VXYDEW+GUtkzLIsn6c8JKLswraB1po8+hk2wcqfqMmv9qClnaodua7AldI5ZokyTzYUtczr7h3qbK+ylzNXHRLm5hufOmbMEsMzCjoQFjp19/bYlWOY5UTXC+8nAhPLdUVNjZxVh4LUl5BZYpKc0p6h7mZnCmPQJG8+uEgiSjMX1fW0o1WHeusqHYQvfslbSNgJBIAAEAAC04JASGYZiimO95hpQSeUQrLMMpS3TO4xXjPzGdLkFiaMs0e3/GRkEYVUVcV9Tc6MMMoTrbdE97qiVSrIBwgAASAABIDAuAiAWUa6ygmY5bgaXOQHR9HA/B3WSrOrvZ9aTzTyEoaXQxSvK7wCwLuAABAAAkAACEROAMxyJpilOjH1I1etOhHNmRhzG8OlxY1D6+aEenwoeU7QMbztO4oGhuFqR+cQ6g3v8lQ4sxMZHbi8p57QnVG8rvGWc8w2M0H1K3Te8ZYfjgcCQAAIAIGpQwDMctqbpVue+ZGrdub9P3U+JDO7JFOt5cxs2nB1QAAIAIEZTwDMctqbZejRyhhHnoQiUiHun/GfvSlygVOt/UwRLFAMIAAEgAAQCI8AmOW0N8vwKh7eBQSAABAAAkAACACBqBMAswSzjJRA1BslZAgEgAAQAAJAAAhMUwJglpF61bSbGz5NWyoUGwgAASAABIAAEJj6BMAswSwjJTD1WzmUEAgAASAABIAAEIgNATDLSL0KYpaxaalwFiAABIAAEAACQGDqEwCzBLOMlMDUb+VQQiAABIAAEAACQCA2BMAsI/WqpzxmieFxRF59ldtIP9c7ug13ovOPbmljnxvwiT1zOCMQAAJAAAgEIQBmGWWzxHCppritxTPf07egu8Mtj/ljXRSFPe0uXZAqp/6EaWu6mwpTQy6e0PEYnqB2eVobHNKQsxqzbMwDJjp/5rmY20LXyzyGd3uG8ee9RtgJBIAAEAACQECIwLQ3SwyXq/PL8hxkcpbb8o3JE6M4QgRZMUsszVE/ty1PKU9OliYnJ4piWxhcJImx2Qhhme77p4tZTnfOUH4gAASAABCYYQSmvVnS9YGJUhWmYkOGFI+tzLHNkihu6qnODCyD3OnpKLUbKrraPP1NdWVZKWKq2FicQu9uaewaaO/ocOdnxZPvwpSu5oaKgtq+1gaHSlfR7OmtylMFN1QsIctW3d3m6W+oshtLPHTMEkvIMpe3NXvmdXR1lRfqk0TovHE5DZ6+BczUXWdLoE4tkWcXNzV1kccX6KidQY5Xlw5S+XQ3OWihD1J+jC9/uga5G+PKn3rudpnNXNTU2+HpqXHnJouDccZFEt56CXK93BJ663GG8he6XtgPBIAAEAACQECIwAwxS0yULMspzlHLghuYEIVI9tNmianLWnsGO3vmd/fO70Qbg51tJVRvuNzp6WxvzNOqpDKdtba/rVQvwsUYLpE7ujsb3RqCSFPby7v6XLpEXCRBZuZpzFWq85sG6gtz0gw1rd0VqkBVZRYYw+NUxXM76koy5USapqi8vZ8ySwyPy3D3tVY7MpWEVGl2tc0rMyShN8ZLU6XyVFN9d2tpplSOtlOScLI8soKu1tqiTLlcmmFxtQ2U5aQEOR4XScQJ0uRkaYq5kW2WfOXHcAl//iLBAQnjzF9qbhhqrXdnKwhphq2sY7DciMovxJkyS269CPFhMmduz2D+zMuEbSAABIAAEAACoRCYIWYpUebbHEW6rMxEiTdMFcrFR+UYv1lKUlKk8lRteUtPncFrbMmU6cqdnq5Kk9d6tTVdLUVSZHJya/OgS+f1KrnDG2tEZtnmkuFiRVFvuSEBS7BW9dZqyXAjb4HJfIbc2XGURWW6B+iYJS6OE/neqCzqbS1S0zlwe3vJfAYK1V6AKXntXeU5dACYezydlUhfyzZLvvIHz5/OjbsRcv7ILKtMpA2LJISzp8OdTTLh50yZJbdeqAIEuV5WCWc8f9b1wksgAASAABAAAkEIzBCzxONTk1MVRHah1ZQVJxzeCwIi7D/RZknlgAn1hvtm1WCp2WaLLhGZZaajs9+Z6TW55Ly27ipkn7xmqfF17HLLieEqe9tgUZY3H+Y4SzGRX9rc20EFUOcO+Y1TJOGaE1meoS7qYPT/UHeVmY4Bc4+nSxKK+WnE1PUK5k/nxt0IOX9klqV6ZNi4SCLN7+yuyCHNkp+ztzecUy/U24NcL6uEM54/63rhJRAAAkAACACBIARmilmSMoGJVDpHviy2YcvxmiVdGRNtlpgoy9kxOMdpkMlQl7fW3RuCWfYV68n+cSrmmpyI+TQ9iGmFbH6Zjk7B/Gks3I2Q84/ILFnnDXK97CMFzH7G8GddL7wEAkAACAABIBCEwLQ3S0wiIzSZ3gkouELrsBNxMe0Qj8As+Xtpxx+zlFubeHrDscS8qt5WYxKigeHiDLd3/CXVGrjmRPbqzndpvb3zooS0lKQEuulwj6f/FLL5ya3NgvnTuXE3Qs6f3Rve7karL5HXxTPqgBWzZJ03yPWyj8RnOH/W9cJLIAAEgAAQAAJBCEx/s0SrDpVoiBSRKD5BYbXYchJ9YbYglx3FP0VglmgGT0ejO4uewaNFM2zGb5ZxqpJecgaPPE1TVNbuHWeJ4VnOzsEapz5NSij0rvK2QLNUupp7mixKAs3gSSJnDpEzbDqbyrQKuVRpLmkdrDKl0qBQqdjHx8WjlZXIGTzNLgW5HScW7M2nZvAI5U+fiN7A8PHmj8yytY5/Bg+X8xhmybleumCsDTSDZybyZ10mvAQCQAAIAAEgEAqBaW+WaIZyik5nKbE63GazhUiOD+Wyo3hM2GaJJJK56pBN7V91iDMDJsg4S5RPoia/2oOWNKp25Lr8K6XHZxSWt/R19PTVVdgMRf7ViMhInlRT0tbaM4RWdK/MpWbqYBJC72pupFYdcuqTfbN/eI/H8IyCDvR2OnX39tiVgmaJMhHOn1sj482fWnWo1GYuRqsOza1xm/hXHfJxHsMscR4+3EJSe2Ykf6GLhf1AAAgAASAABIIQmAlmGeTyYvAnllnG4IxwCl4CXrP0zeDhPQZ2AgEgAASAABAAAhNKAMxScDHFELmDWYYIaqIPA7OcaMKQPxAAAkAACACBMQmAWYJZRkpgzEYWmwPALGPDGc4CBIAAEAACQCAIATDLSL0KYpZBmhf8CQgAASAABIAAEHiqCIBZgllGSuCp+sDAxQIBIAAEgAAQAAJBCIBZRupVELMM0rzgT0AACAABIAAEgMBTRQDMEswyUgJP1QcGLhYIAAEgAASAABAIQgDMMlKvgphlkOYFfwICQAAIAAEgAASeKgIhmWWOafbA4MIc0+znpXIqSWXpzS0dzS0dUlk6vZN7GP0n7saMoQxmOWOqEi4ECAABIAAEgAAQiJBASGZ59vz7t+48PHv+fVoQm1s6bt15eOvOw+aWDnon9zD6T9yNCMs9dd4OZjl16gJKAgSAABAAAkAACEwuATBL6A2PlMDktmA4OxAAAkAACAABIDB1CIRkltxubugNp6sQYpY0CtgAAkAACAABIAAEnnICIZklty878j0zhjuY5YypSrgQIAAEgAAQAAJAIEICM8csRdJcc74pRSyOkMh43w5mOV5icDwQAAJAAAgAASAwUwnMELPERFKV1aUjEmJfT2CWsWcOZwQCQAAIAAEgAASmJoEZYpZxKrvVpInHYx2wxEUSMMup2bKhVEAACAABIAAEgEDsCcwEs8TiMrLthcqkyZnjDGYZ+1YLZwQCQAAIAAEgAASmJoFpb5YYHp+SXWLSynBcjCXrTXk5ibGNXIJZTs2WDaUCAkAACAABIAAEYk9g+ptlfJbBkZcmQf3gYJaxb0BwRiAABIAAEAACQAAI0ASmv1km6ozOMmu+25LvtthLbRCzFE3OqAC6ScEGEAACQAAIAAEg8NQSmP5mKYoTxyV6k9RoBrMEswQCQAAIAAEgAASAwCQRmPZmyfxNAL3hTBqwDQSAABAAAkAACACBGBOYUWYZY3bU6WAGz6Rgh5MCASAABIAAEAACU5AAmGWkoxLBLKdgs4YiAQEgAASAABAAApNCAMwSzDJSApPScOGkQAAIAAEgAASAwBQkAGYZqVdBzHIKNmsoEhAAAkAACAABIDApBMAswSwjJTApDRdOCgSAABAAAkAACExBAmCWkXoVxCynYLOGIgEBIAAEgAAQAAKTQgDMEswyUgKT0nDhpEAACAABIAAEgMAUJABmGalXQcxyCjZrKBIQAAJAAAgAASAwKQTALMEsIyUwKQ0XTgoEgAAQAAJAAAhMQQJglpF6FcQsp2CzhiIBASAABIAAEAACk0IAzBLMMlICk9Jw4aRAAAgAASAABIDAFCQAZhmpV0HMcgo2aygSEAACQAAIAAEgMCkEwCzBLCMlMCkNF04KBIAAEAACQAAITEECYJaRehUzZomJkhXWOZXVThkunoKVDUUCAkAACAABIAAEgMCEEgCzjJpZYkl6R9NAY01HS++cTDBLUaRgJ7TdQ+ZAAAgAASAABIDARBAAs4xUgOiYJUZYrZo0UaJ9DscssTi10Z6TQuomhit0DmuaGAU1RUmaHHu5w+nQqqQiSkYTMrTmIkdJpS03K0HkDXxiYqnKVOwoKTVnyaS6Yj0Rh4skGJ5M5BTai8ttZl0SmdtEtA/IEwgAASAABIAAEAACoRMAs4yaWVLQMV6zTLTP6alWes3S4O5vyRaLMbGmsGtepd2iMThLW/scqnhMoinsGqotcWTrbY6GwUa7ijTIVH3NYFNlUXa2xVLe2tixuNKYgOFJWWX9TZXF2dkmc6mnbU5eIkRJIUoKBIAAEAACQAAITDYBMMvJM8sEW01Pky4BFUAUnyQRiTE8Lj4lVUw6okhT293oTMTFmNzd2jNHRcYvMZGuuGcZMsu04qbuKiUZqsREmkJPn00GIzsjrcr/n7038Wlj2/N9W62nbj29q/P0+qqfbndrleVBxlgYG2EbY9kYY5DNZMwUplyGJCQhkJBxBxLYAQIEO5AAyQkZdibCZic53hkYwkz2CZH6vnvu7f6XnqrKLgyucjA2FZt8JQsVy8tr/dZnLdsffquq2PsfZKgJAiAAAiAAAiDASwBmGauOcLvhLN8ocpZUqr741KnOq81HGwqydVKKNsvU7JKiqtam05dOdnR3nq5Mo6SS3NbOowXsXjmh5NajN+rzlBLbifPnLx8/2XmMeZy6cONITqwD4V0fKAQBEAABEAABEACBvROAWcYqZHsyS2VJ08XmLDbvKM2vu0LvhgcmSa7RmosrT1+rz0slmUdOn29zZetTZDKSceQ6b10iAAAgAElEQVQ0Y5Yku/HsmWpNYCddldfC5Cyzm841l6SkqBTBh4xr8Hunwfe++FATBEAABEAABEDgkBGAWYpillRO5cXuaptGIk3NKGo7+xNznqW6oKKmKJVJVWZWXDlTaZZYj3WeKFPRJYrMyssXWLOUWSvOXanOzVTIUzU5DScu9dG74Qr7kbMdTp2CPhEzJaekrlKvCKoqzBIEQAAEQAAEQAAEvhMBmKU4ZinTOE62Xb5xrvNinbO8hr2Ch1JbqjpPnTl//My19tONFrWUSI3OY1fbOzpbTnbWVJ84xZglJZHJdIXlLZ2nOi42VuY7anvr85SURKbMqjracfXU6YunOi7UOo2BS8u/0zI6ZH9vYTggAAIgAAIgAAL7IwCzjLNZRpgGIlVIwvasiVSlVCqp4JXdhJLLVBr5zmoylTp4nqUyt6m32hKIma6sVMEpIzDHUyAAAiAAAiAAAmISgFmKZ5b7m1ciyXSdvNpU6bbaCl2V7W1nm7Kw8Y3ULAiAAAiAAAiAQEISgFkmulnSZ1IqMoy57qLy2uLCAl0KfZt0PEAABEAABEAABEAgAQnALGO1tF3XhifgHCMkEAABEAABEAABEBCHAMwSZhkrAXFWKnoBARAAARAAARBIfAIwy1i9CjnLxF/liBAEQAAEQAAEQEAcAjBLmGWsBMRZqegFBEAABEAABEAg8QnALGP1KuQsE3+VI0IQAAEQAAEQAAFxCMAsYZaxEhBnpaIXEAABEAABEACBxCcAs4zVq5CzTPxVjghBAARAAARAAATEIQCzhFnGSkCclYpeQAAEQAAEQAAEEp8AzDJWr0LOMvFXOSIEARAAARAAARAQhwDM8sDN8sjJ0/955+x/3jn7H2NHTsik4swr2wtR5R+/9fL1/MbC/Lupm8fNclF75x0pqZ1Y+7XLHPw/6bx1DqJw7/0SynTu5dadppSowth7+1E1i8ogAAIgAAIgkFwEkt4sCaXKLKgtctcUso/C3BRxreWbOUuFSm1KV5usxQvimiWhZM7ej5+mh2qdNoureWBmc/pS3ndfnd/LwPbeL8zyuy8SBAACIAACIJC8BA6HWVYaU79bNi7ULIk0/dixuk9Dbf8+fOzXY1ardDsqonPOhZklURm6Oho3Rs78+1DLdLPZKAnUl2gtY1eOf/V1/M17wn86NzeY6RQq511/hDJ3Tm/dbVKxz6pdrWdrcylGu4nS1nTz+Zv5jcV5/8TVai3TL2tU4xdPjswsLSzOPxluNgbj561PSWQF1+cWvBeO3/XPLa++fXqr2hhIABONu/POrH9xY2HOf7+3Ts+0n3r80frm19DH2tNzWjaelLxjt6Zfz6/Pv3szdsmjCf5tINQ+73jpf7DO106kfuU5dTd+mZ1bX5h/96CvOZvJ6UbLIVL7fBzY4Im6dvj3jY9POk3BwQoNCuUgAAIgAAIgkEQEYJZx2w0nlNRR3/y3Xs9JszbXnDPec2auVssthXCzJJS85vSpPzqdtWZtriX3YX/bs2J6B5ZQsuaOM5sd9qKMNLPRcre3/XWFOkI518WuA0LlX33715Ej23bLViCUPK/L/+Fxd3mezVrS5vOvTx7LZNqnd4HfPxtoceXllF99tLA50axjyvnrs2a59PuTS7Uua27Vpcdrc756OSUllLJ8ZOXd/cvlTru16JTPvzHOtEOpjWaLzdw2tfZm0GOx0ceGdAldX55/7fdP0wM1+bm2svP35lZ8delsqAXX58Lb3zVM7lfBdgT7ldmuvF2a9TW67FbXsZuzm9MX6Zwua5ZRcBBsX4CDhF5yRNN0Z2FraeYnK8ySAcLNIw5AAARAAASSmsChMMt8div8iNNVqE9TijwfXM6SUKlXrna8KAkEoLG7/nzEqAx6Q7hZUhKZRCaXBfOUnuMn/zhmYMwmpfNyx9tK2iYpiUwqU6bKGBeh+MuFxsuZpaxhYmn1M/348ykVbXI5F2bWBzwB4zSdn10ea6ToctosH7UbmRhknuGVD/0e5pi/PmuWq5PH5cwYpTXjy6+vs54kkadIg/nO4v5P7/rcXJDhu9JMPH/46hRsHce1D/PD1exxwfU53va51kIPIrRDjyLs/E5CGTueb00eS2MbUZf/NNLpUeyLA2/79PwKc6A7lavkQUqhA8ExCIAACIAACCQvgaQ3Sw49oeSKDJezJD816GrcUwd6EGKWupt97X8u2J0jZHvnNcsUk+Npz8l/97X/7Xb7/xzt+HrSxFbOLqv7Onpq+Wrdk9Ol1wp16qCeCpXzDpAzSyqVThYWXp1dm2pLpc2ppPfD1grrmqufl9a+rN1rZXKNO65coXeibx1hzJK/fmA3nKlDVzPVdnZUZTChKvM778x+WlhhdHZ9a364iouQz/BKej+s9pcFuGV1/rp274SMaYeLYVf7XGuhB8y4+NvhNb9tPjtzZqxhc1fwcDEIcWNjCB8XJZFF4BAaOY5BAARAAARA4NAQODxmyTiQLru0TK/kd7sDmrN9myWRGG4Pnvm92ezUp+dkph8/fZIzS0LJtHpDY4njWlPVx1tnpt2pbPBC5bxD22VOGe0v16bamJxlSe+HpeGjzH40uyut13A5SwGj4qm/yyy5GIjU3fd+82lPfV4O3UX9yGJczJJrX+hAFLPk58BvrhE5CI0C5SAAAiAAAiCQ1ASS3iyJRKvPtaoC16B8X7PcsRuuzS/+pS5rezdcW/Bx5xU8JDXv9djR82m0BxNKWnP6NGuWhFJarVl5qoAfFzQc+59nzEwd/nKh9bfrCp786x8XRmqYdnIuzPzhrQnsPsvTzaYM9jxOoZwlf31Bs9R2PNqYPp3BjktWPrK2wyxrxnfddYhvFzuQ4+TyhUJjDC2P0A49ap5+2d1wDduIprr3zuVKbjecz7AFOfC3H5ED3Sl2w3dmi0NnE8cgAAIgAAJJSiD5zZJS651VOQaNVMLshhfnsZYp2nyE5CyljvqWv/V6Ws3puWbb5M/tczUhV/DIrc9un3xQrM1OV5vSU9VSKaEMt4fO+JvMBZnppYWl0/2cWaZ0XGhfbbO5MtKyDaabP51ZPspeYcNfLjTSwF2HXg3VFuTaPJf+PL/iraGvjCGU3NHl//RquM5psxa2jrz9/LAtiykXMkv++oJmKXH3fdx8er3Obsl1He2/71/dYZbOPv/K8/NFdvoKnkz6HEf2ypvF6YEjwSt42DiF2hceL30lEG87dC88/cpsV/6yNOs76sq1uo4Pvf48fcG+Pw787UfmELyCJyd4qoPQuFAOAiAAAiAAAklEIOnNkr5OQmUy51c63dUFTmeGOpCKE20OOLOk9UKWfuJ4/fIwfdeh2eNWa/BuQYyvyB1lVQvD7f97rOM/xlquZdIpPa2t8OXPp/6H79TCWce54ye43XC53jb50wnmrkMn5845S1MC+UuhcqHBElX+iZHpN/PrC+/fjJ4v4+7mQ1LsLUMv6Duoz/nv99QbmOtIhM4vpIPnqx/B/DSl3ZOvlxZXlqfvnjvRP7fDLCljzeDM+5Uv65tf1yaOSRmvYu8W9GZ+ff79m9EL7rSgbEWVs2TipO9eFN4Ow5+vX4Wtof/Zb/P0XYem+nfcdSg8ZxmBg1D7kTjgrkNIWIIACIAACBxGAofBLIW8SpzyULMUp8cfvBdS0POau/wocDBRi4usD+PH0w++1DF8EAABEEhGAjDLuN3PMhmnPxljJgqdkb3waPunUeR/vJSM3BAzCIAACIAACIhAAGYZT7NUpyrbG8zqVPqWljgGh2jXgAhveHQBAiAAAiAAAgdKAGYZN7NkNcKUqW5vMOMnCERL4EDf52gcBEAABEAABMQhALOMm1n+93IjsnTRZulQn1sz4rzh0QsIgAAIgAAIHCgBmGXczPJA5wmNgwAIgAAIgAAIgEDiE4BZwixjJZD4qxwRggAIgAAIgAAIiEMAZhmrV+GuQ+KsVPQCAiAAAiAAAiCQ+ARgljDLWAkk/ipHhCAAAiAAAiAAAuIQgFnG6lXIWYqzUtELCIAACIAACIBA4hOAWcIsYyWQ+KscEYIACIAACIAACIhDAGYZq1f94DlLQikc/3R7/E91GcF/9h154UZbP3JrQs8qLbWdg48ulQX+37pQtQQsJ5SyoPPh1EiLfm88E3AIcQkJHPaHEdz2x03oVeApRAblh4ZA9qnb3qsn89NjdaFQIDDLWGl+L7N0t5z4etIUOpe8x4RSN59o3PS2/+eds/9xs7Qo3r5CKJXnT9Oz/9hu2VvLQvXJPw99/IdO094a4R0pV6gp7Xk6v/Dn6yfzNPsxyzz7rfvVY/erx+5VdZZIdrdAKG1hbpe34jZdoeyYeb8BE4mx9uaMf+mv65tf194NFATbIVRq1dDc+xeXc4IlnuHV9c2vdLWNqQbF7ni4USfdQeRxhXPY3wBJ7cTar137nqb9dXqgr0pSbq6f5+eHq8LJCJWH1/wuJULr8PCtKxbv3scVeR1+c7L2OO97j+ebPcalwneP5yC4KcxHOm/75/4yXpeliAslSiI7JGZJKIUmtyovK40Kfh/HC9A320l0s8x0LYw23rCkm9LVJo1SJjqfbwJkK8TLLElqrXd+dfK4ad8rQSbXapU6raZxgNcsVbX9lV2NaXq6jiJVul+exPrTq/VfLxflGAwmgz49wrzINVl0neLemcNlluKM67t/E+xx/e+9WpJyE/pGFCrfO5DvUvPwrSsW497HFeM63OO87z0ecZbBd4/ngLgRKt198/2np52G/X6j7eJ/SMySSrXnu3JTwjJMu0Z7EL+KaZZEZew/f+yr9/SnzvwLrds5SyJPP32ifnW47X8Mt7w4agrdmCam4rXblbVxWi67AJb/l9/n/m5u7u/mPv5jB7ciCWVs+8eP3v+nse8ff/P//av7f6rlnuKtr/qvo2wj3M+P/2dr+n4DVrVMLb/tzd21EpSFpwv7RitGJyoGeuxuvTSQ+SNSgzv38pDHe7e895LFoQ7plKTU9PGapbpxuLLNEVJzF5M9/krye9+u3inf2U6V93MgPfnqStbOp4jp0nSYWRKlrenm8zfzG4vz/omr1Vpm1IQynXu5NX7x5MjM0sLi/JPhZiM3Xo27886sf3FjYc5/v7dOz9Z39vlf+noeL3988ZO7zuf/tPiw08kaM2/7exxgaDUiz6m78cvs3PrC/LsHfc3Z8u3MK++4hDjwxiM03tTjj1iY3M+1p+e0O6nuCBLcmHUSLTdKIiN864ouT/dcefDu49Lq7L3zbTe3c5ZC5QXX5xa8F47f9c8tr759eqvaGNhQ4p13eu6yGvuffJhb/bL8af6XkZMWbl0JlUui26HiXYcR+PDGSYTfX4LxRxlnVNz28X4Rml96ivk+l0LfVqHHQvPO2360nEM72uNxVNyE4iGU7cKvW6MNgWwf3eatI2wAvO0L8Y8QszjciObUg3X/Bev2hzM9v+ra4d83Pj6JejvxMJgloVSZ+Z6sNHmEuTm4p0QzS0LJK0+0/vtPxXVZ6fmOopcDp9ndcELJnEdbvlwurM1Kt+fYH/a3vShJpddEbtmX2+1/87X/x1j7324zj76SQuFv1n0gkv+bQf+vxqx/Ggs3y9l/vNrw33Is/++5yb//3ftftWzjvPUpojf9q8X0T76P/9Bd+q8W+vjfNJL9xllwfe6TtzZ0LISSFzq8XofHnKLTpbraSnzdWXQ8hJKZLD0+V4Mj1WDQlHW6vZf0Gu6F4WZJ0k/4Kn3jFbfvVd0er/TRD3dTdvRxkrJbH1Y/L63+dW3jyzJ98Hnp7Q1WVRVMejK7/cnaHsySUPK8Lv+Hx93leTZrSZvPvz55LJMZF22W758NtLjycsqvPlrYnGjWMeXK8pGVd/cvlzvt1qJTPv/GOFvu7PN/+uWM0901vf7qRqO9ZeLDgtdNSYXa5xDt8YBQMtuVt0uzvkaX3eo6dnN2c/piHvda3m8mXg5C8bCf1OHjpdRGs8VmbptaezPosdjoY0N6hHUl1A6hwC0yNwE+lLL05uLCs58r8nJzq65N/r7G7oYTgXJKIiu4Prf0+5NLtS5rbtWlx2tzvnq58DoklKJ2bMN/50yBOTvL3jDw2x+PzmQx65y/nFtyez/gXYdC60pwfQq+v+IWZ5Tc+D8fhMfFP78sRt73Ly9hoXkXen8Jx8P/ucfbaeTCqLgJxxPJLPnWswB/gT8nRONGqNxLv325Xb9jQ5xomu4sbC3N/GSN8pvuMJilRFvgLCnPK6zIdxUa0lUkSgSRF983nxXRLNN7ejoeF9J/dhNKVne6LWiW6T09p+/aA39qWI80/a3DKqGkRJ5qzUzPKfBs+mrOZqbnZKbnaFXyA4Aj+2dvuFlO/pOejbP0T29m/1QcinFXffapeO2Glwwsvetzh3ZHKHWla/QaY5OURCaRqBQS+o8QQukbSkbatAFuGdndE45Cbg+dxyylmgyVIVPX6q3oLFcZMlWGTGXaPnbDSUqmyWIz13j9q1MnWOMxZYTOi7zpwd7MMufCzPqAJxC/6fzs8lgjRX8T059cj9qNLH/P8MqHfg8LRCJPkQbzl8X9n1hQdE7F35dHSYv6Fiea1UTT9nDjz3VSKaH42w9lu5djQhk7nm9NHktjK6vLfxrp9CiC6zDCN9MuDkLxRBgvTWDP51lGaAfcIk80Px96/XwZbVCy67BiZD1olvzlrFmuTh5n3wvSmvHl19et9HrmX4eE0p16vPW4g7ZJSiKTKtJUCvpLUag88hAiPLtrHbI1w9eVYJyC7y/++CNEIvRUwfW5aLgJfj4IvV945zfAYc85S4YPz3qgP5P5Ppei5SwEJ0J5VNyE44lklnzzEol/eLSicSOUsf3Z1uSx7fRKIBi5Sh781ggPT6gk6c2SUKmZBVVWfZqEkkk19rzSYp24VzmIaJaZw/3tk46ASXBX8BBK7x3s+F++YGLydsd/dNo4UznQ3XB2Ve0yRXY3fOSf6W8USiLL+7+n/f8lYDa89dnCeJll6c3lXWZJSWRa48XRyuHBoovn7S31mSYlozWEsrZ6RicqmOwjnYMcvVdQypliuFkG4jzI3XC2C/5vsrBPcEKV9H7YWmGznqufl9a+rN1rZXI89CfXnaYUtrXQ3Rllfued2U8LK0yidH0r8E3P8833oE4mFWqfbXbvPwmVf/XtX0eOBNbtrhdGY5ZRj1fom3JXDOyvrFmCW4DGno2cksj41xXluub/PFQZmHfu/DAiUM6aJbeTSEy1nR1VGbRZ8s87JZEZT/4yv77y2/NfxrwDnQ0FqcE/V4TKeef9m4X878cwPkJx8v3lRr+/IsT/zZB2VQh9j3+TW4R1LvR+4Z1fNoYI799dQUaY90jt75nzru728mtU3ALj5YknklnyrWfBz2femEXjxprlvePpvGFEW5j8Zqkw20scqoAryHV5tTkZO9K50RKJtn5imOWpe4VMVpLNTWqU27m3gzzPkmWVUGZZ3P+JS9FxU0kouUqV49RX1Fvbb5R7rxjoNw9jlkPtmUz2kc1BKlTb3L7HeZZswPzfZPxmuTR8lNnnZXOfeg2Xsww3JCJ1973ffNpTn5dDv6R+ZHEPZsnTPkd1jwdxNUueePbxTckbuVA74MaLiysU5CNgkBG+KUO/6bfbp82SZ96Zt7BCY3UfaTnbeX3i5cLG/VYD+yr6gk6+cq7NqA743488hsEfZwSzjFecUXETWucBdOHjEvjcCNQP+1wSYis070LrRzAe4fUg1LVQeVTchOPZk1lyMUTmz1XjDkTjRqissy+2JlvUXNexHCS/Wapy80sc7F+rhFJoabMU9YRLEc0yvfe60G54+1RB4OR0uSrNqt526+TJWQ7G5a5DOVf8KxPHuJQt8/WjytDYDcGz+7MsP4/nOZlyfUOJ75wusFqk8owMRSDPRz+rPHJD9Ct42Hcy/zeZ6eLLnVfwMLskf3hrAnMtTzebMugPBaFPLqLteLQxfTqDTpYQSlY+EjzvTTBnmXNhhqf9aD9ugrvhgU0WTXXvncuVIbvhu8fFtb+LQ7TjZdshNeN7vOsQuHH5FXqF7J2b0Lqici4K7Ibzlu/KWXLLQHje00zFlTnpgZyo/ervS756Zm3zl3MNRnuwax0KrSvBOAXfX3GLU8CQ+N+/QutccFwC8xuoH/a5JISXCK2HyO2HrUMhzkL9RiiPiltgvDzxZJx+sjV1KiPwuXpr7e31IrayQPvR5iwF3kfx5kaoop73G0OVAZHY5vaD7oZLtKaialtWulQil2sdjtIibdAhttEInBsblwoimqW8qvUkdwXPi5AreFxHW/6/62XHstNzLbl/vtH+unz7z46DM0tCKdX/ZgxcwfMPV5z/atT/qz6VSIV2w4Xqs7NA/uXKq7+faP9vVuYKnu34o50jqfvW+0/3a9WB7xvm3a72OH1D9lJTik6rcjQXegct2eyngMnSe7f4RFGaQZ/mPlvq6zYGrjSin5UWXawcPKs30ncXUqYrgxebkwPbDaf56E0Gg4m+gme2r9BgMhiM6uBiJinN46uL3ia7kS43qOT0FTaOLv+nV8N1Tpu1sHXk7eeHbewVDPyfXETi7vu4+fR6nd2S6zraf9+/+q2cJX/70c4IcwXPX5ZmfUdduVbX8aHXn6cv2LlG+MbFzyHa8QbWlbPPv/L8fJGdvoInM3CuJ9d76IHQNy64fYOb0LqilO7AFTw25goe7jxL/nJhs+Rfh4TSHZ/64433hMOcbbRVX3228VuXi3lf85eHzvVejr/xfgxbV4LrU9As4xNn9Nz4Px9YJnSGdef7RWj9B+qHfS4JsSVC60Fg/QjGI/C5J9RvhHIB8+Nfb0LxUBKZ9cLrpde+Bqc9t+r6k6XFAY+KrSzQfiT+4dGKxk3qvPF69UnLzptAc1fwcPdXDo+QtyTpc5b0+b8qU3Z+pct9pMBVqNekHNYreOgPzVTjzQvHv3pPr553XjoZetch7ZmTDSvDbf8+3DLdbDYFNYh+yYHthhMq/8r/8ZG7VRB976G/e3X5XyKYJX99dl0SSl/5pwezf/+Bbuf/qufOd+RdtREKicTS/nTdf+dkVtDJ6LP7VaXthf3MXYcG+/JrrMGniNRYlntlyOO94+m5kuNk79oTjEduNHb0e3yTVaP3qnrqVQFVFTJLQsmP3N5cnTrNnewVIUh6XsLuOkSoouvvtrhb5DC3Rp+/5gz2SyltJyen5z+vbmytbfzlvIUuJyn2lqEXr+eZuwj11BuY86yFDImSyDSl3ZOvlxZXlqfvnjvRPxfZLIXa5/jsfbxEYWvof/bbPH3Xoan+nXcdChtXBA7RjpceAmWsGZx5v/KF5jlxLMK6ArcdOcs9cxNaVzR8bfnVqfcfl9fePLh8ZijkrkMC5bzfxBHWoczaOvRsbn71y/LS4vTEZVda4M0iVM6sh72+TyOsQ6F1xb8+BcySksjiEqeQWQpxi7DOhcbF+7kR/Bzg+VwS+ugTWg8R2+d5//JyDsaz1/mNlluwfb54FLbGmy9ez6/Pv5v1ni3m7l7Hu54j8+dFJwI3Kr28d2bj9Q136HYfvR5+5LsO8U6GaIWi5SwPekTkXy48//vff9/xGKqipELlCRsPURedf7S04P+lLXi9/EGHynwi02fbTF/ezsaJ0Ol37IK9i1syjpcU9LzmLnsKHEzURn/x4/7gg9v+uMXrVcnCP1niDJ8XvL/Cmeyl5Dty09Xcmp5fn77ZkBm/j8HDkLPcy7QdXJ3DY5ZEa2BvJ7n9M1NJSYlA+cEhZVsW6leoPDQeQqkMxcc8TGIvtPzgjom8cXR1dcATdpLKQZ6JcXDD+WbLyTteotAZ2Quetn8aU4KXFX9z4DFWALcYAcb48mThnyxxhk8H3l/hTPZS8h25pbsaK2yR7lm7l/h31YFZxqoCh8Ysd60M/BoVAWLrnl1/1JQa2I+L6rXJWPlHG2+85gjc4kVyf+1ExV+dqmxvMKtT6RuoiXlM74H8YJ8n+5vN8FeBWziT71ICs4RZxkrguyxcdAoCIAACB0fAlKlubzDv/SernnuvL1Tz4EaElkFANAIwy1i9CjlL0RYrOgIBEAABcQhEm6387+XGuGQ3xRkdegGBAyUAs4RZxkrgQBcoGgcBEAABEAABEEgiAjDLWL1KhJylCF0k0ZJFqCAAAiAAAiAAAglLAGYJs4yVQMIubgQGAiAAAiAAAiAgMgGYZaxeJUJCUYQuRF526A4EQAAEQAAEQOBQEoBZwixjJXAo3xgYFAiAAAiAAAiAwD4IwCxj9SoREooidLGPpYOXgAAIgAAIgAAIgMAuAjBLmGWsBHYtqfj+SihlQefDqZEWvVj/JSW+8cerNXCIF0m0AwIgAAIgcKAEYJaxepUICUURutjHIsuz37pfPXa/euxeVWeJZPf/niGUtjC3y1txm65Qdsz8LS8kEmPtzRn/0l/XN7+uvRsoCNYnVGrV0Nz7F5dzgiWe4dX1za90tY2pBsXufvcxkIR6CTgk1HQgGBAAARAAgWgJJL1ZEonBWlZb5K4pZB5FZbX55vRoKcRSXwTtE6GLfRCQybVapU6raRzgNUtVbX9lV2Oanq6jSJUGvVCoI2L96dX6r5eLcgwGk0GfLhOuL9dk0XWKe2cOpVmCwyH9T+tCKx/lIAACIHDICBwOsyzWyejcFaFUmQVHrDr637yK9hBB+0ToIoBLWXi6sG+0YnSiYqDH7tZLAxlBIjW4cy8Pebx3y3svWRzqEO0jKTV9vGapbhyubHOE1Iw8IyS/9+3qnfKd9au8nwPpyVdXsnY+RUyXpsPMkihtTTefv5nfWJz3T1yt1jKZVEKZzr3cGr94cmRmaWFx/slws5Ebl8bdeWfWv7ixMOe/31unZ+s7+/wvfT2Plz+++Mld5/N/WnzY6WTNmLf9yOOK9llwiJYY6oMACIAACCQUgeQ3S0qdZtArWSdQ2fJLCtRhO7MHSlwE7ROhC8bL5YUOrwGKwN8AACAASURBVNfhMafodKmuthJfd5aWKZeZLD0+V4Mj1WDQlHW6vZf0Gg5puFmS9BO+St94xe17VbfHK330w92UvdMLuZfT7Zfd+rD6eWn1r2sbX5bpg89Lb2+wSqpg0pPZ7U/W9mCWhJLndfk/PO4uz7NZS9p8/vXJY5lM/LRZvn820OLKyym/+mhhc6JZx5Qry0dW3t2/XO60W4tO+fwb42y5s8//6ZczTnfX9PqrG432lokPC143JRVqP3QsoceEcnW/ZYbDDmr189JYs+TH4xDKBMcgAAIgAAKHnkDSmyU3Q4SSqcwVBRYtJfzlzVWO44EI2idCF4xpqStdo9cYm6QkMolEpZDImXJ9Q8lImzaQv8zI7p5wFHKQecxSqslQGTJ1rd6KznKVIVNlyFSmRdgNJymZJovNXOP1r06dsNjMFpvZlCEPmUR504O9mWXOhZn1AU8gTtP52eWxRoo2QtosH7UbmbHIPMMrH/o97AKQyFOkwfxlcf+nd31uuo6zz+/vy6OkRX2LE81qoml7uPHnOqmUUPztC60lQqVoTMxw2EFZbObMNKHKdL+HlEOEIeMpEAABEACBw0fgEJmlJNNcUm5QBcRCtKkSQftE6ILFpTVeHK0cHiy6eN7eUp9pUjJ6Ryhrq2d0ooLJPtI5yNF7BaWcKYabJdsUicduONvUns2ypPfD1gqXIFz7snavVR40yztNKWxrBdfnFm4dYY+V+Z13Zj8trDCZxfWt+eEqAbN8UCeTEoq/fbapeP3k3Q1nG/+hOMSLJ9oBARAAARAQmcDhMUupzlXotITmusRBKYL2idAFy4pQcpUqx6mvqLe23yj3XjHQ10IxZjnUnslkH9kcpEIVIWcZaOr7mOXS8NGQNKFew+Usw82SSN197zef9tTn5dAvqR9Z3INZ8rQvtMyi3Q0PcOM735R9Khqz5ImTzd2Kz0GID8pBAARAAAQOJYFDYpaEUuocNTa9SvxJEkH7ROiCMUhVhsZukAeSvlmWn8fznEy5vqHEd05H74xTEplUnpGhCOT/6GeVR25EeQWPLM2Qptx9iVX0ubqLL3dewcPsVv/hrVGwccrTzaYMNRM/vRvOY1Tajkcb06cz6PESSlY+svYts8y5MMPTvtCSi3Y3nG3n8HEQ4oNyEAABEACBQ0ngsJil0prnLkxnrhAXeZ5E0D4RumDsSu1x+obspaYUnVblaC70DlqyWesyWXrvFp8oSjPo09xnS33dRvrKHvZBpEUXKwfP6o303YWU6eylVPSrBHKWRNM8vrS1PPOTNeRMSrp+WK6OUEq13mQwmOgreGb7Cg0mg8GoDoovSWkeX130NtmNdLlBJaevsHF0+T+9Gq5z2qyFrSNvPz9sy2LiFzBLibvv4+bT63V2S67raP99/+q3zJK/fQ5FXA7AIS4Y0QgIgAAIgMD3InBIzFJp8rhsem6LVkyaImifCF2wxKSq0vbCfuauQ4N9+TVWTuOkxrLcK0Me7x1Pz5UcJ3s3H/YlhJIbjR39Ht9k1ei9qp764HmugmaZeuSmf/39VLvh22ZZdP3dFnvXoeCt0eevOQMpVUIpbScnp+c/r25srW385byFST2m2FuGXryeZ+4i1FNvYK7OEdoFpiQyTWn35OulxZXl6bvnTvTPRTZLWlL52o/vYuMzyx+RQ3ypojUQAAEQAAHRCBwSsxSNV3hHImifCF2EjwslIAACIAACIAACIBAtAZjl7hP+oiUogvaJ0EW0o0Z9EAABEAABEAABEAgnALOEWcZKIHxVoQQEQAAEQAAEQODHJACzjNWrREgoitDFj7n6MWoQAAEQAAEQAIH4EoBZwixjJRDfFYnWQAAEQAAEQAAEkpcAzDJWrxIhoShCF8m7ghE5CIAACIAACIBA4hCAWcIsYyWQOKsZkYAACIAACIAACHxfAjDLWL1KhISiCF1831WI3kEABEAABEAABA4HAZglzDJWAofjnYBRgAAIgAAIgAAIxE4AZhmrV4mQUBShi9hXEloAARAAARAAARAAAZglzDJWAngXgQAIgAAIgAAIgABLAGYZq1eJkFAUoYukez8QSlnQ+XBqpEW/8/+PJ91AEiRg8EyQiUAYIAACIJDsBGCWMMt9Esiz37pfPXa/euxeVWeJRLrrnUAobWFul7fiNl2h7Jg5ev/zDK+ub35d3/y6tjHVoAhvP7VqaO79i8s50bccGiqpnVj7tWsf4YU2khTH4JkU04QgQQAEQCDZCRwGsyTyDGN+hctdU+ByZaYqRJ4SERKKInSxD2gyuVar1Gk1jQO8Zqmq7a/sakzT03UUqdLo/U+uyTIYTIbi3hk+s9xHwLwv+XHMEjx5FwAKQQAEQAAE4ksg6c2SUCkZ+UfsJp1UIpfrCgpKCtRh+bP4ItvVmgjaJ0IXgUEpC08X9o1WjE5UDPTY3XppIFNIpAZ37uUhj/duee8li0MdookkpaaP1yzVjcOVbY6Qmru4hf5K5Dl1N36ZnVtfmH/3oK85W76doSSmS9NhZlnl/RxIZ766khXSBVHamm4+fzO/sTjvn7harWVWAqFM515ujV88OTKztLA4/2S42ciMK/X4I7YR7ufa03PakNZCI6QkMqF26Kc07s47s/7FjYU5//3eOj3br7PP/9LX83j544uf3HU+/6fFh51O1rB549zVXSy/gmcs9PBaEAABEACBWAgcArPUmUrK9EraRQiVkV3qzgzbOY0F0DdfK4L2idAFQ09e6PB6HR5zik6X6mor8XVnaZlymcnS43M1OFINBk1Zp9t7Sa/hsISbJUk/4av0jVfcvld1e7zSRz/cTdmRjE1mu/J2adbX6LJbXcduzm5OX8zbbp/PLBVMOjO7/claiFkSSp7X5f/wuLs8z2YtafP51yePZTLx02b5/tlAiysvp/zqo4XNiWYd3b7aaLbYzG1Ta28GPRYbfWxIl0SKk78dQinLR1be3b9c7rRbi075/BvjTPvE2ef/9MsZp7trev3VjUZ7y8SHBa+bkgrFyQ151wGhXN1vPy+thjzGmiPGCZ70vOMBAiAAAiDwXQgcArNUaGwV9mydTKpQZDjzXbYU5Cz39bVKKHWla/QaY5OURCaRqBQSOWNm+oaSkTZtII+Ykd094SikggbGY5ZSTYbKkKlr9VZ0lqsMmSpDpjItwm44oYwdz7cmj6WxbwB1+U8jnR4F1z6fWbI15U0PdpplzoWZ9QFPIE7T+dnlsUaKNjnaCB+1G1lL9gyvfOj3cG+2ve+GR2hHIk+RBvO7xf2f3vW56b6cfX5/Xx4lLepbnGhWE03bw40/10mlhOKPkwtp1wGhUjQmRnxZ/bXYzJkBVrtqsr+CJzvvvHBQCAIgAAIgcNAEkt4saUDKLEthTbGnrqi0LEuD8yz3n63RGi+OVg4PFl08b2+pzzQpGb0jlLXVMzpRwWQf6Rzk6L2CUs4Uw82SXbJkz7vhhMq/+vavI0e2d8BDFz3vbjhbIcwsS3o/bK1wub21L2v3WuVBs7zTlMK+quD63MKtI1wX0ZolbzvK/M47s58WVpi04vrW/HCVgFk+qJNJCcUfJxdSjAfgyc57jBjxchAAARAAgf0RSHqzJBJtVlGFJUMtkchkamtuSYkOu+H7ylkyKT25SpXj1FfUW9tvlHuvGNKZQmurZ6g9k8k+sjlIhSpCzpJdiN/JLJeGj4ak9/QaLmfJa4T06PZ8bTibswxvh0jdfe83n/bU5+XQXdePLO7BLHniFHoDR78bHkdT54lTiENg3hOepxBnlIMACIAACMSFQPKbpSrHUexIDWTXFNq8WmsGvYcr2kOEkyBF6IIxSFWGxm4IXj2TZfl5PM/JlOsbSnzndAGqUnlGhiKQ/6OfVR65EeUVPLI0Q5pye4KCu7eBczc11b13LleG7IZffBl2BQ87uWE5y5wLM394awJJa3m62ZShZuKnd8PDjZBthNSM7/GuQ0JGRbQdjzamT2ewZ/rKykfWvmWW/HEKrdj97oaD5/YaE2KLchAAARAAgbgTSH6zlOrNJZXbOctSj17Fv68ad3ZsgyJonwhdMAam9jh9Q/ZSU4pOq3I0F3oHLdlMucxk6b1bfKIozaBPc58t9XUb6St72AeRFl2sHDyrN9J3F1KmK4MnuQrlLImmeXxpa3nmJyt3JiUls135y9Ks76gr1+o6PvT68/QF+3b7Kc3jq4veJrvRYDIYDCq5lFBKtd5kMJjoK3hm+wrpcqOaLpc7uvyfXg3XOW3WwtaRt58ftmV92yydff6V5+eL7PQVPN84f5HfUInE3fdx8+n1Orsl13W0/75/9VtmyR8nN+QYDwh4MvMeI0a8HARAAARAYH8Ekt4sKWYT3OKsdLlrnEXFdJoqqCz7IxLtq0TQPhG6YEctVZW2F/Yzdx0a7MuvsQbzl0RqLMu9MuTx3vH0XMlxsnfzYV9CKLnR2NHv8U1Wjd6r6qkPar2gWaYeuelffz/VbgiZJqKwNfQ/+22evuvQVP/Ouw5RStvJyen5z6sbW2sbfzlvkRKq6Pq7Le5WQcyt1OevOZmUYYq9ZejF63nm7j899QbmqhqhXGMwfmPN4Mz7lS90OxPHuPNHw5dBhHY0pd2Tr5cWV5an75470T8X2Sxp2eWLM7zHfZeA577R4YUgAAIgAAIxEjgMZhkjghhfLoL2idBFjBAO08tJQc9r7jKgwMFEbfDS78M0UnHGAp7icEYvIAACIJAgBGCWsZ6MJYL2idBFgizHRAiDKHRG7v4+gQNjSkiGNRGCTKIYwDOJJguhggAIgEDsBGCWMMtYCcS+CtECCIAACIAACIDA4SAAs4zVq0RIKIrQxeFYzRgFCIAACIAACIDA9yUAs4RZxkrg+65g9A4CIAACIAACIJA4BGCWsXqVCAlFEbpInBWJSEAABEAABEAABJKXAMwSZhkrgeRd/YgcBEAABEAABEAgvgRglrF6lQgJRRG6iO+qQmsgAAIgAAIgAAI/JgGYJcwyVgI/5jsHowYBEAABEAABEAgnALOM1atESCiK0EX4ykAJCIAACIAACIAACERLAGYJs4yVQLRrDvVBAARAAARAAAQOKwGYZaxeJUJCUYQukm59E0pZ0PlwaqRFj/+OI4l1Dcdx9jEvcYSJpkAABEAgGQnALGP9VhZB+0ToYh9rN89+63712P3qsXtVnSUS6a4WCKUtzO3yVtymK5QdM0fvf57h1fXNr+ubX9c2phoU4e2nVg3NvX9xOSf6lkNDJbUTa7927SO80EZCj10/z88PV4WWsMdC5eE1E7wE85LgE4TwQAAEQOD7EjgUZqk0mPIrXO4jTleRUauiYlONaOdDBO0ToYtoR01JZDK5VqvUaTWNA7xmqartr+xqTNPTdRSp0ugnRa7JMhhMhuLeGT6z3EfAvC+BWfJiiVCIeYkAB0+BAAiAAAgkvVkSSmNwVdmy0qUSuVzrcLhLM8LyWwc6zSJonwhdBBApC08X9o1WjE5UDPTY3XppIFNIpAZ37uUhj/duee8li0MdookkpaaP1yzVjcOVbY6QmhFmgchz6m78Mju3vjD/7kFfc7Z8O0NJTJemw8yyyvs5kM58dSUrpAuitDXdfP5mfmNx3j9xtVrLZFIJZTr3cmv84smRmaWFxfknw81GZlypxx+xjXA/156e04a0Fh4w0bg778z6FzcW5vz3e+v0wUwtSfdcefDu49Lq7L3zbTe3c5ZC5QXX5xa8F47f9c8tr759eqvaGEic88ZPh5HV2P/kw9zql+VP87+MnLRwfITK47Q/jnlh10CizUv4ykQJCIAACCQOgeQ3S1WOo8SRyggBoRTavNqcTKWYfEXQPhG6oCQyQskLHV6vw2NO0elSXW0lvu4sLVMuM1l6fK4GR6rBoCnrdHsv6TUc4XCzJOknfJW+8Yrb96puj1f66Ie7KVvY2Agls115uzTra3TZra5jN2c3py/mbbfPZ5YKJp2Z3f5kLcQsCSXP6/J/eNxdnmezlrT5/OuTxzKZ+GmzfP9soMWVl1N+9dHC5kSzjm5fbTRbbOa2qbU3gx6LjT42pEsixaksH1l5d/9yudNuLTrl82+MM+0QSll6c3Hh2c8Vebm5Vdcmf19jd8OFyimJrOD63NLvTy7Vuqy5VZcer8356uWUVDh+Re3Yhv/OmQJzdpa9YeC3Px6dyWLGxV/Oodt1QChX99vPS6shj7HmiOPFvIgxL7umCb+CAAiAQLITOARmacvfYZY1Zm2sp05GNakiaJ8IXTCmoq50jV5jbJKSyCQSlUIiZ8r1DSUjbdpAHjEju3vCUcidcsBjllJNhsqQqWv1VnSWqwyZKkOmMi3CbjihjB3PtyaPpbHY1eU/jXR6FEHD481ZsjXlTQ92mmXOhZn1AU8gTtP52eWxRoo2NtosH7UbmbHIPMMrH/o93BRHtRsukadIg3nc4v5P7/rcTJs5F2a+jDbQf88QSlYxsh40S/5y1ixXJ4/LmTFKa8aXX1+30nEKxa879XjrcQdtk5REJlWkqRQKpi/+cm5ouw4IlaIxMQLNarTFZs4MMN9Vk/0V8yLOvPDCRyEIgAAIJC+B5DdLic5UXG3L0kqlCno3vMSlkW3vpYowMSJonwhdsKC0xoujlcODRRfP21vqM01KRn0IZW31jE5UMNlHOgc5eq+glDPFcLNkmyJ73g0nVP7Vt38dOcI/a9GYZUnvh60VLie39mXtXiuTC6TN8k5TChsYvRN96wi3MKIyS2V+553ZTwsrTNpvfStokK5r/s9DlYH4uSt1CMVfzpolFwMx1XZ2VGXQZskfPyWRGU/+Mr++8tvzX8a8A50NBWyGPkI5N7pYDjAviTkvscwpXgsCIAACIhBIerOks2tqi9VZ5SqpcBTX5GVrSDDdJQI+SiITQftE6IJlRSi5SpXj1FfUW9tvlHuvGNKZ3Ji11TPUnslkH9kcpGL7MqkEM8ul4aMhaTm9hstZxm6WROrue7/5tKc+L4fuon5kMS5mya1Sxix54memQKGxuo+0nO28PvFyYeN+qyE4X/zlXJuhB9HvhsfR+HnGxeaSMS+hc4RjEAABEDgEBA6DWbLTQJTm3KICdXCzUrS5EUH7ROiC0RdVhsZuCF4dkmX5eTzPyZTrG0p853T0zji9GyvPyFAE8n/0s8ojN6K8gkeWZkhTbp+xENx1DZy7qanuvXO5MmQ3/OLLsCt42Ej4dsP/8NbQO8WURCZPN5sy1Ez8EXOWNeN7vOsQ0XY82pg+nUHnJgklKx/hzqfMuSiwG85bvitnyS1UZjecN/40U3FlTnogJ2q/+vuSr56Jgb+ca3DXwX53wzEvORdmDnBedk0TfgUBEACBZCdwSMySUCptXpVNrxJ/PkTQPhG6YExF7XH6huylphSdVuVoLvQOWrJZizJZeu8WnyhKM+jT3GdLfd1G+soe9kGkRRcrB8/qjfTdhZTpSu5yaYHdcKJpHl/aWp75yRpMLTNX8PxladZ31JVrdR0fev15+oJ9u/2U5vHVRW+T3WgwGQwGlVxKKKVabzIYTPQVPLN9hXS5UU2Xyx1d/k+vhuucNmth68jbzw/b2CtdIpqls8+/8vx8kZ2+gifyeYcSd9/HzafX6+yWXNfR/vv+1WDOUukOXMFjY67g4c6z5C8XNkuh+HXHp/544z3hMGcbbdVXn2381uVi5oW/nEMX4wHmJbDCBdcVP39C8ZfHOB14OQiAAAgkC4FDYpZSnctZmJsS1Box6YugfSJ0wRKTqkrbC/uZuw4N9uXXWIP5SyI1luVeGfJ473h6ruQ42bv5sC8hlNxo7Oj3+CarRu9V9dSrAqk1ofMsSeqRm/7191PthqBZ0pKksDX0P/ttnr7r0FT/zrsOUUrbycnp+c+rG1trG385b5ESquj6uy3uVkHMrdTnrzmZVGKKvWXoxet55q5APfUGJoH9jV1XylgzOPN+5QvdzsQx7vxR3iWkKe2efL20uLI8fffcif451izp+LXlV6fef1xee/Pg8pmhkLsOCZTvOteT64vwxU/fOtTaOvRsbn71y/LS4vTEZVdaALJQOddgjAeYFxZgos1LjNOKl4MACIDAgRI4JGZ5oIwiNy6C9onQReQx/lDPkoKe19xlQIGDiVrRz7L4oZjvZbCYl71QQh0QAAEQ+O4EYJbbJ/ztbzJE0D4Rutjf2A/lq4hCZ+TuyxM4MKaEZFgP5agTf1CYl8SfI0QIAiAAApREBrOEWcZKAG8kEAABEAABEAABEGAJwCxj9SoREooidIH3AwiAAAiAAAiAAAjETgBmCbOMlUDsqxAtgAAIgAAIgAAIHA4CMMtYvUqEhKIIXRyO1YxRgAAIgAAIgAAIfF8CMEuYZawEvu8KRu8gAAIgAAIgAAKJQwBmGatXiZBQFKGLxFmRiAQEQAAEQAAEQCB5CcAsYZaxEkje1Y/IQQAEQAAEQAAE4ksAZhmrV4mQUBShi/iuKrQGAiAAAiAAAiDwYxKAWcIsYyXwY75zMGoQAAEQAAEQAIFwAjDLWL1KhISiCF2ErwyRSwilLOh8ODXSok/O/3aT7PGLPN3oDgRAAARA4LASgFnCLPdJIM9+63712P3qsXtVnSUS6a53CKG0hbld3orbdIWyY+Zv+SKhUquG5t6/uJyzsyapnVj7teubL9/Vu/i/Jnv84hNDjyAAAiAAAoeSQJKZJZGkpFncrrLa/Oz07flIMWbnlztLq53OIr0mZbtcsk9niqoFERKKInQR1ZDZyjK5VqvUaTWNA7xmqartr+xqTNPTdRSp0p2+uPfuksUshUaU7PELjQvlIAACIAACIMBLIJnMklCpOkdlvt2ckVPBmSWhUjMLqnKN6TKJXKF1OIqdadLd+TPekcerUATtE6GLAA1l4enCvtGK0YmKgR67Wx8kSaQGd+7lIY/3bnnvJYtDHaKJJKWmj9cs1Y3DlW2OkJoRgFd5P69vfl3f/Lr26kpW8CWpxx+xhdzPtafntMyzRGlruvn8zfzG4rx/4mq1lsmYEmef/6Wv5/Hyxxc/uet8/k+LDzudAaPNaux/8mFu9cvyp/lfRk5a5HFeIckef4SpwVMgAAIgAAIgEBWB5DJLtSYzXUpJVeYQs5QYrGVF6axbUGq9s8KYGmdviAxUBO0ToQtKIiOUvNDh9To85hSdLtXVVuLrztIy5TKTpcfnanCkGgyask6395JewzEJN0uSfsJX6RuvuH2v6vZ4pY9+uJuyg77IvTD0QKHJMhhM2e1PQs2SUhvNFpu5bWrtzaDHYqOPDekSSkooeV6X/8Pj7vI8m7WkzedfnzyWScfp7PN/+uWM0901vf7qRqO9ZeLDgtdN11fUjm3475wpMGdn2RsGfvvj0Zms0N53HRPK1f3289JqyGOsWZI88e8aDn4FARAAARAAATEJJJNZclx2mKU0K6fMpWFTWZQqs6AqSw2z3M9pAIRSV7pGrzE2SUlkEolKIZEzZqlvKBlp0waoZmR3TzgKqaBp8ZilVJOhMmTqWr0VneUqQ6bKkKlM28tuuLzpwQ6zZE5mCN9NJlTOhZn1AU8gHtP52eWxRoqS0mbp78ujpEV9ixPNaqJpe7jx5zqplFC6U4+3HncEbFKqSFMpFNxaCj8gVIrGxIgsq7MWmzkzLbxaeEmCxB8eGEpAAARAAARAQDQCh8UsJTpTYUlmCsxyP07JrTat8eJo5fBg0cXz9pb6TJMy4OvWVs/oRAWTfaRzkKP3Cko5Uww3S7Y1Es1uOPuSPZtZSe+HrRUup7j2Ze1eq5zfLB/UyWgBNZ78ZX595bfnv4x5BzobClKDWswNPC4HyR5/XCCgERAAARAAgR+cwGExS+Qs43G5EqHkKlWOU19Rb22/Ue69YqAvkyKUtdUz1J7JZB/ZHKRCFSFnyb6jDtgsl4aPhqQV9RqBnGXALAml0FjdR1rOdl6feLmwcb/VEOFtv4/dcLa1aMzyAOOPMDQ8BQIgAAIgAAIHTSD5zTLsPEvshu9v0RBKlaGxG4JXt2RZfh7PcwZ3w33ndPTOOCWRSeUZGYrtC/CJ8siNKK/gkaUZ0pQ8uVV+M6sZ33XXIWY3/A9vTWBHW55uNmWoA+dZ7t4Np82SUGmm4sqc9MDuuf3q70u++giI4rwbLnr8EYaGp0AABEAABEDgoAkkk1kSSkoYudk+z5K+PoO+NtzGXRte4tIEr2g+aHZs+yJcXiNCF4xBqj1O35C91JSi06oczYXeQUs2Uy4zWXrvFp8oSjPo09xnS33dRvrKHvZBpEUXKwfP6o303YWU6crgjS2FcpZE0zy+tLU885M1uCVNKKVabwpcwTPbV2gwGQxGdVBw6bMnV56fL7LTV/Aw5zsSSu7o8n96NVzntFkLW0fefn7YRp9DyXeeJWuWuuNTf7zxnnCYs4226qvPNn7rcnHxx36Q7PHHTgAtgAAIgAAIgABHILnMUptdXFvsqeMeeVl0soqi72dZ4XTXOAuLjbifZdD5uDne+4FUVdpe2M/cdWiwL7/Gyumd1FiWe2XI473j6bmS42Tv8sM2Syi50djR7/FNVo3eq+qpVwVSg4JmmXrkpn/9/VS7Ydssi66/2+JuLUTfe2hj/poz2A5lrBmceb/yhS6fOMae30lS7C1DL17PbyzM+e/31BuYvyWEzJKSyGTW1qFnc/OrX5aXFqcnLrvSAo3vnUyEmoRK7vgjDA1PgQAIgAAIgEC0BJLJLKMdmzj1RUgoitCFOKzQCwiAAAiAAAiAwOEmALPkOeEvqikXQftE6CKqIaMyCIAACIAACIAACPASgFnCLGMlwLuwUAgCIAACIAACIPADEoBZxupVIiQURejiB1z6GDIIgAAIgAAIgEDcCcAsYZaxEoj7okSDIAACIAACIAACSUoAZhmrV4mQUBShiyRdvggbBEAABEAABEAgoQjALGGWsRJIqAWNYEAABEAABEAABL4jAZhlrF4lQkJRhC6+fi+sNwAAIABJREFU4xJE1yAAAiAAAiAAAoeGAMwSZhkrgUPzZsBAQAAEQAAEQAAEYiQAs4zVq0RIKIrQRYzLCC8HARAAARAAARAAAUoig1nCLGMlgDcSCIAACIAACIAACLAEYJaxepUICUURusD7AQRAAARAAARAAARiJwCzhFnuk0Ce/db96rH71WP3qjpLJNJda5FQ2sLcLm/FbbpC2TEztbvCrvrx+pXUTqz92rWX7jzDq+ubX9c3v65tTDUoog7P9fP8/HDVN8PeezzfbOq7VNh7/OD5XSYInYIACIBAohFIMrMkkpQ0i9tVVpufnc6h5C3knj3oAxESiiJ0sQ9KMrlWq9RpNY0DvGapqu2v7GpM09N1FKnSxDNLuSbLYDAZintnYJYSwb8u9m6W4LmPNxFeAgIgAAKHj0AymSWhUnWOyny7OSOngjNL3kIx50kE7ROhiwAxZeHpwr7RitGJioEeu1svDWTyiNTgzr085PHeLe+9ZHGoQzSRpNT08ZqlunG4ss0RUjPCpBRcn1vwXjh+1z+3vPr26a1qY0B0iNLWdPP5m/mNxXn/xNVqLZMZJZTp3Mut8YsnR2aWFhbnnww3G5k4U48/YnOQ3M+1p+e0TABE4+68M+tf3FiY89/vrdOHZFiJ6dL0ns2SpHuuPHj3cWl19t75tpvbOUve9iPFwzeuCHyifQo8oyWG+iAAAiAAAvEikFxmqdZkpkspqcocapY8hfGis5d2RNA+EbqgJDJCyQsdXq/DY07R6VJdbSW+7iwtUy4zWXp8rgZHqsGgKet0ey/pNRyZcLMk6Sd8lb7xitv3qm6PV/roh7spO6JiFlyfW/r9yaValzW36tLjtTlfvZySEkqe1+X/8Li7PM9mLWnz+dcnj2Uy8dBm+f7ZQIsrL6f86qOFzYlmHR2P2mi22MxtU2tvBj0WG31sSJfQ7SjLR1be3b9c7rRbi075/BvjbH0mUbd3sySUsvTm4sKznyvycnOrrk3+vsbuhgu2LxgP/7g4pLsOCOXqfvt5aTXkMdYsAc/t+Y2O5y68+BUEQAAEQCC+BJLJLLmRh5pl5ELu2YM7EEH7ROiCMTZ1pWv0GmOTlEQmkagUEjlTrm8oGWnTBvKXGdndE45CKmg2PGYp1WSoDJm6Vm9FZ7nKkKkyZCrTIu+GF1yfW508LmfalNaML7++bqWNMOfCzPqAJ9Cv6fzs8lgjRZfTZvmo3char2d45UO/h5tf3t1biTxFGsy/Fvd/etfn3q6/55wlE8+X0QYl22/FyDp3nmWk9sPO+xQaFxfSrgNCpWhMjCizumyxmTPTdtXZ9St4cutzFxn8CgIgAAIgcNAEYJaCZ5jtEb0I2idCF+xgtcaLo5XDg0UXz9tb6jNNSkb1CGVt9YxOVDDZRzoHOXqvoJQzxXCzZJsi0e6G3zoSeKGptrOjKoM2yJLeD1srXK5u7cvavVYml0mb5Z2mFLY+vfMbfC3tfGEmR0lkyvzOO7OfFlaYtN/6FmeEdP0ozNJ1zf95qDJguqFX8ERqPyweoXGxw4nLz1AmBDyFzyKNC200AgIgAAIgEEoAZgmz3CZAKLlKlePUV9Rb22+Ue68Y6MukGLMcas9kso9sDlKh4nJCcTdLbnUyBrY0fDQkXafXcDnLvZslkbr73m8+7anPy6Gbqh9ZjK9ZfqN9frPkGRc38F0H+9sND7VttkHw3AUWv4IACIAACBwEAZjltlftj68ICUURumAMUpWhsRvkgZxcluXn8TwnU65vKPGd09E745REJpVnZCgC+UL6WeWRG1FewSNLM6Qpd2APzbFxs8DsGv/hrVGwJfJ0sylDzcQTMWdZM77rrkNE2/FoY/p0Bj0uQsnKRwLnR7LNEtPFl3u7godQORdneHbDv9F+eDz0Lj/PuLiB7zrY3244n1ny98ueXSBo6uHxJznPXXjxKwiAAAiAQHwJJJNZEkpKGLnZPs+S3jPlKYwvo8itiaB9InTBWJfa4/QN2UtNKTqtytFc6B20ZLM2ZrL03i0+UZRm0Ke5z5b6uo30lT3sg0iLLlYOntUb6bsLKdOVwcuuhXbDiaZ5fGlreeYna/BMTUoiEzBLuaPL/+nVcJ3TZi1sHXn7+WFb1rfN0tnnX3l+vshOX8HDnI9IJO6+j5tPr9fZLbmuo/33/as7cpYpzeOri94mu9FgMhgMqqBYcwPkDgildAeu4LExV/AEzrP8Rvvh8VD84+I6iv0APGNniBZAAARAAAT2RyC5zFKbXVxb7KnjHnlZakLxFO6Pxf5eJYL2idAFO3apqrS9sJ+569BgX36NNahZRGosy70y5PHe8fRcyXGyd/9hX0IoudHY0e/xTVaN3qvqqVcFUp6CZpl65KZ//f1Uu+FbZklLZIq9ZejF63nmbkE99QbmKpxv5NgoY83gzPuVL/Qt0CeOseeDakq7J18vLa4sT989d6J/bodZUkrbycnp+c+rG1trG385bwnEz7sYiLb86tT7j8trbx5cPjO0fdehiO3zxMM7Lt4e91fIa5bguT+YeBUIgAAIgEBUBJLJLKMamGiVRdA+EboQDVfid0QKel5zlw0FDiZqg5eWJ378iRYheCbajCAeEAABEDhQAjDLHSf87YO1CNonQhf7GPhhfQlR6Izc/X0CB8aUkAzrYR34AY0LPA8ILJoFARAAgcQkALOEWcZKIDFXNqICARAAARAAARAQnwDMMlavEiGhKEIX4q889AgCIAACIAACIHD4CMAsYZaxEjh87wqMCARAAARAAARAYH8EYJaxepUICUURutjf6sGrQAAEQAAEQAAEQCCUAMwSZhkrgdD1hGMQAAEQAAEQAIEfmQDMMlavEiGhKEIXP/J7AGMHARAAARAAARCIFwGYJcwyVgLxWotoBwRAAARAAARAINkJwCxj9SoREooidJHs6xjxgwAIgAAIgAAIJAIBmCXMMlYCibCOEQMIgAAIgAAIgEAiEIBZxupVIiQURegiEdYiYgABEAABEAABEEh2AjBLmOU+CeTZb92vHrtfPXavqrNEIt31TiCUtjC3y1txm65Qdswc7/+OSGon1n7tinuzu0YR4VfXz/Pzw1URKrBPffc4vxlhgsR5yHjuETuqgQAIgMDhI5BkZkkkKWkWt6usNj87fXsyUgzZ+eXO0mqnq1Cfptwul+zTmaJqQYSEoghdRDVktrJMrtUqdVpN4wCvWapq+yu7GtP0dB1FqhRmKcpq3Mc8si/57gYMs9z33OGFIAACIJBQBJLJLAmVqnNU5tvNGTkVnFkSKlXvrLYZNVKJXK4ryC8pUIflzw6UuAjaJ0IXAUTKwtOFfaMVoxMVAz12t14ayEQSqcGde3nI471b3nvJ4lCHaCJJqenjNUt143BlmyOkZoRZKLg+t+C9cPyuf2559e3TW9XGwJ8ERGlruvn8zfzG4rx/4mq1lpnZ1OOP1je/hj7Wnp7TUlJC2S78ujXaoGA7otu8dWT7OKx9QpnOvdwav3hyZGZpYXH+yXCzMTheoVBJuufKg3cfl1Zn751vu7mdsyQad+edWf/ixsKc/35vnT5inJRExjsuoU73UQ6e+4CGl4AACIAACMSFQHKZpVqTmS6lpCpziFlK0jNyzCrmu5xQ2uwSjz5l985sXEgJNSKC9onQBa07lLzQ4fU6POYUnS7V1Vbi687SMuUyk6XH52pwpBoMmrJOt/eSXsPRCDdLkn7CV+kbr7h9r+r2eKWPfribsiMqZsH1uaXfn1yqdVlzqy49Xpvz1ctpU5Tndfk/PO4uz7NZS9p8/vXJY5l0v2qj2WIzt02tvRn0WGz0sSFd8i2z5GufNsv3zwZaXHk55VcfLWxONOu4cYUfEEpZenNx4dnPFXm5uVXXJn9fY3fDCaUsH1l5d/9yudNuLTrl82+Ms+0IxikwLoGkJqFc3W8/L62GPMaaJeC5Pe/R8QyfWZSAAAiAAAjEkUAymSU37FCz5AppB1JY7O5CzbcyT6Evif1YBO0ToQvGINWVrtFrjE1SEplEolJI5Ey5vqFkpE0b8PWM7O4JRyEVNBses5RqMlSGTF2rt6KzXGXIVBkylWmRd8MLrs+tTh6XM21Ka8aXX1+30qaYc2FmfcAT6Nd0fnZ5rHG737DzLCPnLPnap83yUbuRtWfP8MqHfk+E9cDE82W0gT7dglCyipF17jxLiTxFGlx1xf2f3vW5uXbCd5kjj4t7IXdAqBSNiRFoVqMtNnNmGvcs7wF4cuuElw8KQQAEQAAEDo7A4TFLIlFnOKryTBqRv1RE0D4RumBXmNZ4cbRyeLDo4nl7S32mScmoHqGsrZ7RiQom+0jnIEfvFZRyphhulmxTJNrd8ODONTHVdnZUZdBmWdL7YWuFy9WtfVm718raJ+12UZoltzMe0j5tlneaUtiAQ3fPed9vhHJd838eqgyYbuh5gcr8zjuznxZWmLTi+hZnnAJxRhoXb9fRFoaOJWS8kfoFz2ghoz4IgAAIgAAvgUNiloRSpdsqCnKzOPPgHe1BFIqgfSJ0wZIhlFylynHqK+qt7TfKvVcM9GVSjFkOtWcy2Uc2B6lQcfoed7Pk5ogxy6XhoyHpOv32nw37NqGQ9uNjlkTq7nu/+bSnPi+HDrV+ZHEPZik4Li487mB/u+GcSYe0U9L7QbDfH4cnBwQHIAACIAACB0HgMJgloRRqi6cgL1sp7rU77HyIoH0idMEYpCpDYzfIAzm5LMvP43lOplzfUOI7p6N3ximJTCrPyFAE8nz0s8ojN6K8gkeWZkhT7rhsPzTHxq1yZtf4D29N4IocebrZlKHefrZmfNddhwiVcfrJ1tSpDCZmWfmttbfXi9j6Au1Ha5Y5F2d4dsOJtuPRxvTpDJoboWTlI4HzL9muCU+cORdmBMfFDZA72N9uOJ9ZRuqXL87DyZMDiwMQAAEQAIGDIJBMZkkoKWHkZvs8S+Y6D5XJ7czPSQme6HYQmCK0KYL2idAFY0Vqj9M3ZC81pei0KkdzoXfQks3aksnSe7f4RFGaQZ/mPlvq6zbSV/awDyItulg5eFZvpO8upEzn5F5oN5xomseXtpZnfrIGz9SkJDIB85M7uvyfXg3XOW3WwtaRt58ftmVt9+vs8688P19kp6/gCZ53aL3weum1r8Fpz626/mRpccCjYusLtB+tWSrdgSt4bMwVPIHzLInE3fdx8+n1Orsl13W0/75/dUfOMixOQkUaFzfAWA4ExhupXxIWJyWRgWcss4DXggAIgMCPSSC5zFKbXVxb7KnjHnlZakJlmN21RWU1he7AwxK81kScGRVB+0TogmUlVZW2F/Yzdx0a7MuvsQbzl0RqLMu9MuTx3vH0XMlxsnf/YV9CKLnR2NHv8U1Wjd6r6qlXBVKegmaZeuSmf/39VLvhW2ZJS22KvWXoxet55m4+PfWGkD8eCGWsGZx5v/JlffPr2sQx9rxPorA13nzxen59/t2s92wxd3ckAdOKzizpeLTlV6fef1xee/Pg8pmh7bsOaUq7J18vLa4sT989d6J/bodZ8sYpPK64LFre8YJnXNiiERAAARAAgcgEksksI4/kez0rgvaJ0MX3opeA/ZKCntfcZUOBg4naEKlNwJgTOSTwTOTZQWwgAAIgEHcCMMsdJ/ztg68I2idCF/sY+GF9CVHojNz9fQIHxpSQDOthHfgBjQs8DwgsmgUBEACBxCQAs4RZxkogMVc2ogIBEAABEAABEBCfAMwyVq8SIaEoQhfirzz0CAIgAAIgAAIgcPgIwCxhlrESOHzvCowIBEAABEAABEBgfwRglrF6lQgJRRG62N/qwatAAARAAARAAARAIJQAzDIJzDJ0wnAMAiAAAiAAAiAAAglLAGYJs4yVQMIubgQGAiAAAiAAAiAgMgGYZaxeha1qkZcsugMBEAABEAABEEhYAjBLmGWsBBJ2cSMwEAABEAABEAABkQnALGP1KuQsRV6y6A4EQAAEQAAEQCBhCcAsYZaxEkjYxY3AQAAEQAAEQAAERCYAs4zVq5CzFHnJojsQAAEQAAEQAIGEJZBkZkkkKWkWt6usNj87nWVKKJ2puKbQzTzKaouK81LF/RfPMMuEXdwIDARAAARAAARAQGQCyWSWhErVOSrz7eaMnArOLDleRJKWmV+Ra9RQMEtJrIlYjioOQAAEQAAEQAAEQGDvBJLLLNWazHQpJVWZd5slkaRq7RV2k1YirlZSEhlylntfbagJAiAAAiAAAiBwuAkkk1lyMxFuljJ9cZG73JqdlSKTctXEOYBZisMZvYAACIAACIAACCQ+gUNilpQiLTUtMyPH48rPloubtoRZJv4qR4QgAAIgAAIgAALiEDgsZsmcWUgkBqu7WCtu2hJmKc5KRS8gAAIgAAIgAAKJTyDpzZLItBnmLCWTpyRUpsVdkiEXdUMcZpn4qxwRggAIgAAIgAAIiEMgmcySUFLC5Ca3z7OkpMxdhyrNGWqJRKHMdDmL7CnYDce14SAAAiAAAiAAAiDwPQgkl1lqs4triz113CMvS01JZFK11eqsdLmrCwqcGakKcZSc6wU5Sw4FDkAABEAABEAABH5wAslklok5VTDLxJwXRAUCIAACIAACICA+AZhlrDcVh1mKv2rRIwiAAAiAAAiAQGISgFnCLGMlkJgrG1GBAAiAAAiAAAiITwBmGatXIWcp/qpFjyAAAiAAAiAAAolJAGYJs4yVQGKubEQFAiAAAiAAAiAgPgGYZaxehZyl+KsWPYIACIAACIAACCQmAZglzDJWAom5shEVCIAACIAACICA+ARglrF6FXKW4q9a9AgCIAACIAACIJCYBGCWMMtYCSTmykZUIAACIAACIAAC4hOAWcbqVchZir9q0SMIgAAIgAAIgEBiEoBZwix3ECA1Y0urn+nHzFWLuP+BPTHfIYgKBEAABEAABEBg7wRglju8au/guJq7cpaEUhZ0PpwaadEnp5aR2om1N4Mei81s1MmScwjc1OAABEAABEAABEBAZAIwy7ibZWrV0Nz7F5dzdmoZbWy/dpl3Foo82XvpLlni3MtYUAcEQAAEQAAEQEBkAklmlkSSkmZxu8pq87PTd5GSaBwFxflqqXRX+UH/uitnKdRdshhbssQpxBnlIAACIAACIAAC35FAMpkloVJ1jsp8uzkjp2KXWRKJxuCqsmYoxUcZapZV3s/rm1/XN7+uvbqSFUxPph5/xBZyP9eentMyzxKlrenm8zfzG4vz/omr1VoJrcXE2ed/6et5vPzxxU/uOp//0+LDTqeUbS2rsf/Jh7nVL8uf5n8ZOWmRx1+jYZbiLyH0CAIgAAIgAAKHhkBymaVak5kupaQq826zlBtKXPlmRVDmxJyeULNUaLIMBlN2+5NQs6TURrPFZm6bCpy/aLGZDekSSkooeV6X/8Pj7vI8m7WkzedfnzyWGTDLT7+ccbq7ptdf3Wi0t0x8WPC66fqK2rEN/50zBebsLHvDwG9/PDqTFWGkhHJ1v2WuxWGvyFn9vDTWLPkWIphlBKR4CgRAAARAAARAIDKBZDJLbiS7zJLIjTklHr0q1jMmufajOgg1S/aF8qYHO8xSQgcWbmyEyrkwsz7gCeQdTednl8caKUpK5yz9fXmUtKhvcaJZTTRtDzf+XCeVEkp36vHW446ATUoVaSqFIkKohErRmGy01HKPzLQI9dmnwuP85ktQAQRAAARAAARAAARYAklvloRSqHMq8y1a2slSbfmF9pRvpeXiO/cxmGVJ74etFS6huPZl7V6rnN8sH9TJaAE1nvxlfn3lt+e/jHkHOhsKUg9gpDDL+C4PtAYCIAACIAACPxSB5DdLRXauuzCdEa8kNMul4aMhOUW9RiBnGTBLQik0VveRlrOd1ydeLmzcbzVEWKzYDY8AB0+BAAiAAAiAAAgcBIHkN8sUa15Zjau42llc7Sw5UpSwOcua8V13HWJ2w//w1gR2tOXpZlOGOnCe5e7dcNosCZVmKq7MSQ/sntuv/r7kq4+wJrAbHgEOngIBEAABEAABEDgIAslkloSSEuacxe3zLOkSuVSeEnho8gq+n1kSSqnWmwJX8Mz2FRpMBoNRHbx8mz57cuX5+SI7fdYjc74joeSOLv+nV8N1Tpu1sHXk7eeHbfQ5lHznWbJmqTs+9ccb7wmHOdtoq776bOO3Llfc1wR2w+OOFA2CAAiAAAiAwI9DILnMUptdXFvsqeMeeVl0ko97fN/dcEIV/f/svYlzGkf6//+XdE/NUVwFAgpxFodAUKAbdKLjZ2EhcciWQNixYzvOxo4dX7GzduTI8W3Zlo94k93Yu04cJ/ns5vuH/apnhhGCGQQGYSE9VRQ1ND3dT7/6mDdPH5z68S/paCFy9tDvr0+GRRcjwraJc09++vV/JPz6nHCKEFL7D55/+Pz1729+frX62ZSVP4xTSVliimE8C+fv//z63f9+efvv9etHI3oxcYlA4xegLBtnCCkAASAABIAAENi3BNpJWe7OSqrcwbM77azRKqIs3/8X/je8RlwQDQgAASAABIAAECglAMpy0+VZyqX2672mLDVW8ZQi+N/wEnd47e0BYgIBIAAEgAAQ2M8EQFk2U1nqtKpD0y6dlvwV0F663s89BMoOBIAAEAACQAAI1E4AlGXTlKUgJR0W3aFp1156r70xQUwgAASAABAAAkBgnxMAZdk0Zfn/xWx7z1splGifdxIoPhAAAkAACAABIFAjAVCWTVOWNRKHaEAACAABIAAEgAAQ2KsEQFmCsmyUwF7tG1AuIAAEgAAQAAJAoF4CoCwb1VV7bG94vQ0I4gMBIAAEgAAQAAJAQCIAyhKUZaMEpMYEF0AACAABIAAEgMA+JwDKslFdBT7Lfd6FoPhAAAgAASAABICARACUZfspS0TZhk/dWv/p12en+qSKhAsgAASAABAAAkBgJwggbEnfev+vV08uLUbUuPn/q7wTNn/ENEFZtp+ypEeuvHl9+/Bg0NGh+YhNp3rWCLOm1MzEya4GO2Gz0qluLXwLBIDAbiAA/X031ELtNuyf+kKY1dn8oZlLT9+/yLlAWW4jnEBZbgNo2z7W+tlw3cKd3+7ljCU/mxDWdF0pJHJu/t0qa7O5cGjhU5fsVzsRiDBnO76Y/KbPUGJnlYxQbDJ7s19XEbnedGSzqIWP7I1lgVXSQYw39qyQvdGrqShCWSL77SPqHUu9LCz+cER6ZV8mvLomD81K7acu2og1uo4mEg9zqYeZ8SNeDdtkI5WMqdKulG6RDW9WOrKJC4FN4Vwt/TrHDdmkmsIBYQ97863u1S/SSzVlECHoguxnt9XrP2sfrKuWhzEtthNUZ7is8VUCaynXLhnnZdtJLfZXKb70FcIcFftCvfFW+/A0XTLe1su/3viYYhAev/jrT0f9LRoZpCK33UWbKUtEqfXuwchQPOjsEFgjrLGE4r2DEz3Cq6dRJ1m9Vdh6ZYnj1989O+kp7VFY5blYmF2y8+8W2SK0eMSRtaFKoOxIVCV+XV+hGvjUkmCVdFAoNn9zYWbjgEcLg86WX2uIU6steo3F4L9YOJBzaMi1lqaaTKkp7UefTaXXxtwBkz7gH1rLTy0Ya2kVjcep0q7qSrxZ6VTJtCmcq6TflK+awgFhDhvtlIV/zX6jXb/JOFheW2iokz9orn1Kd/mo3ozq3ht1wv4B4R9Q0lrKtUvGedl2Uov922JBWEOlbmo2HqtOfqspUZYkvBn1opSOYBgyL9/5/e7BZv8w3rbUbRehnZQlwlpT90jQ7zJ7h7cqyxHbx3uct15ZooHz//r5q54typJ1nyvMLHby7yapFSK9PXwhM/9kefZ8T9exRclniTij+xjxzaQfpUeXXCrpMd/p67+Snd8oZB4fmjzZrSv6bBBjdB6ZnX2QSz3KjB/p0jKiLDDmFlOf9XjPpOefLh+8OmK3iOH2z/KCgyr7bZ/kw0NYH7heGMkEBm8spR4fmjzhF9Jhpw5I3izxrqthji+dbDpkEFeZPSfmEo9yC3dTw1m7ELmYfvfQ6lJq/dDkp10ayZeA5fmQpHTxr/7x+7/u5BwlPCWAZRdIOR1dNpU84vd/kxsaII8f/kkjX17ylRx/0f5x8fbSJwSKxrMlbr/4Qb2Yhd7efWZ+bj2fepAey3vUUj3yBpQZT/KViy/kK5DPPFtOXI7ZzaQeq/gaZflXZlcagjDrOluYSW/RarLpIEvP9It5f7EtUf1jC49GLXxVysav0n5ky1tqVek1wmrf5cLEAXGFiWpifPqIh+JbhWw6yB+duz7We2V5/u99nbGxg48PT6Q6hfiy/aJauZTbVamF214rtU9Ze7Zph5nyflSFs6xhxf5Y3t8xxSjZo9jfFcYf2X5EyqXMs67+LpQLBY6qH91lAzrxIw6z915xIfHnEzV/W/tVAmEa1RkuC616oFK56hrnq9SLbP8iJik8F2Trq0o7UbKfVFnN4zDxJX95ifHoUPj0VmXZnHpRqkex9nvO/vjmUn8ND4vqVbnnv20vZakzWDpoTGtc+1dZIkplzd55cy/XubVxO84UplNG4V3sA5i1HDucujZk85oMAwOjd3OCskSY6VhKJy8PWL1GfSgYu50bjWv54Zhx/C0/dyZotBk0Hu/Ad/mJBFEwCNOGxVTmuzEX8eV0DdzMT2dF8WrMLWbuHgjFOvVuV+hKbv60+CSmdHqNRa89eKBSWSavxdwBkyEcHrmXH5viB2uNXucw6hIz2bVhq8NIrs0azJdOIR3GmMukr8ccXSZDT8/og+XYsJq3kyi55LWYJ2DS9/XH1/OjE5vrUCv5iJQMs9fe/PX2ybFSH3CVbi+bDsJq76V8bJjtWM4mcuJqBGEEryyvMn9eicoqy1g8uzpoIt4+c/fVgqAsEWatJ5eS5/usfpM+GIjdzo2UlLeyCErxBTtHZw3Em+hxhq/kkkd4H4yCrxFhef6VOZaGVCpLpXSIPd8UJufJzCPCjOVx3Mi9AAAgAElEQVTYUvK4E5Mnt0K+Cu1HqbylVpVei0/cIn/pK6V0iLJ8POv32yM3cgeO+AzxeHJ9VOiVsv1CqVxCRrLtSrKh9gvZdBTsURoHFPqRAmcl2wSele1fUJb1jBvy449SP6rOE9XZ35F5VrX+Rn24Fxd/TiMc456us8WVdmjimvZqlm+f9YUrcaseXlm/qO5xXqzfsnFYqX8hLP9cwBQjOz7jqu2k0n6hvLXXC8IcEn5nlivL+vjXW4+inb5Pn779fq5TVb2a4Nt2UpZSbZUry6AwFT4ejvR06ltd5S3zWSI2cfXdn29/++/rja8nrVsmHCUypRcIG4OrheFRYQaHsZ2UlKUxuJob6BX9i9rUfOYLHz8yanyXC/E50R+GORXDCffq/N8URuMiWLa3byhll3wzmXN+4RpH45m1QX2J3qXGpyuVZXxW/Olvyi+mTrolg2VnT4RvK9IxBlfzsWGRgDGXXThB1o8KT7Ki6qKtJ5bnjxKFtP2L1bBF7+b2keUSRKwn+vSgz0DjvtGFv4tLLUV7KsrL14ssf0VliUcms9ciKqKu1N5LorIkprIsVbTcfHRJUITViiAXX7AzNsL7SlV6z5nD8TlxqQlPtdzXyNsvw79avrwbqcxnWSUdTXIue61HTcpr7b27PNArtEP5ehfylW8/cuVVslPgMFKhLEl8uXSIsrwd7cC0+cjh0QkV0gUnXk45+eogSk6uX8iWS8meJobL2lO9HSr1I3nOsp2Cn6OQ7e+y9kjlrejv8uOPkv1SOooX9fR35JpXffWt+s4/NTc+oVS8L19Ulkbm3A/qQ8EKZVlruKJ5cjCrROY51DXOk3Gmsl6U+iPC8s8FyaSy+hLCa28nUjq4nnohQ5O8sqyVf1FZ1hpfLBfW9Bx//ub3//3y7s+365/UMtO1WcA6a7atb2x7ZSnRR5jlzJFwf1C73ZygdEtTLlqnLCm92e1z+SKjn2/869v5Ug0nWxCEO3tu5wcHRAUpza4ibOu7X8hs5DPP+NfzQvZ8QFCHmpnZhedLiW9mh0/FukctLC8TETZHbq1Eh8R0SvMis1onxV1ByOrunnOV7gQvG3HKntz6xVT2jE9KrcpIVJGOre/+cn+PaI8mlcyeC/DKeIsyK7VNymWHLlB3LPndgA7TSOMf3Zhxa4Qn0BZ7pPIq8Rf4iJXyLJ9+XpBWLxACX5MVAmXKkvaFR24upfiqLI2vVEzZ+KX5pp/nk1/3mfgnqJCInK9Rnr9Sph+QDjKHJ18k/WYaeQcT6+NW3l3Ec5OpdzF9uR1gsuVVsrOsfZZGk01HTllOO4rKUrZfyJarNKMdui7tC1I/rd4OJYVdei95nMtxljW7jKfU/sXZ8DrGDfnxR8l+WWMaDESMh/323+qkjf+tVfSNac2YYyqUJY1rC2/QJOn2esd5pXqp0r9knwuSAWXjsxBeezuR0qn3QkFZ1sq/qCxrjS+Wy56798vTE6Nhj9vnspmYEk9Kvfbv7fh7R1nyfd7kHBjqLHkutqDyWqYspbKgvnM/bV1nKX1VelF1xFkaGuXnnYXZZ5MaiSKS5Zx2+0S4Ozc5vZ4fmyb+xRqVZWnWwnXZiKM0ogmRq4xEFenIK5uy9MueiJXmNTFEm17IPs+nnuRST/KZF7nBfuIoLbNHerLyI7gMfyH++LyZrAdwGJ0nD0vKkpuZzV7oprcqS0Tb++/np/LeDmd5fNmiKcUX8h2bM5F8Pc7gpaW5o3ZhNQJfikqfpTx/2UylwLoUKsI6/9WViYRev5haOOUWfvZUefIROysUj1J5JZPKLsrqS/pWKZ0alaWUDg9TplylEXboWrYvVG+HLVOWlUWu6O9VlKVMP6pMsCkhdOGF5tMoX4lFZcm7oGSUZW3hTbGKt6eKB0GGT1k73zouyf9yI16biueCZH9ZfQnhlf1Rit+sC0VlWRv/TWVZW3yxXP3n/lnDw7dZZWzfdNpeWSLK2Nnl0fB+SoT3hbLE49d+efmZd7tfSwgbQ4qz4SuxqDhNTOkN2g4y042wSht0GvSiL9CwlEmf9oiPQzIbTtYyYorhBgeHF53SbLjkm6nsA2UjjjCibZmF4WexhRvJJhW5U4fIap7yWfWKWVH+NKWyEVP2aVppJAmpcxamLBGE1Z6LKxMLZo21Q2PtcJ48nFgm2/OVysvPOsny3+LjlHzMvI8nO3/cyae5ORuODKGJl3NdRsE/SluLqx3KzJM+KsUX7BRnwwXa35CZaOFGOUUoz1/KSPai3nTUiYOZy9Ge67mhIX6anvCslm9l+1Eqr6x5Alvf5cL45g6eiZlPyLphpXQ+QFliiqksl5I9TQyX7Qs1tsOyeys5K9mp1P7LfJaVt1f0d2E2vHz8UbK/MsHykNr6O2JGuTvXmU6hfzH0iR81hR6+nVTsFLk4J7+Dp2p4uVX86PoBgfWP8xWz4eJqIvn+pfRckEwtqy8hvPZ2IqVT7zhcoSybUy8yO3j4ehTLZVt58H5tmhOHx03jP7T69moK7aQsSe/l629znSXx4ug6w6Neq4Gm+NnwvoCgMltWYa33WWqT3/92P2cuPvuVSoow2ynu4DGSHTx3pHWWTMdyOv3tiNNv1HcHorfy8Vlhp47GezGfOBXosBk0LlfkWj6x1MmPpLThkLSDxz+4lp9Jb+7gqVSWCLOsqbiD57uomew70bMMLTxp5vkdPPpQeOR+fmyK7BwSXuQ5vZEIBnnPmUlQukrplO3kWIpFyU4dIX0lX4uUUdmFtHJ8W6VedqP0EdHu6JN0yCmONfT4dEZcI0hG8Mrykp0H8vzllSVlcPV/nxuZNvHn9ZAdPFOHrJyaQZS9/0F+MucxOEym0djYnWXJxynZVnqhFF/gJu7gcdj8F5bnT4puQp5qpc9Snn9pXpXXcsqyWjqoIzSxkU+vT9qlAwrKd/CI9S7kJdN+6uSDKcaQ3Wzn5NShFNnJrshNZp2lzGx4GYrKcpVF2ImPZepQJFZbOyy7t5KzksFV+ntZmkV7lPq7/Pij1I+U7BFzKe7g2ba/I2xjr77RnM3Qbg8VPaZ++orrF+ZwpNNtvFQPOXVINSf86qsvvLqdtX9b/zivOC5t3RkpjatKzwX5+hI5V4zn1UtU+zhMToOyeCiHh5q4oFm/QDs8lKOTV/b18S85XaimehTLRU1dfveq4AVlKT64laq1vZSl0dkX74tOSq+AnXR1SuNwBUfCg2OhcNis45SKukPhrVeWzPS37/5xOWoQfTlVyoUMjsjF7PzTXOJCn//45knpSGXyHD+YeJRLPSSn1Uin81DOwOC1xYWNQubJ4ekve03Fs5zEE6QfkVOHJo52aYsPe4UnhLX3btnJ2Id6/KKyHEkHhm4spUtOHRLsR1jvOJ5MbpAbs2e7+HWT8umQh7106tC9heG0vbgedIsyk7WtklXtp11U3ita7o/OrY9Zi6t7kbV35vm0S1WtvLL8y5Sx5LN0fL5SdirT4g9HxmeImOYiA6NrS+mnyzNnwt6jm6dKKZkqG1/IVzzvaWN59uKQtWNz3KxUhEr8lTIVKVU/daikHovxtV1fF1J/84n7w/hfILL1Xoxf3n4+gA9p558kSL/Y2s7luX2YssQy5aqCDmF2/Mof79Yy2u1+SVZJRKkv1NIOy+6t7KdK+YrtWa6/l6VZrEHl/i6cYF9RL7L2K9kj5lLz6TaknVtGuYvrmqc/a+7cUR0Mby4R0QXZ07c166+1649VKxPSLjpy8nY94SSLZtRvXeN8lXpR6l+yzwV+d53MOF+sTZn+WKVqah+HK0+w1/5wlebXN9fLv+74mFF5jtx5/+ORrs0RsljeJvTTKnza7qt2Upa7E27rlSXiwofXXv/y/r/P2+p/w4URbXhse0G8Oyu6XquaVV7H5yujU+JUoGCD9WROUJb1mtRG8RG2RG7lY8Ot/qG404jqLRfCvpWnf60f9e+0YR+cPuoaTAh7ATff4w5a/GW1f/r7hwFsff02a1z6sPK27138/4b/37v3759cTHQW/QhScVpfj1LWu/MClOU2Tt1tq631ylL4pct1OGy7+H/DK7mJv5VlT3UpzolX3tW+Ic0qr/VIdmhky1lallw6OrZ5VGf7IqpiOfIOJDamnK3djVfFnmZ9VW+5EHvg63fvzhZXRTfLjCamg1iNRtgIuPmu43ebbZlDaGKOeymp1tdvs8alvVQLtZSF/G+41dNp2PIjX7qx9fUoZb07L0BZtqWy3J2NqbpVe3hE01o6UrcXtRZyDKR0jbA+slrIPMyWhZfG2aFrpYqQbGtxvkr2VAk3LKUzX/pL/xS4SuQ2+qreciHfiY33388W16W0UUn3cH9vYi20vn6hXppYfVJSra9HKevdeQHKEpRlowR2Z8tumVW2sCt1e3H3vCsVfKctVMoXwoEAEAACQGBfEQBl2aiu+iiz4fuqje7ywlZ6K3fII1ijx1EJ107bqZQvhAMBIAAEgMC+IgDKEpRlowT2VYeBwgIBIAAEgAAQAAJVCICybFRXgc+ySvOCr4AAEAACQAAIAIF9RQCUJSjLRgnsqw4DhQUCQAAIAAEgAASqEABl2aiuAp9lleYFXwEBIAAEgAAQAAL7igAoS1CWjRLYVx0GCgsEgAAQAAJAAAhUIQDKslFd1XqfJaJsw6durf/067O2+g+eKq0QvgICQAAIAAEgIBHg//Pm/b9ePbm0GFE38NemUoJw0UoCoCzbT1nSI1fevL59eDDo2MX/wYMwa0rNTJzsanBQaFY6rexUkBcQaBcC0L/apaYEO/dPfZH/vLH5QzOXnr5/kXOV/093e9XaPrQWlGX7KUvdwp3f7uWMJT/jENZ0XSkkcm7+3Srbjs2FQwufumS/2olAhDnb8cXkN32GEjurZIRik9mb/bqKyPWmI5tFLXxkbywLrJIOYryxZ4XsjV5NRRHKEtlvH4X//Fj84Uj25Ur6YWb8aJeWIc8JpA2Mb+QzPDHE+YYf5VK3BvWIcZ4h/5OOsM5/tZA66cYUY8xlZ9JGJW7IHIw/O9QfEf+PXjUzm14b6iD/W826zxcWfzgivUaK/yxapR6VcpENb1Y6sokLgUr9osotdX21e/oXwirmq7e6V79IL9W4+KemSBdkP7utXv9Z+2BdtTyMaVFn1BteFxn+T3TbZlyVbSfNap8Ic1TsC/XGW+3D09LfYrWmvhAev/jrT0f9oCwbFSr1Nv4G47eZskSUWu8ejAzFg07yT3rSC2HO0DUasOtxy5/rrZ8Nx/Hr756d9JSUFGGV52JhdsnOv1skLKUXLVaWpVnXci07MtZyYy1xauHTYDooFJu/uTCzccDThn/EV0vZPziOoCzHDho1FoM+FIzdzsfnDKKyXD8YX014DTQ1MHbgUmL21qAB06bCoemMEWFr742l5KUQi2n76fzoBKdkAPHirGQzl8MqTCPG1ndnOTZC/ttXUJbxlFlj0Qsvrvgv5C1oD0rW1hu+o/2iXmOU4jeFp6BU1Ck/ZbELL6wiIzzCGurkD5prn9JdPqo3o7r3Rp2wf0C4kvFVwmsp1y4ZV2XbSS32Vym+8BXhn7qp2XisOvmtpkJZ7nR9IfPynd/vHtSBstxUO9tW2W6I0E7KEmGtqXsk6HeZvcNlyhJr/cFIl5r6CO2v9coSDZz/189f9WxRlqz7XGFmsZN/N0kNC+nt4QuZ+SfLs+d7uo4tSj5LxBndxxKJh7n0o/Tokkslcev09V/Jzm8UMo8PTZ7s1rFF3wBjdB6ZnX2QSz3KjB8RfU68M2kx9VmP90x6/unywasjdosY3/5ZXnAUZb/tk3x44v/VZgKDN5ZSjw9NnvALvit26oDkVRLvuhrm+NLJpkMeKiqz58Rc4lFu4W5qOGsXIhfT7x5aXUqtH5r8tEsj+TawPB+SlC7+1T9+/9ednKOEpwSw7IKIFTnOmGJ02VTyiN//TW5oQHSeFe0pLy/JVI6/GL/oVyt9YqFoPPty0/0WP6gXDEN6e/eZ+bn1fOpBeizv2bb9y8YX8hXIZ54tJy7H7GZSj6h3LFWSKe90THj5IV6Wfxkr6WNZuTqWs6mTxHdOfJYvJiPL6ZFxteWT9EA2NscrS00ymfzEgRjfyNWZ0RtDBuKPX+4LV+vaSO8ffbLYG2RU0wdS13u1fHsWlOX4AY1kiXRRpR6lOLVcKKVjzMn3i2r1nilvt1X6haxtVdqbkj2K/Uuhv8vaT6pSuV/U3r8EZak6UO6cRjjM3nvFhcQnKzV/W/tVAmG63nBZaNUDlcpV17hapV4U+5HCOCxbX1XaiZL9pMpqHvcQ9rBfXmI8OhQ+Xaksd7q+UM/ZH99c6q9hcK5elfBtiwm0l7LUGSwdNKY1ri3KEmGNJRi168UneosJtlhZIkplzd55cy/XubWzOc4UplNG4V0ggDBrOXY4dW3I5jUZBgZG7+YEZYkw07GUTl4esHqNvA8pNxrX8o8HxvG3/NyZoNFm0Hi8A9/lJxJEwSBMGxZTme/GXAGTPtA1cDM/nRXFqzG3mLl7IBTr1LtdoSu5+dMeireK0hEvkfbggUplmbwWcwdMhnB45F5+bEpHTNXodQ6jLjGTXRu2Oozk2qwRfM8K6TDGXCZ9PeboMhl6ekYfLMeGBR+VPnC9kLwW8wRM+r7++Hp+dGJTVVTyESkZZq+9+evtk2OlPuAqTUg2HYTV3kv52DDbsZxN5MTVCMITpbK8yvyJ/dKM7RZlGYtnVwdNxPdm7r5aEJQlwqz15FLyfJ/Vb9IHA7HbuZGS8lYWQSm+YOforIE49jzO8JVc8gjvE+LUapKjwX+xcCDn4N1+WpqiEZbnX5mjSBhvlovqsPfcWB4Z59ubNjD+csYVic2eGuy9Gbf1xOZ5ZUmNTGbOdlG23qnPe0M34nbK0nN7IWCtqiwxYzicSl8ajd4+3N8rejfJY/V8IfM8n9nIJW8nYynxF4hglWw9KhWhSrhsOrL9onq9y7Rb5X4ha49SexN+AdbTT+X7u5L91XmimvuXoCy1L95on/2suXOXS/cJgwDCMe7pOltcaYcmrmmvZjFRlvWFy0LbNrCyfusfV8VxqWzcU+pHCMuPw5hiZMfDKuMnpphK+4Ui11MvHOJ/ossqy52uL+T79Onb7+c6xXUR29YXRNglBNpJWUrIypQlZQyF+2OBnuFgpMfaoUFbJZd01w5dtExZIjZx9d2fb3/77+uNryet2/vGETYGVwvDo0RwI8zYTkrK0hhczQ30io9qbWo+84WPH6k1vsuF+JzoD8OciuGEe3X+bwqjcbFvs719Qym7oCDJE/ScX7jG0XhmbVBfAp8an65UlvFZXk1SjCm/KKyiE+pFdjZH+KoiHWNwNR8bFgkYc9mFE7wPjFcwRdVFW08szx8lCmn7F6thi97N7SPLJYhYT/TpQZ+Bxn2jC38Xl1oKT/rK8vL1Ist/U4FhiilVlnhkMnstQmZ7iYQVlSUxlWWpouXmo0uCIqxWBLn4gp2xEf6HmUrvOXM4Pre51ARh1nW2ULrMkbdfhr9SvkL6mWd58nqZmy64WL6REJ/lyxm3xjlwLz9/pouKjAjKEgViyW961L2j08t2z4Wk3+yObkw7+aWZSlmQFq7xRB8V0lfInLgQDWGaMfE/VBwm4/DQ1JPloaEWPZ9k+0X1eldqt1X6RRkNpfYmKss6+ql8f1eyv8wMmY+19S+EGWzyUA4P5fBRw5+qn/5DNUTGiqKCNDLnflAfClYoy1rDZQyT68vbRuM51DWukn6tMA7I9COE5cdhybCy8VAIr72dSOng2upFil+hLFtRXwhreo4/f/P7/3559+fb9U9qmVmSDIaLj0ig7ZUlwlpLaNTTqacwQxv8gYE+E1fNvdF01q1TlpTe7Pa5fJHRzzf+9e18qYaTLRTCnT2384MDIg1JqSBs67tfyGzwT/pn+czzQvZ8QFCHmpnZhedLiW9mh0/FukctogLA5sitleiQDFUyy8bPbJIHgNXdPecq3QleNgIKTz7JJ6dfTGXP+CTLq4yMFenY+u4v9/eI9mhSyey5AK+MtyizUtukXHboAnXHkt8N6DCNNP7RjRm3htimVF4l/lsU2LN8+nlBWr1ACHxNVgiUKUvaFx65uZTiq7I0vlIxZeOX5pt+nk9+3WcqrkfkS1GpLOX5K2UqpD8+b9Y5TB294eHbh6MxyWc569EwHfFBX1CDekYWeJ8lMkem7sas07PjBzSdx9O90VD8wbC5qBcVczEERp8UsreiHXIaFGHGfPRw8hOH0u3NDS9te1K/qF7vUr8ovZfwV9jZVmmwUnsTV63U0U/l+7uS/ZWWNB6CMEMd/UFzbIBvgUXfpNaMOaZCWdK4tvDGrRJSqHdcVaoXnqfMOIYpRnYcluwvGw9Fq2puJ1I69V6UKcvS23euvpA9d++XpydGwx63z2UzMduNA6VWwfVHJND+ypJz+fu7hcV8ZC1/IO41Ky723wnQLVOWkvGo79xPW9dZSl+VXlQdAZeGRgV3Dv9uUguOXoRZzmm3T4S7c5PT6/mxacFnIP+kKXtilWYtXJeNgEojrBC5yhO0Ih15ZVOWftkTutK8JoZo0wvZ5/nUk1zqST7zIjfYTxylZfZISpp/osjwF+LzCoxUivPkYUlZcjOz2Qvd9FZliWh7//38VN7b4SyPL1s0pfhCvmNzJrIOweMMXlqaO2qXdsLJ+Szl+ctmWsmBic9kr/AqmfgsZ73FDU+bypL2DW9MhpYXBvpoXWZhOB9LFN3Aylmwlk8OJU/09HyXHz8gOsUR5jiLjin6dMkvkDNdUrmUkmpKuGzbq17vLVOWlQWs6F/y/V3J/soEPywEYQ22dEr7vnHqrvbsNL+esqgseRejjLKsLfzDrKq8q95xteo4IK8sZcdhyZKy+hLCq4yf0o0NXpQpy9bUF+o/988aHnYNFg1ubzqB9leWmq5gf7dWmF/DnJEoy5YuuGy9ssTj1355+Zl3u19vCBtDirPhK7GoOE1M6Q3aDjJLiLBKG3Qa9KIv0LCUSZ/28OHC7BhZy4gphhscHF50SrPhks+ysmmWjYDCCLtlVoifxRZuJJtU5E4dIquLymfVK2bD+dOUykZw2ad7pZEkpM5ZobJEEFZ7Lq5MLJg11g6NtcN58nBimWzPVyovP5smy3+Lz1XyMfMKPjt/3MmnuTkbjgyhiZdzXUbBP0pbi6sdysyTPirFF+wUZ8MF2t/0SL5nOWUpz1/KqOyirF7wcDyz2q/FND8bLqcssbX37sHxi/NBJ01PTE9fnUufIas1ypIt/YhsPVNP57osNDsyuXB/rJOftUDYObB+uDco8jEfOfRRfJaSnTXWe1m7rdIvpJSFC6X2Vv8vQPn+rmR/mRkyH2vrXwgPcY9/4ILCrzKGOvqy6LOs2MFzcU5+B0/VcBnDPnQ2vM5xtWI2XFy9I9+PlMZhyf6y8VAIr72dSOnUO+5VKMtW1BeyrTx4vzbd2nnITUQf1ELgdkwx7aQsyWjC1/TmOksSYnT0jvnsHTTFssbu7oFeY3FHc2squPXKUpv8/rf7ue3nBzHbKe7gMZIdPHekdZZMx3I6/e2I02/Udweit/LxWWGnjsZ7MZ84FeiwGTQuV+RaPrHUyasZ2nBI2sHjH1zLz6Q3d/BUKkuEWdZU3MHzXdTMn/nCMrTw5Jvnd/DoQ+GR+/mxKTIrKryQPzq3kQgGec+ZSVC6SumU7SBZikXJTp0yBVP2hJYyKruQVrJvq9TLbpQ+ItodfZIOOUXpQ49PZ64RZaZUXrITQp6/vLKkDK7+73Mj0yZ+Dw3ZwTN1yMqpGUTZ+x/kJ3Meg8NkGo2N3VmWfJySbaUXSvEFO8UdPA6b/8Ly/Em3uHaWUK2cDZfnX5pX6bWQvnDqkC7Q1b+6kijYyOoFJZ8l1vmvHU4+mHGpaBQZmXuanyvYShMsu0ZY4zizdJD3syLKFFrNT6eMvPJQ2T9bWrg6aPOaOoYG4o8PD/S1bp2lXL+oqd7L2m1lvygrvvRRqb0pKUvlfirf35XarWSA7EXt/QthHX36lebqJ7TXR0WPqp/8wPUJcybSqUNeqoecOqSaE35l1Rcua94HBKK6x1XSryvHvYodPNI4pjQOy4+HQhFqbydi/OLOqm3HPYQ5bOHXv05c0KxfoMlC2E6+f7WivhA1dfndq4K32g/LD6hEuGWnCbSXsjQ6++J90UnpFbCToYfSOJzBkcjgeCjS02kQJ3Z3GpyUfuuVJTP97bt/XI4atnfNIoMjcjE7/zSXuNDnP755UjpSmTzHDyYe5VIPyWk10uk8lDMweG1xYaOQeXJ4+stekzRTyRpdRxMk/qPMxNEubVG7lz0FBSbkJMK7m0fk8KfVHOrxi0prJB0YurGULjl1qHiX3nE8mdwgN2bPkllLpXSIiJROHbq3MJy2F9eDblFmsrZJtSZd1H76hnRL2QUZ09fHrMWTm5C1d+b5NFFFwp5oufLK8hfjV5w65Ph8pexUpsUfjozPEDHNRQZG15bST5dnzoS9RzdPlSqzUPooG1/IVzzvaWN59uKQtWNzHK9Ulkr8pVzKLqT0sy8L6fXFyVMhg7AOVVFZMs4v8tlHI2ZMI1vv9MuSXWXF3yGlWVD+ocTThIf33WKKYaLx+fUpp3A6ks7q/zx5cD03fycZTXQK7aT03sprhNnxK3+8W8sI0yCVEWoJUWp7tdR72b0Il/cLJQOqtLeyNIUUqvUvhf4ua7+SPWIuNZ9uQ9qVLsz87Y7m8c+au3dUB4OSo5qciH76tmb9tXb9sWplQtq1Vm84//uzCfVb17hapV5kxzHyRJMbh6vUF1+uWttJvfVCTh26ueUEe+0PV2lht/gO1xfCjMpz5M77H490bY5IxdbbhHqs3nTh20YItJOybKScO3dv65Ul4sKH117/8v6/z9vqf8OFEXZ4bHtBvHOV1cqUm1Vex+fkP2lKLbeezAnKsjQQrptCAGHfyi0fTHUAACAASURBVNO/1o/6m5LaTiSCugYTwkb7zfe4g/znEPlltX/614exbX39Qr18aE1Z0rf+7937908uJjqLv9ulpFpfj1LWcFELAVCW4mxsLbBk47ReWQq/vLkOh20X/294JSthhJV2KlRG2GMhzSqv9Uh2aGTLNK4ll46ObR7Vuce4fdziIPbA1+/enS2uQv64xsjmjliNRjj2dfNdx+/u2uKzl70XAltfv80aB/Zb3ZH/Dbd6Og1bflRLEFpfj1LWcFELAVCWbaksa6na3RZnD4+wWktH6vai1kKOgZSuEdZHVguZh9my8NI4O3StVPWSbS3OV8meXRiOfCc23n8/W1wHsgstVDJpD/cvpSJ/QHjr6xfq5QOqadtbWl+P25oEEUoJgLIEZdkogdL2tA+vbWFX6vbi7nlXqoKdtlApXwgHAkAACACBfUUAlGWjuuqjzIbvqza6ywtb6a3cIY9gjR5HJVw7badSvhAOBIAAEAAC+4oAKEtQlo0S2FcdBgoLBIAAEAACQAAIVCEAyrJRXQU+yyrNC74CAkAACAABIAAE9hUBUJagLBslsK86DBQWCAABIAAEgAAQqEIAlGWjugp8llWaF3wFBIAAEAACQAAI7CsCoCxBWTZKYF91GCgsEAACQAAIAAEgUIUAKMtGdVWpzxKp5/7+7s+35PXkkL38D6mqVAN8BQSAABAAAkAACACBPUAAlGVTlSVlMLt9Lt/K2u/Plx2gLBtluwc6GBQBCAABIAAEgMC+IgDKslH1U+qzFJoO4uaug7KkGgW7r/ohFBYIAAEgAASAwN4g0GbKElFqvXswMhQPOsk/6ZF/0KasnqF47+BED//qHYoHXeJXrakhUJat4Qy5AAEgAASAABAAArufQDspS4S1pu6RoN9l9g5vVZZ9JoZMPSOssYTGPSZVK7mDsmwlbcgLCAABIAAEgAAQ2M0E2ktZ6gyWDhrTGleJssQ6vbVTRfHKUuML9od0/HXLoIOybBlqyAgIAAEgAASAABDY5QTaSVlKKEuVpRSIMKNxDYfcRoxbunUGlKVUBXABBIAAEAACQAAI7HMCe0hZUhZXf8yqaamsxBQDynKfdyEoPhAAAkAACAABICAR2DvKkjZFesJutrUOS1CWUkuCCyAABIAAEAACQAAI7BFlibDK1D3h69S0vkbBZ9l65pAjEAACQAAIAAEgsDsJtJOyRJhG/ElDm+ssix5KpPIEBns6+B3iLQYNyrLFwCE7IAAEgAAQAAJAYNcSaC9laXT2xfuik9IrYNcJZFWOaMTX2eK9O0LWoCx3beMGw4AAEAACQAAIAIEWE2gnZdliNDVmV6ospf8Nfwf/wQP/wQMEgAAQAAJAAAjsPwKgLBv9E8ItylL433C3z+V26NhW71KvUQpDNCAABIAAEAACQAAI7BABUJbNVJY7VEmQLBAAAkAACAABIAAE2oIAKEtQlo0SaIuGDkYCASAABIAAEAACLSAAyrJRXVU6G96CCoMsgAAQAAJAAAgAASCwawmAsgRl2SiBXdu4wTAgAASAABAAAkCgxQRAWTaqq8Bn2eImC9kBASAABIAAEAACu5YAKEtQlo0S2LWNGwwDAkAACAABIAAEWkwAlGWjugp8li1uspAdEAACQAAIAAEgsGsJgLIEZdkogV3buMEwIAAEgAAQAAJAoMUEQFk2qqvAZ9niJgvZAQEgAASAABAAAruWAChLUJaNEti1jRsMAwJAAAgAASAABFpMAJRlo7oKfJYtbrKQHRAAAkAACAABILBrCbSZskSUWu8ejAzFg84OiSlizbbgcGRwIhSJWLScFN6aC1CWreEMuQABIAAEgAAQAAK7n0A7KUuEtabukaDfZfYOS8oSYbU5OO53mGiKZU2hUH9IR9Gt5A7KspW0IS8gAASAABAAAkBgNxNoL2WpM1g6aExrXKXK0uToH+pUETWJsNk5MGjhQFk2OsW/m5ss2AYEgAAQAAJAAAjsWgLtpCwliFuVJWfwDfudJobmOHM4GPGpwWdJgbIEAkAACAABIAAEgMBHIND2ypLITZXd3TPRF53sHRiyG2Cd5UdoRpLohwsgAASAABAAAkBgPxNoe2WJKKO9d9ht1lEUw+g8Xf39JpgNB58lEAACQAAIAAEgAAQ+BoH2V5Yab3dftxYL6yw5YyDuMbOt/K0AO3haSRvyAgJAAAgAASAABHYzgXZSlgjTiFffm+ssMY3oTlf/yKbPciDaqYEdPDAhDgSAABAAAkAACACBj0CgvZSl0dkX74tOSq+AXYf5SXB3eCQyOBHu7XOYdZj3X7ZMzoPPsmWoISMgAASAABAAAkBglxNoJ2W5O1GCstyd9QJWAQEgAASAABAAAq0nAMqyUUcxKMvWt1rIEQgAASAABIAAENidBEBZgrJslMDubNlgFRAAAkAACAABINB6AqAsG9VV4LNsfauFHIEAEAACQAAIAIHdSQCUJSjLRgnszpYNVgEBIAAEgAAQAAKtJwDKslFdBT7L1rdayBEIAAEgAASAABDYnQRAWYKybJTA7mzZYBUQAAJAAAgAASDQegKgLBvVVeCzbH2rhRyBABAAAkAACACB3UkAlCUoy0YJ7M6WDVYBASAABIAAEAACrScAyrJRXQU+y9a3WsgRCAABIAAEgAAQ2J0EQFmCsmyUwO5s2WAVEAACQAAIAAEg0HoCoCwb1VVlPkuEVaHcrbWLBzt35u/Ldzr91jdByHHnCKjc8dy5748M0TuXBaQMBIAAEAACQKCUACjLpitL7ej5n396eNS7U8pyZ9MvbRzbXiNNMHnh0fPXv795/ePal0kX+/EVDIpf/+3pp66dgV8FSO35IuxYfvTXtVl1ldQqv6o9felew8Bn916/uXkqFTB8/HqRrIILIAAEgAAQ2NsE2kxZIkqtdw9GhuJBZ8dmxaisjuBwZHA8HOm1GTW4taqizGe5aRXVqGbd5UkhzIRP/+s/6+fjYZ87kjj75I/1I4GPbvMHKLCm2Fx7vq1Rlkgbv/T63Y2ko8XdoSkwIREgAASAABBoXwLtpCwR1pq6R4J+l9k7LClLhA3WyKjP3kFTLGvs7h4cMHMt9dCUKsvRS3++/+P/vf/j//32+BN7UeAKSuLvhdTFJ2/f/Pv1na8SNppYiJxH139/nO0UraWHL79+fWlA+EodmLuw/vz1+9c/vrh6JGooJiWbPkmK9U7+7e7Gz+/fvP7xuy8SzqLvEKl8s18+ePH693+/fnX9+JiRaiYZhF259b++mdUIrV8XWViKdwk6RjZfJQ7EfgU7Q6d+fnNpJfnNq59/effy3oUxmyjWkWEwd23j1b9/f/Pzq9XTk518ubTJ7wX40vtv95aNPDqkwFMpfaX+LJtOtXzl6qVeDtXSl+MgGK85uPbLy9NdTa1xJSwQDgSAABAAAkBAItBeylJnsHTQmNa4SpSlxtvd360VBATmjIG416KSiteCi1JlyRnsVqvDeehOpbL86f7Zg5GAN3b8+zd/XE+YiJzC/qPP/7c6L1wzvV+8eX0pTmMaYTZ48h//WT87EezyDeW//fnXy5Oig1Yhfcb3ycu3G5cPRPyeyNyXG3+sF4jvEGE28Omrf94+EQv4PP3Zy6/e35izVAGCcOTEyz/fvit5XU1QRVFbeSPCweMv/3txvFytKuUrKCo5Dop2hk79/PYfd47EI56u0SO3f/v58hRL+KhiF3/9cfVoLOz39KYvv/r97zxPrLO53D5Xdu23F+eibh+5tnZQVXnKpl9ZUiFEsV4U81WqFzIbXgcHxfQVOPDO8tCpn/9zKa5UFggHAkAACAABILBDBNpJWUoItipLX3CLspxwGVs6DV2qLAUL2dnvKpXl94dsvNpjol/9+s8zUSFm98mf3v79IEfUT+jTH/64PEn8fwh7V5783+VJrhjnn6+/GpPKjimmIn3b4Qd/3ZjTC3F0sWMXc1E+Te/Kk/dno6Lyc+Q3frl6oMrcKMJqg4MXZIIsc/tcFjHN0tyla0lZMtPXRT16M60hZZHPV1CWlRyU4mOKCZ36+d2NJMurW3ri7788P+XhrylWTfPOXUwxfWf+8+MXg5tWVayzrMJTKX0ptdKLKumQWpPJV6leiLKsi4Ns+phiqnDoP/u2FEtpQeAaCAABIAAEgMDOEWh/ZUmZHH1jPruRpjkyG94fMTDlXrSdw4cppkZlKe3YIDOwF8ZFk3rO/uM/12IsjdyfrL9bm9YSyxHuP/3Pd2eK+3ntuae/fTvPlPgOK5Slku+w//Q///pV8kH+9r/fvl0QVFpTgEjKEmuJs7Dn+MZva1ktUZby+QrKspKDUnxBWUqskCOeOzxq5jmogrlrG/958yvvXn3/1+uvRqUSySk8RZ6ldVGavpRa6UX1epHLV6letuzgkWyowkFJWVbhMPDlL6AsS6sProEAEAACQKA1BNpeWRLPjc7tCY9G+oe7+yYCTgMqEWEtgNiIskRU9OzPb78YYDoPr/+6ltHxlldXMHI+SyUF03/6n2+/milxQ3YaqvosG5oNNx969NtalvdZyudbVVnK2ymprtJ6RPTgFz/9ce+zqYCXFG3q4r+boixLs5C9rl4vTVKW8hxklWV1Dn1n/iO5xmWLA4FAAAgAASAABHaCwF5QlgIXpHJ19YZ0xUnSnYAlm2ZDyhJzsQu/Pj85Ovfdf29lrWJBZGbDN31ycspSmHU1CLcbxk5fOzpSnA3/v0sT4qw62+FymHWyRSjmW+9s+JYdPMFT/3pzcYL3uZLZ/Mp8lZWlfPwyn6VkOTIe/v739YxZ8O8ysYu/bVGWE38vO3VIbhZb5CmrXKWMyi6qpENKLZOvUr0o+SwVOcinX5WD95NXv16fa6KLuowGfAQCQAAIAAEgIEugnZQlwjTidydsrrMsuicR1hgDo75OcZ+ybFF3KFBSlgirdJ0OcQfPxhc9VofVatOxtJKiEuxh49/8+/HD7//zZNEqTuILO0X+vX52vLiD59IE2cGjnD7j++SHtxuXZyJdnkjy/PM/11f8fHy2+9NX/3n81WTY5+lZuPjyz1tZexMhiKcOPT4fD3X5okduvv61aKd8vkocEJaPr6gsqcEv/vXHvVOTfndXZObM6qt3W5Rl+ItXvz7I9/rJDh5+nagST6X0lRBVSYfQlslXqV6UlKUiB/n0q3KgBy/89J/VuK6lK0OU0EE4EAACQAAI7B8C7aUsjc6+eF90UnoF7KITjjZFwj1d6o9xxkqJsuw99eNf0pE35Oyh31+fDG+jLJH6wLVf//rtyTFHUSUTGcGfkvPi9fvXP734emVQL86Sy6dP4nO+6TP3n70mpw6tnSk5dUjtP3j+ITnJ/OdXq59NWZvt0EWa4PzF9Rev37/56cXX+SHpdCQkl6+SsuTLK2+nkk/RMHDixvO3//71l/VvlufP/LxFWWLbxLknP/36P8L/+hwtoJPjWa+yVKoXYbBAsvnK1csHcCBZy6VfjQPlPnTv/atrKXvxCKr9M6hBSYEAEAACQOAjEmgnZfkRMVXJWlKWVeLAV21EAIU+ey5texIvrsebLcpbAATpevPfv33z6m7WD57Llp4X0YLKhSyAABAAAruWACjLRh85oCx3beP+MMMQZ7JJ5y6JFzZ1iUf5w5L9KHchrLH2zUXdoCwb7eYfpfogUyAABIBAOxIAZdnoIweUZTu2e7AZCAABIAAEgAAQ2AkCoCxBWTZKYCfaJaQJBIAAEAACQAAItCMBUJaN6irwWbZjuwebgQAQAAJAAAgAgZ0gAMoSlGWjBHaiXUKaQAAIAAEgAASAQDsSAGXZqK4Cn2U7tnuwGQgAASAABIAAENgJAqAsQVk2SmAn2iWkCQSAABAAAkAACLQjAVCWjeoq8Fm2Y7sHm4EAEAACQAAIAIGdIADKEpRlowR2ol1CmkAACAABIAAEgEA7EgBl2aiuAp9lO7Z7sBkIAAEgAASAABDYCQKgLPeIskSY9lvYS07G1J7/FrMTjRvSBAJAAAgAASAABFpMAJRlmylLhJmYnbsb5l72qF50s11FHYkwPeDgHvhYVzGk10HikGgRdpTa1f/vh7Cm60ohkXPz71apDyC12XtyLrGeW7iXGs7auWLRMMWg2GT2Zr+uJES6q+wCYX3gemFknC0Lr/6x9vSrpyN9ay4cWvjUJX1ElN5xLDn3ZGXxhyPZuzEjXxAlDtJdcAEEgAAQAAJAYJcTaDdlqbY6g7HwwFg40tOpV4lw1TYxMNzbaVC3mHiLZ8ORilmNcIc0jIWlLSxNK0srliERLFrmZhsoS5XnYmF2yc6/W4QaRJgx5rLp6zFHl8nQ0zP6cDka00iVW7vy26XK0tF34MV8OGjUWPQakxqLylKGg1RkuAACQAAIAAEgsPsJtJOyRFjbGR7z2Qw0xbKmULA/pKNohLWW0GiXrYOhWM7Y3d0X1tMt9c+1Wlmqme/DbN9WQTnoLLon/Uzn1q8Qx96oUJaIoifs7K0g9yTEnbMyBlHW0PNd3JcW9pSfexxirzoYS9HTiRhmwcXeCXGPg+xXNnHCHWnYO13sipd72MVEDOTbSxZGULqy6VfpDAiz7nOFmcVO/t0kxCSK8O+bvkZT4VDyEwemGHbqwOIPR0pf2athwZ2JGKPzyOzsg1zqUWb8SJeWIS1BVJaZ7qHVpdT6oclPuzTFFoI4o/tYIvEwl36UHl1yqfjyVklftgjF9AODN5ZSjw9NnvAL+ZKs9fbwhcz8k+XZ8z1dxxa3+Cx9g4lnE9ayypLjIJspBAIBIAAEgAAQ2J0E2kpZUh1mr0vDP/4RNjr7o51qGlFWz1Bvhxio6wwP27R7U1kiHfsgzG2EuRcR8k5eAdbHSxOWJu5Jm5l9UYOyRJj2WtkHXrZPTTu1zOfd3DmjoMCIsnzgY+Ia2qVjroS4cx1ieJ+Tve9h+zS0Q8N8HuC+FOJr2Dsh9qCGXu7iVm2Mp4N9EGIimFZOP3Li5Z9v35W8riaoorRynClMp4zCu9BVEDZHbq1Eh8TaNBxOZz73kq80ep3DqEvMZNeGrQ4juTZrMJ+vYTGV+W7MFTDpA10DN/PTWSJSBeWXvBbzBEz6vv74en50gvg+EWY6ltLJywNWr1EfCsZu50bj2irpK3VgKX13wGQIh0fu5cemdHz6rOXY4dS1IZvXZBgYGL2bE5Ql6hlJPstnNlayL1fSz/KZZ/nMrSFhNhxTTCUHpXwhHAgAASAABIDALiTQTsqyFB/i3P7BHgNNI9ruHYoUvW4aS2jUrtujypKirSrGpmfvhtlpFWNTMTaOZorKDFMM01GjsmQyfu5YkZLVwj5zMYIym+/irpjJwlOE6T4H+8AukqQomi76L0N27j4fTnyWAdaL6aCdaFBEM5ci7DDxIiulrzY4fC53ycuiL63TsmtFZUnxFlass0RY5/+mMBoX10iwvX1DKTtFFCdZZxk/SPJCmLZ+ujx/1M5fG4OruYFesYza1HzmC58wK02+rUi/zDzpo5j+LFGTmGJM+cXUSXcx/cLwKFnfiTBjO1lUliqt1mHURUfnNqa9gjK2aiSFLSULF0AACAABIAAE2pFAWypLROnM3aMBh4HoIUFZUiZHT79FvZeVpdC8kNxsuPBV7cqyEOSeCV5PwQnqYRje5zffxZ3l/ZSYYrps3GOHqLo4NXPWzz3mIz8Nc+sOXtspK0vZ9OvtHvUryy0+Tik7QflJO3iMucXUSbKTBmFb3/1CZoP3Gj7LZ54XsucDksKrV1lK6esXU9kzPj79zp7b+cEBkWH5Dh652XDJZrgAAkAACAABINCmBNpPWSKs6fANh7rsLO+u2z8+S6GFNUtZnujgvZ6C75OlJZ9lpbJEFHM0yH1jY7x85BFHTcpSLv1qs+GV/aclynJpaJSfTxd8hyY1KvqAQVlW1giEAAEgAASAABDYlkCbKUuEOZ07Ggo4hc0WxDNUsc5yr86GC3XZFGWZ8XOn9aIvjWFoq7jThayzlFGWDHM5ws6yJD6ZJXdurywV0q93NnzLDh5zcQePyCEaLzt1qDgbLh4OwA0ODi86pdlwyadY4rM0BldXYlHif8UUQ+kN2o7iaQMUgyrSl/oSpdWxnEiPZ8LPtpfOhp8QfKLG0KrMbLhoP/gseewSVbgAAkAACACBvUGgnZQlwqzGMRgOetXFvb38c53sDfdJe8P7I4aSb1tQSR99bzjCtJY/gYjfwcMGyTUj7HPilTfzZZj7rIM/gYhl1GQdJNnB88TPDpMdOeypAHfZJKpGeWWJic/ymo3xqOhAB/tVYFtlKZ9+vXUhnTpk9xkNkcjog62nDvmjcxuJYNBEdvCYiCJEmDYcknbw+AfX8jPpzR08csqS6VhOp78dcfqN+u5A9FY+Pru57hNVpC/Yj/RdI08KmdU+veTd5Ndxzl+LuQMmfSg8cj8/NkV2AiHMdoo7eIxkB88dcZ2lmA4oS1CWQAAIAAEgsBcJtJeyNLsG471DEz2D4svNb1LG5DzL4fDgRLinz7bnz7OsWGeJMJ3vFk8dko5Gz2lEpxrCtMvErga55xGyqTyt4kUkRU86yKlDwilCwulCCMv7LDHF6LTseT/3JMytuphp+zbKkpezMunXqyxJOhqL79TcwfVc6n5q5JBzy0npWO84nkxuFMhJ42e7xPMgWaPraCLxiJw6NHG0Syv6WbeclC75LEn6KpPn+EES/2F6LO+RTiPidaFM+rxJ7oHbueTFkGarshxJB4ZuLKXLTh0yOCIXs/NPc4kLff7jW09Kr1NZIsyOX/nj3VpGW8z3A3jCLUAACAABIAAEdppAOynLnWbxYem32Gf5YUbCXTtHQNghNDxW33/81GsPwr6Vp3+tH/XXeyPEBwJAAAgAASDQSgKgLMVldh8MHZTlB6PbGzeW7T3foUIh9sDX796dLa4K3aFcIFkgAASAABAAAg0SAGUJyrJRAg02wSq3ay0dqduLWksHppjdcC1raouUpe/ExvvvZ1v7LwCy5YVAIAAEgAAQAAJVCICybFRXgc+ySvNq5Ctb2JW6vbh73hspC9wLBIAAEAACQGCfEABlCcqyUQI71FV2lbdS8JvuUEkhWSAABIAAEAACe4YAKMtGdRX4LPdMZ4CCAAEgAASAABAAAg0SAGUJyrJRAg02QbgdCAABIAAEgAAQ2DMEQFk2qqvAZ7lnOgMUBAgAASAABIAAEGiQAChLUJaNEmiwCcLtQAAIAAEgAASAwJ4hAMqyUV0FPss90xmgIEAACAABIAAEgECDBEBZgrJslECDTRBuBwJAAAgAASAABPYMAVCWjeqqXe6zRJj2W9hLTsYE/zdNNVrXe6bbQ0GAABAAAkAACOwQAVCWjaqNj64sex3cyx7Vyx7Viwg7StFlDQVhesDBPfCxrsaUJdKzL/ysrbFEymxr+keENV1XComcm3+3Sukj1ug6mkg8zKUeZsaPeDVsOSUpZgsuEGbd5wuLPxyRXtmrYa6pYJU4tKB0kAUQAAJAAAjscwLtpizVVmcwFh4YC0d6OvUqofIQpda7ByND8aCT/A1gi18fXVmyDG1haYuWuSmnLJtFo02UpcpzsTC7ZOffLVLZ9dlUem3MHTDpA/6htfzUglH6qvUXgrKcXrJpLHrx1aHCTVaW8hxaX1jIEQgAASAABPYbgXZSlghrO8NjPpuBpljWFAr2h3QUjbDW1D0S9LvM3uE9rywRxQzb2LUg9zjEXrIzthIPJeLYGxXKctBZdGf6mc4S7YIoesLO3gpyT0LcOStj4L9CmJ7v4r60sKf8JP2rDsbCp68xsoJPVHp/4RNvke0tSulgikEMs+Bi74S4x0H2K5s4QY807J0udsXLPexiIgby7SULQwsmydkpm6kQSETbucLMYif/bioGqn2XCxMHNMJH1cT49BEPhWn+/75XokPEf4mMwfizwsKnLvGWaDz7ctOtKIQrxS/733Bz4ZCUjpBa2bugLCeT+rJwYkZoOFmSb/ZuzChwUJk9J+YSj3ILd1PDWbvg4BTzzQQGbyylHh+aPOHXMqIvVpZDZXYQAgSAABAAAkCg6QTaSllSHWavS8PLHYSNzv5op5pGWGewdNCY1rj2uLJEmHZ1cht+ZlxDO7TMcT93o3NzVldWWbI0cWfazOyLEmWJMO21sg+8bJ+admqZz7u5c0ZeXfHK8oGPiWtol465EuLOdfDp04xNxdhM7IsA26firzmGKtGpZY1SUJaV6SBM9znZ+x62T0M7NMznAe5LIV8NeyfEHtTQy13cqo3xdLAPQkyEKD8lOyMnXv759l3J62pCssdxpjCdMgrvgmFlyk+yVlKKCNOGpXTy0dKmIhyZzK7FLLxP0XHicJmyLItfln6jynJ9wiH5Mk1qTDgwxlwmfT3m6DIZenpGHyzHhtVEhmJ94HoheS3mDpgM4fDIvfzYlE4qXSUH6Su4AAJAAAgAASCwcwTaSVmWUkCc2z/YY6A3pdV+UJZJn6gCMcVodcwpC80WFZ6sshSIMR1lypLJ+LljOhGd1cI+czG8giE+yytmspyAqEAH+8C+ibf22XBBWcqmQ1E0XfSzhuzcfT594rMMsF5MB+1EyyKauRRhh4k3WslOtcHhc7lLXhYZ/5/UWsqU39Zw4rNEnCv64GDf8dSmshybyn7bp+HZSkpxU4lujV+WvhRfyqjsQvBZZp+vZJ7l+VducEDkTHyWD0fMxToVbkTYGFzNx4bFZR7GXHbhBPGtCvnGZ0U1acovpk66y/KCj0AACAABIAAEWkygLZUlonTm7tGAw1C6Om0fKEtmKcCdMmyqvdK2UpeyLAS5Z2Fuo/h64WEY3kc438WdFfyUFNNl4x47NvOqV1nKpsOpmbN+7jGf79Mwt+7gVayyspS1s7TUtVyXKT/pFkkpqg4kkqc9psNpSVnSE9PZ671KyrIsvpB+USbm0883Z9WlvEovBGU5s+zQOYzCS6WqrixtffeX+3vETuOj7gAAIABJREFUOJpUMnsuwP8SID7LkXFWSFy/mMqe8ZVmBNdAAAgAASAABFpPoP2UJcKaDt9wqMsuuesEaqAsK9dZCmQqfZaFIHeig5/XFma3WVryWcoqQuIhq3lvuOCzrEwHUczRIPeNjfHymY44alKWcnZWmw2v7EJVlWV+aMgcXstGfIyhRFmyUweyVyMqGZ+lTHwh/fF5syATnSfF2fNKS4SQbdZZyvgsQVm2elueUt1BOBAAAkAACGxLoM2UJcKczh0NBZyq4qSqVMJ9oCzp0tlwnZ4508lI8roun2XGz53Wiz4whqGt/M4PJUUoEG6CsmSYyxF2lj/xh19zub2yVLCz3tlwsoNnfHMHz8TMJ9IOnlz06Fjy67Aa06XKUrOQzJ4PCGs3pdltXkHKxC9TrlJ8qWWWXdSvLCtmw/mdRkK+W2bD+VnysuzgIxAAAkAACACBVhJoJ2WJMKtxDIaDXnXJ8kqEacSfNLSpLLcuU9tpmi07dYjs4LGSHTxj/A6YE37uhqVktppivgxzn3XwJxCxjJqsU6S1rLSDhw2Sa0bDh3ut7BM/O0zSYU8FuMsmks42ylLD3gmzaQ1NdvNUPQ9SKR2Eic/ymo3xqOhAB/tVYFtlSXbwVNr5ARVqyKYy3425pFOHUuTUIUEpJh8tRaPk+CpJWdIme/hafmZR3FouKUWl+B+mLGVPHVJYZ1m2g2cpFiX73IV85/kdPPpQeOR+fmxK+wFw4BYgAASAABAAAk0k0F7K0uwajPcOTfQMii+3kSabxPvifdFJ6RWwb+6QbSIppaRapiyJmKCYUTu3FpI7dQjTLhO7GuSeR7gXES6tIsoy3y2eOiQdpZ7T8CKSoicd5NQh4fQf4XQhJUUoFBxhJupgH4RJgi/c2+8Nr5wNxxSj07Ln/dyTMLfqYqbt2yhLvrwydipVRJVwclL6J4nEo1zqUWbiaJdW9JuSdYrZ76MdvP9bUpbOz3OJSwPm4g6nrcpSJv6HKUvpmPTFH45IJ6XLKkvCQTp16N7CcFpcByLmmw4M3VhKbz11qBoKzI5f+ePdWkbb2h9gVUyCr4AAEAACQGAvEWgnZbk7ubdSWe4qAkjD3CruASpuBmJjFasUdpXNe8kYQVkOj4k7eGosGsK+lad/rR/11xgfogEBIAAEgAAQqIsAKMtGNwfsX2VJ0RZhA1DJu7Drpa4mCJE/jECZr7TGRBB74Ot3785GG232NWYH0YAAEAACQGC/EQBl2egjdt8qyzbqKlpLR+r2otZC/vyzlddKiJpiA8L6yGoh8zBbWS6lfMnEuu/ExvvvZ7WbK3SrRIavgAAQAAJAAAjUSwCUJSjLRgnU2+ZaHN8WdqVuL7b+XamYO22JUr4QDgSAABAAAkCgBQRAWTaqq8Bn2YJm2kgWH8VbKfgRZc3eaXtkM4VAIAAEgAAQAAKtIQDKEpRlowRa01IhFyAABIAAEAACQGD3EwBl2aiuAp/l7m/lYCEQAAJAAAgAASDQGgKgLEFZNkqgNS0VcgECQAAIAAEgAAR2PwFQlo3qKvBZ7v5WDhYCASAABIAAEAACrSEAyhKUZaMEWtNSIRcgAASAABAAAkBg9xMAZdmorgKf5e5v5WAhEAACQAAIAAEg0BoCoCz3uLJEmPZb2EtOxgT/E001Wtet6ZOQCxAAAkAACACB9iUAyrJRtfHRfZa9Du5lj+plj+pFhB2t+NtuhOkBB/fAx7oaU5ZIz77ws7bGEintJ912dt0hA18pvPTenb5GWNN1pZDIufl3a3OzQ1jvv1ZY/OGI9EoesTc3i7ZIDThsW00Is5rY6MzTQvbBsLmk6yFtp/9UMrGeS91Pjy671LT4j0o72m63tRYiAAEgAAQEAu2mLNVWZzAWHhgLR3o69SqxFmUDW+Wg+ujKkmVoC0tbtMxNOWXZrIa+z5SlynOxMLtk598tzWIopCMoqviCWWPRayx65+ml/awsgYNS60KYMy4kkk8z0ROzCyXKEmHOeuLwwrUhR5fJ0BMeuZufmNUXm9YOtlslOyEcCAABIFBGoJ2UJcLazvCYz2agKZY1hYL9IR1FywaWFXJHP7ZSWSKKGbaxa0HucYi9ZGdsJR5KxLE3KpTloLPozvQznaU+D4qesLO3gtyTEHfOyhj4rxCm57u4Ly3sKT9J/6qDsfDpa4ys4BOV3l/4xFuUwCKGWXCxd0Lc4yD7lW1zIh4x9GEP+yjMrXmYhGPTZ6kU3mXjHjuZKTf3KMzd9rFDXNE3I2c/MYZlPvGRyM+I/axD4qMUrvDzA2HWfa4ws9jJv5ukYqLQcPLlprsxezdmLKEqRat+ISjL0Sm1EM1ybFlSlogzuo8lEg9z6Ufp0SWXircfYX3gemEkExi8sZR6fGjyhF/LEA5IGxh/WVg47aEwjajOnu9XMrcGhaq0f5ZPLHdWN2Pbb5GlZ/rFvN8iMqf6xxYejVp49xiKxrMlHBY+dW2bWmUEJQ5K+SJ/dI4Hbi4cGp1SI11w4uW0g7fH8fnK7GEzYYIZbXIufStm4mie20p0iGdlDMafFQQ7RZ7jrGCSuXBIsh/p7d1n5ufW86kH6bG8Ry21H4V2UlkoIaSMT/ygqPyU4suGI2wMnJ30elSk1W1Rltbeu0t9IbFeNMlk9nyAEruwfLuVTR8CgQAQAAI7RKCtlCXVYfa6NOLj1ujsj3aqaSQXuEOwZJNtmbJEmHZ1cht+ZlxDO7TMcT93o1N8upBnqpyyZGnizrSZ2RclyhJh2mtlH3jZPjXt1DKfd3PnjPzTl1eWD3xMXEO7dMyVEHeug0+fZmwqxmZiXwTYPhV/zTHCk0wWCMJ0n5O972H7NLRDw3we4L4sph+xc499bL+aduvZ892cMBuOMC0bjimmy8ZtdLOLesahYha93CMnw2K6iv0xF3fXxXRxdKeaOebnLpvEcimER068/PPtu5LX1YRULseZwnTKKLxLxSTP+PUJB+9rJB5Hkxo3T1kizHQspZOXB6xeoz4UjN3Ojca1vFoiyjJ5LeYOmAzh8Mi9/NiUTlSWT9IHvpt0qGgcis1cnZttrrLE+sA3hcl5g6DYLMeWksedYnlHJrNrMQvPwXHisKTMJFC1XCgqS4V8kX/o4LbK0hqeeJLtDXFFbkRZIkwbltLJR0vVlSXCrPXkUvJ8n9Vv0gcDsdu5kQlNLQWpjINi8ezqoInwMXdfLXyosmSxoOPLlaVr8Ek66BL7Pj0xnb0a5ortULbdVloIIUAACACBnSPQTsqylALi3P7BHkNxgZHwlWxg6V07cd1KZZn0iSoQU4xWx5yy0GzxiSKrLIXyMh1lypLJ+LljOvHJZLWwz1wM5hXbfBd3xUzWPhJ16GAf2MU4JKSedZYURdNFf0/Izt3n00GY5PsFr1YRpvsdkrKUDxeU5XM3w/BlpPTsMz/rJHYq2n/Ay31tFm2mKFrwOSFMK4SrDQ6fy13ysmzjWyLK8uFI6Yq3D2hRyorKGFzNDfSK9mtT85kvfHy9EGUZnyVqElOMKb+YOukmNUJ8lpOR5dTIuMb6aapvIXawqcoSU4wmOZe91qMmzK29d5cHekU/Hx6byn7bp+HrpdTnVxcNJQ5K+aKubZQlovS+S7nEUQfNGyb5LBHnij442Hc8VV1ZEuNZlioOKeajDaxSGJnMXouoCDe199IHKksJZoXPUlCWGs+Xh6cXLWXKUroLLoAAEAACH4tAWypLROnM3aMBh6HUYyQb2AKsLVSWzFKAO2XYVHulpatLWRaC3LMwt1F8vfAQ9SbMhp8V/JS8v/CxYzOvupQlp2bO+rnHfPpPw5sKMhfgTujFNKWdOggzsuGCspRsQByTMjNGXlnK2o8pxmJi18Psmo/9wsmkOhhB+lQJLwVYy/UOK0tb3/1CZiOfeca/nheEWc6y2Vv9Yip7xldUltMub//M5enR1ZgxGEuWKMvsi5XM85XMs+W5G1PdoQ/1vZnDky+SfjONvIOJ9XErPwuPKYaomeu9O6cskVy+1ZVllhQ2n30+6yk2MElZqg4kkqc9psPpUmUpQn6WTz8XZ8lJuXzhkZtLKb4KSsNraRulcajx6ezXxI+4k8qSprRajqNBWZaSh2sgAAR2A4H2U5YIazp8w6Euu+Su431sMoGt4dumyvJEBz+vLcxus7Tks2xcWSKKORrkvrExXj7xkRLfpKyCrFFZSrWJMFMIcpX2882A1qnoISObsrE3gtwFo7j3HGGZcISrzYZL2ZVe7LyyXBoaNeocxZdJjYg64ddZFtcFblWWMy7O4L+wGE9ZUDA2X6IsD37q1btMenenfelg6uFoZ1EUlhZn22uEdf6rKxMJvX4xtXDKLS0VYKcOZK8SnxymmJ3wWcrmi3yDCeXZ8MQnHp3TO3CndDuLPnA9PzRkDq9lIz7GsFVZjs+bBc7Ok+JsPqLt/ffzU3lvh5Pwl8K3pVQZgZuZzV7opndYWQr5grKs5A8hQAAIfFwCbaYsEeZ07mgo4BQ2NwjsZANbhrWFypIunQ3X6ZkznWTdoQhBbp2l8JXsbPjpomuHYWjBF9UsnyVimMsRdpYlhvFrLjd9ltku+dlw2fAyn6VUocJsuKz9Vi3jKkooTyf71CnO7CuEN3k2nNLq2OIeI8naygulWWCEjcHVlVhUVMOU3qDtIKcfCMpyy2z4CbJjhp8Nn3Grig0gNFzqs5R28CBd98TLzY04lfZUD1EnDmYuR3uu54aGilPhFKNZ2Nw1UqksG+Qg2FOZL/GbKitLYQcPNzGdejhh0whtTx+4noseHUt+HVZjukxZjhSVumQ/MoQmXs51FdcEW0/mPmz9KKYYYy47f9zJ153MbHiNfKR6qZgNr9jBw6tYKT5cAAEgAAQ+LoF2UpbkdDfHYDjolc5v48dumcBWMm2lsnRZyQ6eMX5nzAk/d6O4b5dwoJgvw9xnHfwJRCyjJrvmaS0r7eBhg+Sa0fDhXiv7xM8Ok3TYU4HNnS7zXZyiz1LD3gmzaQ1NdvPwqlEJMsLEZ3nNxnhUdKCD/SogKUs64tjcwXOudAePXLiysiQ7kGTtn/Jwt5yMl6MtKmbJx61ZRWUpG65kf5XwKj5LpO8aeVLIrPbpi1pfKR1lZcl0LKfT3444/UZ9dyB6Kx/nT5MRlOU8v4NHHwqP3M+PTfE7e8g6S0VlefC4l/jknJ3Ww4nUw7EP81mSdtURmtjIp9cn7cVKp0328LX8zKK4ZV5SZkJ5G+cgplORL/IOJO6PWHUa67FD4wcNnC0Sr9wbTpmCq/kDS5bi+tRc8tFSNEoE+vbKkrL3P8hP5jwGh8k0Ghu7s/xhypIyuPq/z41Mm/hTpcgOnqlDVk5ddJ/X0U4YzsJ7rycm5h9NOIknW8f7QcVTh+ziqUMr8TmyywpeQAAIAIFdQqC9lKXZNRjvHZroGRRfbiONsExgK+G2TFkK8nHUzq2F5E4dwrTLxK4GuecR7kWES6uIssx3i6cOSUep5wR3DkVPOsipQ8KpQMLpQtv4LDETdbAPwiTBF+5qe8Mxxei07Hk/9yTMrbqYabuoLIn9DLPkIacC3fKwB7ecOiQfTk4dKlnrKVUrkrMfUwyjYk74uPUwWUV6w80Eiv5LpXApwRovqilLjXvgdi55MSQt7lRKU0lZEj4qk+f4wcSjXOohOfVGI2wNFmbD04GhG0vp8lOHDij5LIVj2LPPc8nV6WB4c50lwozj83z2Yrfk7VayUwhHWNv1dSH1N580Fe78PJe4NGAu7gArV5bN4EBQVOSLPIOJkqOOFn84kq1QlmStZN9o8mnCYxJXEWS/j3bwm8m2VZaYYrjIwOjaUvrp8syZsPfoYqmyrJ2b4/MV6Qx86WJ8RqwCVAcfY/Dm5hFXpeUlJ6V/ljy4nk8/yozlvUI72a4e2fErf7xby2i3++VTPR34FggAASCwLYF2UpbbFuajRGilsvwoBVTKFGmYW8U9QMXNQGysuCVc6S4Ir5eA4LMcHtucjK43hdL4ZM79ZkHyOJZ+JXuNsCVyKx8bJuf4tPL1sfJVKmPt3Byfr0iHlQqpWU/mJGWplP5OhyPsW3n61/pR/05nBOkDASAABEBZNvq83L/KkiKTzmRyvOQl7OqAftVEAmU7eBpMGbG+4WfLA721NnsyB70x5Syu5mww99pv/1j5KllYOzfrkezQSPHvwXg5bsmlo2ObbmOlLHY0HLEHvn737mxxFe+O5gWJAwEgsM8JgLKs9RGr1FD2rbJUAgLh2xLQWjpStxe1lg5yLul21wjrI6uFzMNsjfGrpElmmV0Dsy8OuPlFEdvaSZYnLqUzX/qFEyJriV9XnGplX89nLkZoTFeLUzPDKkxqSf8DuNXFoQWRke/ExvvvZ7Xifq8W5AhZAAEgsG8JgLIEZdkogf+/vTNvatv69/8jkTySztjG440xeLvYxsausU3MvqQwgYSwJaEklDbN2jQhC1naJk1KErKULQTCt00D2ViSfkvvH/ef3/z+us/j3kdwR5IthJEcgsFg/J7xeI6Pjz465yUpefE5OnLeXjybG7g97O58eCT775vr7fZtlX0Cm9vj9hFAZBAAARDYkwRglpl6FXKWe/LC2L5BbTxbmWGmLSUbt30j2lzkneLwufvd3OiwFQiAAAjkLQGYJcwyUwJ5e/Fg4CAAAiAAAiAAAikEYJaZehVylimnFD6CAAiAAAiAAAjkLQGYJcwyUwJ5e/Fg4CAAAiAAAiAAAikEYJaZehVylimnFD6CAAiAAAiAAAjkLQGYJcwyUwJ5e/Fg4CAAAiAAAiAAAikEYJaZehVylimnFD6CAAiAAAiAAAjkLQGYZY6ZJUUzfhs35GKtu+P3fylaG+q7P3ztYNHu6E/eXskYOAiAAAiAAAjsBgIwy9wzy31O8tTHudeaHGXkpv2cfW1lFs4wii6ou/zqj98GvGt3TTXdXpz8LqWTWegPdgECIAACIAACILCDBHLNLHXFrmB1eF99uDxSZOR/nJeirc5YYyQuvCqborFAwVrF2W64u2Q2fKfMUg0vzFKNDOpBAARAAARAYA8TyCWzpOiConC9z25iNBxnDQUrQgbN6s/gUhqjLVhTajfRe9cs4y4yE9HORLTTflaafdZbOLFSep/2sSYBAqVhGh3c/SCZCJHB4mSlnhsp5U54yW+lbLmJGwmRIRub+GFojv3GR0bDZCrE3XJyThlexWugbujj0od/lj78szj+jSOJvaD9gVgpvS8+/soi9kfra730dHpu+fXc7O2T9RYhPhW+MDt6/ezDd3/+9m18//XZN6/v94UT/XEc+GHk5auFv9+9mXt0rbOEWz3civ1BJQiAAAiAAAiAwM4SyCmz1JgLvW69qCO0xVVRVaRLqAalKbD4a/xOiybpN1nDms2cJccwNo6xF3Jys6QZ1q5l7VZuOsDFtEKZsBqaoWjGW8w99XIxHeMqYM+XkUELj4vScyMh7qCe+aqU3LWzHjP3NMSWC+2r3eSRmy0lTJGO/dZPrluF9nT5qZmPbxdkr1ttImdichQXO11HR+RmSRvs7hKfu2d4cXqwqsTHl4vNQn+4wHezLx+eqg74PBU912eX7hyy8f0JX5h98+hIOP7d2NL49wf8B2+/nB+K8/0hTbeWZ388EnK7HP7mi1N/PTjiyNphxY5AAARAAARAAAQ2QSCXzFI+PIqU+OMRE5MwS7YoFo1Xe1wOHZuokTfe1nI2zVIcCGtea5Ya/lbR9bPhFM12+8m3hgSQYhs35WZpmuHNMsB5aSboIINmhmLYoXKuRsOb6AEvuVmYaK/RMLqExOtMTkEQRU0s8bltRjlSrvXXNWYp9mfdfZYU7T0xsXSxKhHfefzZu1sH+P6EL8zOXgjQTPTC69ttBsrUc3/53n6GoWhr18OVh8cSNskQo54Q+X5RBgEQAAEQAAEQ2G0EctIsKY2hsKwu4JRNfBNjgdFW6K0qD7q47KYtd7NZ9gfJVJg8S76mPSyrbpa0hrVZubEwN+zjLrjYTjOr3xjJDZtlxbmXK++l3Ofi34u/dHDKZvnrfuEvBHvno7ml91NPH90autjXHMryHbS77VpFf0AABEAABEBg9xPIPbOkaL3ZVxMqdaw3SEpT7InHLNlNW+5yszxlFubHxVlyjkmTsxSWQzEGLVNp4Trt3J0guWoRsqHqs+Hi+f05Zvn2Soss/VnE/22glLNMmCVFE5Mn3nCwt+/M7dH55bsdxbv/ikIPQQAEQAAEQCCfCeSYWVI0MZRUhQIubXJxCcVaCt0OrbhAhLaVxCsKs7vOYzebZbefnDMmZp9ZlikWnDvNbHhxAetOermniJt0iWa5qdnwxp9TnjokzIb/NdSYmNHmzG5noSFxn2XqbDhvlhRtdMZqveZE//0n//X2+pf5fK1i7CAAAiAAAiCw+wnkkllSNKd3xsNBry55e6WQZrM6Y7XuQoNGQ7S28nDUr9vYHO5WHZusmSVFMwWctIKHC/JlVlzPxHPQcyNhrkvP8Kt5BLcWV/BM+LkaPePUc2cCyRU56vdZfukh912slzA2LdvrI8PF6R72SdFaQ5EzsYLn2YVIsbO42G5Iaj2fiXz/9HjUz6/gEe7LpGiu7LvZN+NX9od9nkjHtZmP93v4eyjVcpYUbW0f/mt66HCZ22X31Z98sjz1XflWHTXEAQEQAAEQAAEQ2A4CuWWWhe54U7Qy+fTKeGOJsNiZMXg84dryeH0oFC4syPYij2ya5fGyxFOHEs8eKuf69ImUHkWzVU7uaZhvMF3Crw3npU3D7HfyTx0aD3JX7KxNXJGjYpa0hmW17CkfGQvzd2feKWEDyfyl4plH0dEzv69Ijxbinz20PHc6LPXH3jg48cf7v/n624fEpwhROv/By789n1uefzV79+yXxcJfCGpmyffH03H5yau5hb/fvX09dnugPJl/Ff6i4BpufFgY7sbNl4pHB5UgAAIgAAIgsCMEcsksdwTQJ3eaNbP8ZE/yqgFF+05MrowN+PNq1BgsCIAACIAACOxyAjDLdBO+Gzl4MMuNUNryNhR34ObCwsWqTA/flncMAUEABEAABEAgnwnALDNVE5jljlw/lO/Us6UHrQWJyfcd6QN2CgIgAAIgAAIgkEIAZgmzzJRAyimFjyAAAiAAAiAAAnlLAGaZqVchZ5m3Fw8GDgIgAAIgAAIgkEIAZgmzzJRAyimFjyAAAiAAAiAAAnlLAGaZqVchZ5m3Fw8GDgIgAAIgAAIgkEIAZgmzzJRAyimFjyAAAiAAAiAAAnlLAGaZqVchZ5m3Fw8GDgIgAAIgAAIgkEIAZgmzzJRAyimFjyAAAiAAAiAAAnlLAGaZqVchZ5m3Fw8GDgIgAAIgAAIgkEIAZgmzzJRAyimFjyAAAiAAAiAAAnlLAGaZqVflaM6SMnLTfs5Of/o3bKJOMhPRzkS00+VcnebT7VOupTIHN+b8NOSN9yclvvwjRetLb/S39ZUI78XSV1RBkf9Me9tYX+eTrrqv3DomMQrK6Aj+0HFo4kTXaHdDv0+frJc2TClQNKevrmuZ7O95WlMoQ6dWn7K59JEqKCoV+tPxuLO2161NUlXtp0p7MSBFHBUjfQ3NxtX4KhykBiiAAAiAAAiAwDYRyDWz1BW7gtXhffXh8kiRUSuHojGVhWJBw6fkQL7JlpT3vFlyLGPjGFsBey8HzFLrudbf2usQ3m3i8aVoUnzqWMePlc5SqykSrn10vLGVlzCKJo5zX3XeqnT4LKZyvn5/uynNKUHRxNLR1j7ZXXWqtUNmlmr1aqEoWlt8+tjh6/vsXqspFm0Y7asXpFC9n8rtk6NjTT0dXXf3GWVnPkUrcFDrD+pBAARAAARAYAsJ5JJZUnRBUbjeZzcxGo6zhoIVIYOU7NGYisvrPIVrXHMLMaUJlU2zLLWTcRf7ZQkZDZOHPq6SJHNvGqbRwd0PkokQGSxmTUI6jaKZw6Xkko074yfjIe6Wk7UJuPQWTsxBSu/TvuQmLNvh5kZCZDzIXbGzVnlajnB3NmyWFMsc83CjYTLsYducqzlLSil+uv4ojSvNsaBormSwv+VIkfBuFVtSdHH0UW8slGClb2/vuRzQ0AxFW0O/nqiqTuRTzV/1dJ3zpg1uCVzc7/VoqVBN+xqzVK5XC0XR9shwV9if6A+/3wtemu+PWj+V2ydGZy1rmDxaUU7ku1PkIG+AMgiAAAiAAAhsE4GcMkuNudDr1gt6RNEWV0VVkS7x3zNXXFEedBOZCW0Tr/Vhs2yWz8q4I0bWqWWPeMmoi+V4I2G8xdxTLxfTMa4C9nwZGbTwWESzfOpjm/SM28DeCJFBs4CLYe1a1m7lpgNcTCuUCSuYFhNzcU88XEzPOPXs+QC5JMQRh0xt2Cwpmil3kHEfV6FjSozc5TIizoZTtEp89f6ojKv81MzHtwuy1602TfLQO3/ob+60iO+JntPu+ERX0J04VZjG5p5bYcJz42wDRw/9EDDoWNrqit7trWsyrD++Ug1Fc7SQF1xnlsr10oZpChTNFA4c6zxdQvH9Ue6nfHN5e+EQ6xznejsG/Vxy+FLj9Rykr1AAARAAARAAge0jkEtmKadAkRJ/PGIS/6fn7N6KqiL9p2/mk0fYqnKWzfJ5CcsKGqExclN+zsUbCdvtJ98aEuZUbOOm3KyQA+NzljcKeSy81Tm5p45EG75G6T5LjYZhkmngkIM8kbf/DLPk+3NBsFiKZiqcCbOkNWy6+Ov6oz4uncnpc5fIXrbVWwzXH9aksek9l441H7FJZslDIEWBG7090/09M30tAxv9yyTFLKU9qtVLDdYXKGugbuxoLMQJx0g0S4V+ShvK2/OVgaq2Z4f9doaijYHb/XWNO5Czl/qGAgiAAAiAAAjQGjYnzZLSGArL6gJOk+BPxOCtDZZY+HKBLxjx69blb7b1SGfZLMedCTukCNtZyFoEs+wPkqkweZZ8TXt4+xRzlhfFPKWG5WfSk9uqmSW0ALFCAAAdd0lEQVTRsRf9ZFyIMxleNUJBwjY6G07RbF+AnDIm+ilfwZMuvpJZKo7rc49m0iwZTUEBIYxklhStKz51pP163BkossTC1fe/ajhg3khwNYNUq1eLSWltoZ/6WgdcYsZRrZ/S5qntNebATyfajtuFfDPMcmf+sJSODgogAAIgAAIigdwzS4rWm301oVJH4v9j4iqNR8ws7zF5ZZbSGUzRbH+QnDIL89ri7DbHSDnLjZslpWEHguQnO+sVgtTKco1bYpafiK9ilkrjSjcbLmGRCpKxiTWrZqkP1E8fDhQlDFhTu79rOC7eoiptq1hQM0i1euUgrNl7tbd9MCAtSFfrp7g5tb69KdQ40+63Cmc+cpYamCUIgAAIgMCuIJBjZknRxFBSFQq4Vh/UovMEKhvLY/XhWH24oiGaNzlLyVfEWeNzyRwhyzLFomcLK3g+wyxZ9no518qJpsLEXJvPWfaUKsyGU+njK5llt58ojetzZ8PXrYy5WsbQDGUKNc20+20Js6Sr93eNVJllCW9NgYFLrpGSaPOSvXYFj/SVWv36OJTG4Dxz5PCNqEkWX2EFj9BPfo+K7c3hppn+Iy++ll6YDZeOBQogAAIgAAI7RSCXzJJ/aqAzHg56pecRCv/pcgynS7xMgVA+miW/gmfCz9XwK2+4MwFyPZHH4u+zVDVLPTcS5rr0DL+aJ2GTfM7yRzvr0TIBM3clsNYsNeylMDlrFp5AxLG65O2Y609cfgWPc3UFz+DqCp608RX6ozyu9XtMXyM9zceReOrQiaZD/NOFKNrkv3W8/VqMf/pPOFA1zM8s00mzpIyltRP93XdjRqmGZonNYnBaDI2Nh0cbXU6LwWngDVWlXuyVUhytta+ja6TJXWLU24SXVSfMaCeejrSunyrtGZ3ebTUmXq7IPdxnuSv+WE9/NuJbEAABENjzBHLLLAvd8aZoZWMknniVyBYv866QT/dZyk9NSsPsd/JPHRKfFiQ+XegT91nSbJWTexrmn4I+XcKvDac1rKGAu+wnE2Fy1802O9aaJc24rdzdIHleTqbLSZc2mepTmoWkWLbXwz8a6b6HOyh76lDa+Ar9URyXfOAbLPNPID/bfnDseNdod/1xrzQBTZtdq09K/7q0QDBsMSalL9n3sK/9Wki/apaW4L01OcKemWYnw1C0cr16nKLIw7VxhuOivyr2k6JV20vD3/gKHormGm58WBjuLkiOSwqCAgiAAAiAAAhkTiCXzDLz0W5HhGyu4NmO/m86JqVn7yfXDCUXD3HV6rnMTe8IG24hAYr2nZhcGRvwb2FMhAIBEAABEAABiQDMMtMZtPw1Sw1jExcMyd61yIQpJXGl623HCxR34ObCwsWqTE/7HR8IOgACIAACILA7CcAsM/0vNm/Ncnee0OhVegKU79SzpQetBeluZkgfAd+CAAiAAAiAQBoCMEuYZaYE0pxe+AoEQAAEQAAEQCCvCMAsM/Uq5Czz6oLBYEEABEAABEAABNIQgFnCLDMlkOb0wlcgAAIgAAIgAAJ5RQBmmalXIWeZVxcMBgsCIAACIAACIJCGAMwSZpkpgTSnF74CARAAARAAARDIKwIwy0y9CjnLvLpgMFgQAAEQAAEQAIE0BGCWMMtMCaQ5vfAVCIAACIAACIBAXhGAWWbqVchZ5tUFg8GCAAiAAAiAAAikIQCzhFlmSiDN6YWvQAAEQAAEQAAE8ooAzDJTr9rlOUvKyE37OfvO/ehimYMbc34a8pb0k6L1pTf62/pKhPdi6UqmaE5fXdcy2d/ztKZQhkKtXtowpaDWXq0+ZXPpI1VQVHqmvW2sr+NxZ22vW5v8sXWqoMgv1Hc+6ar7yq1jEr+Uo9ZeDEgRR8VIX0OzcTW+CgepAQogAAIgAAIgsE0Ecs0sdcWuYHV4X324PFJk1NIalqL1tlBTNN4YEV+RUp1MHbaJmjwszFJOY305u2ap9Vzrb+11CO82sTMUTSwdbe2T3VWnWjtkZqlWv34IWx1HW3z62OHr++xeqykWbRjtqxekkKJJ8aljHT9WOkutpki49tHxxlZeFilauX2yV6ypp6Pr7j5jUkPFTdZzUBsX6kEABEAABEBgCwnkkllSdEFRuN5nNzEajrOGghUhg4YRzLLWvnO/g5xNsyy1k3EX+2UJGQ2Thz6ukiRzWhqm0cHdD5KJEBksZk2CW+st3ExEK39N+/ivKJrt9pPvTYlt+ZhOWXldfIpmDpeSSzbujJ+Mh7hbTtaWzLGpnYgUyxzzcKNhMuxh25yrOUuKZTvc3EiIjAe5K3bWmrafvCEpjUttp4JRcSWD/S1HioR3q9iSoi2Bi/u9Hi0VqmlfY5bK9Wrxty6OPTLcFfYnmJu/6um64KX541IcfdQbCyXq9e3tPZcDGr5euX1idNayhsmjFeVE3m2KVuAgb4AyCIAACIAACGwTgZwyS4250OvWC1pD0RZXRVWRLu/M8lkZd8TIOrXsES8ZdbEcbx6Mt5h76uViOsZVwJ4vI4MWwU4Y1q5l7VZuOsDFtEKZsIKppDNLxfiHS8lTH9ukZ9wG9kaIDJoT9qN4UlI0U+4g4z6uQseUGLnLZUScDadoJubinni4mJ5x6tnzAXLpE/1UHhdFl5+a+fh2Qfa61aZJJqqdP/Q3d1rEd7F7FM3RQj5vnVkq1ysOStTWLYkjj0/RTOHAsc7TJRR/HN3xia6gO8GWaWzuuRUmyXElx7LaXuiSznGut2PQz61tRmvY9Rzk+0UZBEAABEAABLaJQC6ZpRwBRUr88YiJEcwyKE6FN0hT5PKW213Ocs7yeQnLChqhMXJTfs7FGwlvit8aEkZSbOOm3CydVI319y+mz1kqxedzljcK+XsleTt0ck8d6c2S788FwT4pmqlwJsyS1rAaDcMk850hB3kii6PWz/Xjomidyelzl8hettVbDNMc7hSzlFqq1UsNUgpq7dXqUzaXf6Ssgbqxo7EQJ7AVzVLvuXSs+YhN2Sxl7fk4gaq2Z4f9doaijYHb/XWN/P0heIEACIAACIDADhLISbOkNIbCsrqA0yT5k5hSIoXl4YpgQdJdsoM1y2YpzVxThO0sZC2CWfYHyVSYPEu+pj0J++SxrFvBk94sleLzZnkxmaeUz54rEqZoti9AThkT9im/z5Lo2It+Mi70czK8apxq/UwzLsVdp69UMz+1erVoau3V6lXjaG2hn/paB1xixlHKWWoKCghh1pslldJeYw78dKLtuF3IQ8MsodQgAAIgAAK7gkDumSVF682+mlCpY/0MIEVbXfsqi7TpMmpq/81vun6nzFLqMEWz/UFyyizMd4uz3hwjOfemzVIWf2vMktKwA0Hyk531Cp2sleUy05jl+nGlnw2Xur2+oGZ+avXrI4g1au3V6hXjUKzZe7W3fTCgT668kcxSbJ9ilgrtTaHGmXa/lT/bkbNUhIxKEAABEACB7BPIMbOkaGIoqQoFXKsPatFYiko9yZsv89Qsu/3kXDJHyLJMMbvq1kpmybT6yFDCSJiYkzywJ9or5iPFFTyflbPsKVWYDadY9no518qJJsTEXJ/OWSqOK2uz4ZoCA5dcIyW/MtUMUq1+fRxKY3CeOXL4RtQki6+wgudqGSPc1aDc3hxumuk/8uJr6YXZcPlhQhkEQAAEQGBHCOSSWfJPDXTGw0Gv9Jw/IVtjKArXeYv5BeP8bHgsIFpm1mjugpwlv9Jlws/V8CtjuDMBcl2wRpEApedGwlyXnuFX8whWxy/vsHGTfq5Oz5QY2Vuh1Xs0t8gsmXLn6gqewdUVPHzO8kc769EyATN3JbDWLNf1U1yZpDaujR9fimaJzWJwWgyNjYdHG11Oi8FpYIS7CBTrE9yMpbUT/d13Y0bpjtUti6O19nV0jTS5S4x6m/Cy6oQZ7cRThxyJpw6daDpkEs5wlfaMTu+2GhMvV+Qe7rPcFdNAGz8z0RIEQAAE9iSB3DLLQne8KVqZfHRlvLFEWFys0TvdwdpwvD4UDhca1jx+JQvHbMfNkpcPDbPfyT91SHyaj/ypQBTNVjm5p2EyE9FOl/Brw4X2bIPQfqyMO1fI6pPytCVmycdn2V4P/2ik+x7uoOypQ4YC7rKfTITJXTfb7Fhrlsr9VB3Xxo8sRVuC99bk9npmmp382i/lejEypS/Z97Cv/VpIgqPWXq1ePU5R5OHa/gzHRX/ln5R+tv3g2PGu0e76415xopyiVdtLEDAbLqFAAQRAAARAYGcJ5JJZ7iwptb1n0yzV+rAj9ZSevZ9cM5RcPMRVZ3f51I4MHDsFARAAARAAARBQIwCzzHQGLX/NUsPYxAVDsndtMv2pdsKhHgRAAARAAARAYA8TgFnCLDMlsIcvDwwNBEAABEAABEDgswjALDP1qrzNWX7WeYbGIAACIAACIAAC+UAAZgmzzJRAPlwnGCMIgAAIgAAIgMBGCMAsM/Uq5Cw3cp6hDQiAAAiAAAiAQD4QgFlm1Sy/8JoGDrkGDrm+8PKPKsQLBEAABEAABEAABPYSAZhlpnq3wZxloVn3553o//5ni/T680600KzbSycTxgICIAACIAACIJDnBGCW2TBLhuH+Ga2UnFIq/DNayTBcnp+CGD4IgAAIgAAIgMCeIQCzzIZZnmhzSTaZUjjR5tozJxMGAgIgAAIgAAIgkOcEYJbZMMtnQ+EUoZQ+PhsK5/kpiOGDAAiAAAiAAAjsGQIwy600S1fXjaGTnUFzasyPj+OSSqYUPj6O75mTCQMBARAAARAAARDIcwIwy1QL/NwTQr6Ch7gb+m7Mvnrx834HkccZvfxFilBKH0cvfyFviTIIgAAIgAAIgAAI5C6BXDNLXbErWB3eVx8ujxQZtRJ3iiam0rqAw0hn/Xer5WZJa1iKNscv/fHmcV+xrCdVX1j/55/VVeGSVv7PPy1VX1ilUaAAAiAAAiAAAiAAAjlNIJfMkqILisL1PruJ0XCcNRSsCBk0TIJ+gT9YXqqTPmbxUZEpZsnLpanr16XZE55k34TO3DpZKgmlVLh1sjSnzx50HgRAAARAAARAAATkBHLKLDXmQq9bL+gjRVtcFVVFOt7eKFpvC1Y5jDvz+B4Fs6RLv576+8aXaybEaQ37X5PVklP+73+2/NdktfxIoAwCIAACIAACIAACuU4gl8xSzpoiJf54xMTwZqmxhMIV1YFITbA8UmzWU7JpaPkm21RWMkv70Scrdw6l/srO44shuVk+vhjapi4hLAiAAAiAAAiAAAjsCIGcNEtKYygsqws4TTTNUHSBLVTnKTJqaJYx+QP7YlayZhp6u7GqmeUv7ebt3jXigwAIgAAIgAAIgMCuIpB7ZknRerOvJlTq4ITcJEXc/ooyvVimOWugyVuYOg29rcSVzNLR+9vKnYOGlP3W1DX9v///39Krtn5/SgN8BAEQAAEQAAEQAIGcJpBjZknRxFBSFQq4tMnFOpS+NFhRVpAwS2LhzTKrN1wqmWX07B/Ll2szfZ5RTp9Y6DwIgAAIgAAIgEAeEsgls6RoTu+Mh4NenXB7pXi0KI3FGa33Ocz8gnFLWdm+qIXb4dlwJvz984WRgyaFbkxOzYo5y8mp2Tw82zBkEAABEAABEACBvU0gt8yy0B1vilY2RuKJV4lFWMGjd7qCteXxhlB5pMik2+EVPObqcxPLz7+Pi5P1e/vswehAAARAAARAAARAQE4gl8xS3u/dU5bPhlsbr47NLY1darbJsqq7p6voCQiAAAiAAAiAAAhsKwGYZaZ3Q8rN0lx+oMZn1mT3sUfben4gOAiAAAiAAAiAAAhsnADMcivNcuPc0RIEQAAEQAAEQAAE9h4BmCXMMlMCe++qwIhAAARAAARAAAQ2RwBmmalXyWfDN3cMsBUIgAAIgAAIgAAI7A0CMEuYZaYE9saVgFGAAAiAAAiAAAhkTmAnzVKrN++BV2GRcw+MAkPYtQTKQtHPeu3agaBjIAACIAAC+UAAZpmp3cIs8+E62cExfpZWloWiO9hV7BoEQAAEQAAEYJYwy0wJ4CraVgKfZZbiLzxta38QHARAAARAAATSEIBZZupVyFmmOb3wVeYEYJaZM0QEEAABEACBrBGAWcIsMyWQtZM1P3cEs8zP445RgwAIgECOEoBZZupVKTlLorNG+0fuD3W7dKbtOCe2O/529BkxMyEgN8tYy9ff/zx2qTsiVjacun/32tmDNTGpDWbDM0GNbUEABEAABDInALPccrMsbro298fYqbLtMsttjE+s+7qGxqbnl+fnXt6/0lNq3BY5/qyzlhy4uzh1rnR7YKbpycb3S3SB42MrP7fb0kRb/9XG44vWGAjGavuGZxZWFhfmLx9OmGXNd2PzSysLr8ZOt1aKzWCW61GjBgRAAARAIJsEcswsdZ6WE9ce3n8yce+nq51Rl1ZvJgXN58amn44+fyK8no7N3OmLZZNgSs4ym7ve2n0RnTl24dWb8aGWioh/X9fgsw/jJ7NKUnE4Gzcwxc03Xbnx/WbHLMu+vPpsceXN8587q9Y8hChy4IfH8yuLr4Y7Y7xuwiw3fcSxIQiAAAiAwJYQyCWzJDp/+83Ri4cjZkORs+HCLw8vxI0mwSxvNFn47BrR+dpvTJ5tsG8Jmg0GkZtl082PSx/+Wfrwz+LEaU8yzSaax51vjw1Nvpt/Pf/oWpenQOht6emx5clj7kReUN/449z8zWrxK0usc2h8en5p7o8XP51sKkqGUozPD9wYPnDxydSrpfm5l8OXunzJXCMxR9qv8DnI13Ozd0632PXpcpBEF+wfX7ndXiQO3LrvaF9LVCvsWjGO2rj4/qjsN3Z+bv7mt123Z+feLb54cn2/J5EwJkX1J24/n329PP/q918vHHQJ/bR0PRJhSu+LT762i/1R4aMWX+1QEqU46farxPlzOaSLr8RBTEa233q3uPzqUssarRS/qjw5/nb5rwcD1TBLtQONehAAARAAgawRyCmzLKhoPdldJrqXrqr/4YMun4no/fsONnkMoqsd//kRr5tZw6fVm+VmaSz2uz0BX9+T9Wb5x29XD8djZQ1nH77+cKfDLXhw9OT03792i2Vz5aXXczfa9DoT0Vmi5/54M3a1ORotq/vm3quFm618dlarN6vENwe/m3079eOheDSwr/vK1Iexb/lcI9FZys/+689H5xsikUB1383ZpbtdnjRkiG7f6Rf/HmpOpacWRzQqpXGp7jd2fu7t70++PVAZCDd/+2hp7tYhAz9ea8PQwu+/nmqoiAaqem/OLt85zDPRFvpKA+WlvQ8XZ67VBcr5colTl5aPYny1IatyVt2vGmd+NvwzOKjGV+ZQFooGgo1nJlcWX91uCybmwUWnFN8DNT+MLa+8vNkDs1Q71qgHARAAARDIGoFcMks5FOLqGXpyrU5IVYr1RGcJn3h8r79Kl8zwydtvX1luluJeDO3315vlSJ9PsD1z3bWFl4NNYsvIuZdv73QbeVuKn579cLOVzxcSXXhg8t83W63JNn/OXWuR939d/NK+0ZW7XYlMrbXhzFB/kxAzPDC5NFifMEXvwPN3Px0Wc5DyaFJZMsuCg/feLnzkX8O9Fr5vynFEs1w/LrX2Wr05dn5u4W6PQThA+pZf3k1/HxDKOoNNL/zBoNWbqwbf/n6pYbVX6+6zTMNHLb4UTV5IE4c/Cgr7VePMm+VncVCMr9WbFTkIZtlycWZlcfpqvaJZhr8ZXl55/UsfzFJ+fFEGARAAARDYEQI5aZakINB6dfRGT0QukcRY/+3Ig55ApityPvcwbNAspRUe/Izt0IHEXiqv/OvN7QaDiQROjy8+bCsUMq+6ugt/Ll6qSxihp39q8d6RApkurzNLtVxj3YU/V94vCo648PHt4t+L946KVqc4RskstYWlpYHy+Jnniw/6BLNUjiOa5fpxEb7/yvuVj5342k70NTuEcZmiAz9PvZ1/z3f13dLK3LVmqYdKhqfKRy2+FE1eEPqpyllpv2qc16zgkfqQhoOaWSpyEMzywA8vYJbZvrTlZwvKIAACIAACGySQe2ZJ9J6a0yN3v29NuWvQ1HBl5FavU2ZgG0SQYbNMzJLomwZfvbtYY3b1Tby//5VV6Hx649HqzZ9jlu+uHRTmkcXZZLdjIzlLEYijb2zxvmSWCnHSmqVCezFnuWrVyV+NJwX1F19+ePL9ofIyvqut199siVl+8rCm57xFZqnMQdEs1TiIOcsLMyuLL4YaFXOWkZMPllfmbyNnCfUEARAAARDYeQI5ZpZE54yeGL53uUu8sVKyB6JztVx9dqkt3X2EUuOtLWRkljpLw9DC9LnmzuF/P+jlp8t551CYDV/N4SmZpThL6xA3t3158eeTXyZnw/+60ZKYVTfYg15nsXzsepvPZl49BVNW8ETPv5q/3prsj0IcdbMMD0wqtFc1S8eJkeWJo04xX2tuGFpaY5Ytv6Q8dSgNHylfKB+mWjlNHH7UCvtV46yWs1TloBxfhYNgltXfPP178d2D7pDSfZbNQzPLKy+utGM2XO1Yox4EQAAEQCBrBHLJLInOVnbkzr2hPr8pMVMsYSKuo9efXqu3ptZLDbavIJkl0RVa3YHECp6pwbgn4Pb4rEaTmoGJXTK03Hk9MTbyZuorT6Lz4sqS12NXv0yu4LnR4hQMTy1+YmXJwXg0EO+5Ov1x7Juo0N4SOfv7mwn+KUKByqNDLz4+6PVLHEhR1523K+8mz4h3OgrthacOTQy1xKJl9d8Nzy0k96scR21cRKfcXtUs9fUX//zw5PzBcCBacfDyr/9aXGOWFYOz78e+roryK3hc/L2kanzU4ktDTimkicPvRWG/apzVzFKVg3J8FQ7iMp2672cXlpcfDNTL1+4I0hnv+On14vK7G53889Lx1KGUo4yPIAACIAACWSaQW2ZZf/K3madjiUdXPhl9frImYWOlxx7cP90kvxkxaxxlZllz/o8V6RE5/LOHlufPVnzCLIml4+f3K4uTZ7yyeXzxaTgz80tzL1/8+E2DLTFLrhyf1xRTedvgb8/nhKcODXb5hJXyfL0levia8OTzV//69ftD7uQqGf6rwgNXZpde3j9eIt+vdV/30PjM/NL8yxc/DiT2qxZHzSzV2qcxv6Ka83en371+/278ztfdg3NrzFLna7469cf7v3mev3TrRRTC04JS+KSJr3YyKHIWGxPF/Spx3gQHHpFSfEUOiQXgFcduvfx7ceHlnTPHaqOJzGWwqr1vaGp+eWXu8dlqYaIcZql2rFEPAiAAAiCQHQK5ZJbZIfK5e5HM8nM3RPvsECCxH56LS91X3++1yCQ7O93Y9F5Wk5Q1fUPPlhaW/77TmzDLpsGXi8t/zQ6faYwkamCWm+aMDUEABEAABLaEAMxy9UbDzQGFWW6OW9a2Iia3R1zAtPpeapZlarPWk83taNUsQ9FAqLK287vu/QmPjLcPHGmpDcqW9cAsNwcZW4EACIAACGwVAZglzHKVgPc/bB8eV3v/g/8JbJR3CQe5WaaUY7HIQEcwJvyuo1iGWW7Vv4yIAwIgAAIgsDkCMMtVr9ocwT2Ts9xf6f7wuBrvu41Aik1KH2urygc6ginvMMvNXcXYCgRAAARAYKsIwCxhlgkCyFbuzkytpJIphZRspZS53Kp/GhAHBEAABEAABDZBAGYJs8yUwCZOO2yycQIpQvnJjxuPjJYgAAIgAAIgsOUEdtIsaQ27B16FRc49MAoMAQRAAARAAARAAAQyJwCzzNRuYZaZn4WIAAIgAAIgAAIgsDcIwCxhlpkS2BtXAkYBAiAAAiAAAiCQOQGYZaZehZxl5mchIoAACIAACIAACOwNAjBLmGWmBPbGlYBRgAAIgAAIgAAIZE4AZpmpVyFnmflZiAggAAIgAAIgAAJ7gwDMEmaZKYG9cSVgFCAAAiAAAiAAApkTgFlm6lXIWWZ+FiICCIAACIAACIDA3iAAs4RZZkpgb1wJGAUIgAAIgAAIgEDmBGCWmXoVcpaZn4WIAAIgAAIgAAIgsDcIwCxhlpkS2BtXAkYBAiAAAiAAAiCQOQGYZaZehZxl5mchIoAACIAACIAACOwNAjBLmGWmBPbGlYBRgAAIgAAIgAAIZE7g/wAhQDRXx7ehxgAAAABJRU5ErkJggg==;" vertex="1" parent="1">
          <mxGeometry x="640" y="440" width="883" height="711" as="geometry" />
        </mxCell>
      </root>
    </mxGraphModel>
  </diagram>
</mxfile>
